<?xml version="1.0" standalone="no"?>
<!DOCTYPE svg PUBLIC "-//W3C//DTD SVG 1.1//EN" "http://www.w3.org/Graphics/SVG/1.1/DTD/svg11.dtd" >
<svg xmlns="http://www.w3.org/2000/svg" xmlns:xlink="http://www.w3.org/1999/xlink" version="1.1">
<metadata>
Created by FontForge 20201107 at Thu Apr  7 01:02:25 2022
 By 
guaschetti 2022
</metadata>
<defs>
<font id="BASQUIATRegular" horiz-adv-x="385" >
  <font-face 
    font-family="BASQUIAT"
    font-weight="400"
    font-stretch="normal"
    units-per-em="1000"
    panose-1="0 0 0 0 0 0 0 0 0 0"
    ascent="800"
    descent="-200"
    x-height="483"
    cap-height="474.5"
    bbox="-119.143 -150 725.25 719.062"
    underline-thickness="0"
    underline-position="0"
    unicode-range="U+000A-2212"
  />
<missing-glyph horiz-adv-x="527" 
d="M50 700h427v-700h-427v700zM78 680l185 -309l186 309h-371zM251 350l-180 300v-601zM264 329l-185 -308h370zM276 350l181 -303v605z" />
    <glyph glyph-name=".notdef" horiz-adv-x="527" 
d="M50 700h427v-700h-427v700zM78 680l185 -309l186 309h-371zM251 350l-180 300v-601zM264 329l-185 -308h370zM276 350l181 -303v605z" />
    <glyph glyph-name=".null" horiz-adv-x="0" 
 />
    <glyph glyph-name=".null" horiz-adv-x="0" 
 />
    <glyph glyph-name="nonmarkingreturn" horiz-adv-x="333" 
 />
    <glyph glyph-name="controlLF" unicode="&#xa;" horiz-adv-x="0" 
 />
    <glyph glyph-name="controlCR" unicode="&#xd;" horiz-adv-x="0" 
 />
    <glyph glyph-name="space" unicode=" " horiz-adv-x="214" 
 />
    <glyph glyph-name="exclam" unicode="!" horiz-adv-x="135" 
d="M64 82q15 -1 26 -11t14 -25q6 -26 -16 -41q-21 -12 -43 -2q-4 4 -9 8t-7 7q-4 3 -5.5 7.5t-1.5 8t0.5 9.5t0.5 8q3 15 14.5 23.5t26.5 7.5zM99 474q20 -25 12 -56q-11 -41 -12 -84v-1q0 -4 4 -127q4 -33 -17 -60q-14 -12 -31 -8q-17 5 -21 22q-4 33 -4 56
q-1 19 -0.5 65.5t1.5 61.5q3 55 2 95q-3 17 7 31t27 17q5 1 9 1q15 -1 23 -13z" />
    <glyph glyph-name="quotedbl" unicode="&#x22;" horiz-adv-x="233" 
d="M65 485q39 -9 29 -86q-3 -22 -4.5 -32t-5.5 -25t-10.5 -21.5t-14.5 -6.5q-1 1 -5.5 0t-11.5 7t-11 25q-8 21 -11 43q-4 23 -1 47q2 24 14 38.5t32 10.5zM181 474q43 -7 31 -75q-1 -4 -3 -16t-3 -17.5t-3.5 -15t-5 -14t-7 -10t-11 -7.5t-14.5 -2q-2 0 -5 1t-10.5 10.5
t-10.5 26.5q-6 16 -7 32q-3 23 1 46q3 25 12 35.5t36 5.5z" />
    <glyph glyph-name="numbersign" unicode="#" horiz-adv-x="432" 
d="M403 196q14 -10 12 -27q1 -12 -9 -18q-25 -15 -54 -11q-1 0 -64 2q-20 -99 -28 -123q-6 -19 -27 -24t-32 13q-5 10 -5.5 23.5t3 29t8 29t9.5 29t7 23.5l-59 -1l-1 -7q-3 -53 -19 -102q-4 -10 -6.5 -14.5t-7.5 -9t-13 -5.5q-12 -3 -24 4q-18 12 -17 33q0 12 3 23
q0 1 2 7.5t2 10.5q7 30 16 58q-2 0 -6 -0.5t-5 -0.5q-13 0 -22.5 0.5t-21.5 3t-17.5 8t-8.5 15t5 23.5q2 7 24 12q7 1 13 0q19 2 38 0h15q7 35 16 86q-8 0 -32.5 -3.5t-41 -2t-29.5 11.5q-10 8 -9 21q1 17 13 29q11 8 30.5 10t47.5 0t34 -2q10 49 23 96q2 26 18 46q9 9 21 9
t20 -9q7 -7 7.5 -19t-2 -21t-7 -23.5t-5.5 -18.5q-1 -3 -11 -60q56 -3 58 -3q1 7 2 10q1 12 3.5 25.5t6 30t4.5 25.5q10 54 34 58q13 2 24 -5q18 -11 17 -33q0 -11 -3 -22q-8 -46 -24 -89q33 2 66 0q12 -1 16 -14q8 -14 4 -30q-2 -5 -5 -8.5t-8.5 -5.5t-11 -3t-14 -1.5
t-14.5 -0.5h-16h-15h-15q-6 -31 -16 -83q31 1 71 3q18 1 33 -8zM240 209q4 13 14 76l-63 1l-1 -4q-4 -14 -16 -82q61 1 63 1z" />
    <glyph glyph-name="dollar" unicode="$" horiz-adv-x="319" 
d="M171 433q-24 -8 -45 -25.5t-20 -38.5q0 -10 7 -20t12 -15t19 -15.5t15 -11.5q9 -7 34.5 -26.5t38.5 -30.5t29.5 -30t25.5 -39q19 -48 -11 -91q-31 -31 -70 -50q-1 -11 1 -44t0 -43q-7 -16 -23.5 -20t-29.5 7q-7 8 -8.5 19t0 30.5t1.5 20.5q-1 1 -1 2q-60 -12 -110 23
q-26 20 -15.5 43t42.5 22q13 -1 35 -6.5t38.5 -4.5t33.5 12q18 13 23 35t-7 41q-13 29 -41 52t-59.5 45.5t-47.5 45.5q-19 31 -16 58t24.5 51t48 40t53.5 25q0 5 -2 18t-2.5 23t1 21.5t9 17t20.5 5.5q8 0 14.5 -2.5t10 -8t6 -9.5t3.5 -13t1 -12.5v-14.5v-12q48 6 86 -24
q17 -18 7 -37t-34 -21q-14 -1 -45.5 7t-51.5 1z" />
    <glyph glyph-name="percent" unicode="%" horiz-adv-x="532" 
d="M335 330q-10 -20 -28 -51q-4 -7 -12.5 -24.5t-13.5 -25.5q-14 -24 -21 -51q-3 -8 -13.5 -26t-13.5 -26q-10 -25 -23 -49q-10 -28 -26 -53q-6 -8 -9.5 -12t-10.5 -7t-15 -2q-14 2 -25 12q-17 16 -12 39q3 11 8 21q1 1 6.5 11t7.5 13q15 30 33 57q15 25 39 69q1 3 5 9t6 11
q2 4 17 32q6 11 13.5 32.5t11.5 30.5q37 72 82 139q7 10 23 11.5t28 -9t7 -31.5q-10 -30 -29 -55q-27 -48 -35 -65zM512 154q15 -41 -0.5 -81.5t-53.5 -60.5q-44 -22 -90 -4.5t-64 63.5q-15 37 -5.5 76.5t39.5 66.5q34 30 79 32q17 1 39 -8.5t24 -23.5q23 -26 32 -60z
M453 84q11 22 6.5 52t-27.5 43q-22 12 -45 0t-26 -37q-7 -22 0 -44.5t26 -35.5q18 -13 38.5 -6t27.5 28zM216 413q9 -38 -3 -74.5t-42 -61.5q-33 -28 -76 -26q-36 7 -57 37q-16 26 -23 57t-0.5 64.5t29.5 54.5q20 20 47 26.5t54 -1.5t46 -28.5t25 -47.5zM149 333q24 43 2 87
q-11 19 -32 21t-35 -13q-14 -20 -17.5 -49t9.5 -51q14 -20 38 -18.5t35 23.5z" />
    <glyph glyph-name="ampersand" unicode="&#x26;" horiz-adv-x="436" 
d="M351 78q7 -6 11 -10.5t11 -13t9.5 -15t3.5 -14t-4.5 -14t-16.5 -10.5q-39 -16 -72 54q-34 -32 -79 -46.5t-92 -7.5q-35 7 -70.5 28.5t-34.5 51.5q-6 51 20 94q29 36 68 60q14 11 16 23t-3.5 21.5t-17.5 23.5q-30 32 -34 76v4q-2 44 38 73.5t84 24.5q42 -4 70 -35.5
t26 -73.5q2 -24 -10 -45q-5 -10 -33.5 -32.5t-29.5 -39.5q0 -4 1 -8.5t4.5 -10t5.5 -8t7 -9t6 -6.5q10 -13 50 -55q11 17 18 37q5 13 17.5 18.5t22.5 -5.5q19 -22 14 -50q-5 -32 -24 -58q7 -12 18 -22zM156 414q-27 -15 -23 -45v-1q13 -38 36 -69q26 19 44 45q7 16 9.5 23
t1.5 20t-10 22q-12 12 -28 13t-30 -8zM248 95q6 7 12 15q-19 22 -42 38q-5 4 -15 13t-19 16t-17 9q-4 3 -10 1t-8.5 -2t-7 -4.5l-6.5 -6.5t-6 -7.5t-6 -6.5q-24 -23 -34 -54q-2 -13 7 -23q35 -25 78 -22t74 34z" />
    <glyph glyph-name="quotesingle" unicode="'" horiz-adv-x="130" 
d="M110 453q2 -11 2 -14t-1.5 -11.5t-2.5 -15.5q-3 -24 -10 -47q-5 -21 -18 -39q-8 -10 -20 -7q-17 4 -23.5 19.5t-8.5 40.5t-5 33q-20 62 26 75q20 7 38.5 -3t22.5 -31z" />
    <glyph glyph-name="parenleft" unicode="(" horiz-adv-x="266" 
d="M161 -74q54 -19 54 -37q0 -21 -8 -27t-29 -5q-71 2 -113 86q-72 144 -28 341q13 86 61 158q8 10 22.5 21.5t31.5 21t32 7t20 -21.5q6 -18 -5.5 -30t-32 -22.5t-26.5 -18.5q-37 -42 -54 -146q-18 -89 2 -178q10 -45 27 -88q24 -55 46 -61z" />
    <glyph glyph-name="parenright" unicode=")" horiz-adv-x="254" 
d="M207 337q29 -97 24 -197.5t-43 -193.5q-12 -31 -36.5 -53.5t-56.5 -31.5q-26 -5 -37.5 6t-6 28t24.5 28q31 16 53 43q18 30 25 63q22 79 17 160q-3 84 -27 164q-13 33 -39 57q-2 1 -23.5 16.5t-26.5 26.5q-6 17 7.5 28.5t30.5 7.5q27 -10 48 -31q51 -51 66 -121z" />
    <glyph glyph-name="asterisk" unicode="*" horiz-adv-x="272" 
d="M180 420q2 -1 14.5 -2t19.5 -2.5t18 -4.5t16.5 -8.5t7.5 -12.5q3 -11 -4.5 -19.5t-18.5 -7.5q-11 0 -31 6.5t-30 7.5q4 -11 12 -31.5t11 -28.5q8 -18 -9 -26t-29 4q-21 28 -28 63q0 -1 -4 -6t-6.5 -8.5t-7.5 -10t-9 -10t-9 -8.5t-9.5 -7t-9.5 -3t-10 1t-9 6q-5 6 -5 13
t3 13.5t9 14.5t11 14t11.5 12.5l8.5 8.5q-3 1 -15.5 2.5t-21.5 3.5t-19.5 5.5t-16 10t-5.5 15.5q0 8 3.5 12.5t10.5 6.5t13.5 2.5t16.5 -1.5l15 -3t15 -4l10 -3q0 2 -3.5 9t-5.5 12t-5.5 13t-4.5 14t-1 12.5t2.5 11.5t7.5 8q18 14 27 3t20 -46q2 -6 3 -8q1 -4 4 -4.5t5 2.5
q22 18 45 34q14 10 23 2t5 -24q-14 -32 -41 -54z" />
    <glyph glyph-name="plus" unicode="+" horiz-adv-x="482" 
d="M428 251q9 -13 -0.5 -24.5t-24.5 -14.5q-13 -3 -63.5 -1t-63.5 2v-34v-33q0 -5 1 -19t1 -22.5t-3 -19.5t-8 -17q-24 -22 -42 -5.5t-18 44.5q1 16 3.5 51t2.5 54q-14 -1 -41.5 -0.5t-33.5 0.5q-4 0 -19 -0.5t-24.5 -0.5t-21 3t-16.5 9q-13 20 -1 35.5t33 17.5q24 2 68 -2
t57 -4q-4 53 2 106q6 31 25 34q13 2 23 -5.5t12 -19.5q3 -12 1 -58t-2 -58q36 0 85 1q17 0 25 -0.5t22.5 -4.5t20.5 -14z" />
    <glyph glyph-name="comma" unicode="," horiz-adv-x="112" 
d="M60 78q20 -4 30 -21.5t4 -36.5q-6 -20 -17 -37q-10 -20 -23 -38q-8 -12 -17.5 -18.5t-15.5 -6.5h-6q-13 8 2 90q0 2 1 5q2 13 4 21t7 20t13 18t18 4z" />
    <glyph glyph-name="hyphen" unicode="-" horiz-adv-x="278" 
d="M254 217q9 -8 8 -20q0 -4 -2 -7q-2 -12 -10 -20q-14 -9 -31 -9q-31 2 -88 0q-9 0 -20 2.5t-22 2.5q-12 -1 -26 -3.5t-16 -2.5q-6 0 -12 1q-12 1 -15 13q-8 14 -4 29q7 22 65 19l43 -3q40 1 78 9q29 6 52 -11z" />
    <glyph glyph-name="period" unicode="." horiz-adv-x="116" 
d="M88 91q11 -6 12 -22t-1 -27q-3 -16 -14 -26.5t-27 -12.5q-15 -1 -26.5 8.5t-14.5 24.5q0 3 -0.5 9t-0.5 10t1.5 8.5t5.5 8.5l7 7t9 8q24 15 49 4z" />
    <glyph glyph-name="slash" unicode="/" horiz-adv-x="360" 
d="M302 502q7 -8 8 -19t-3 -23.5t-8.5 -23t-11 -23.5t-9.5 -18q-38 -94 -54 -137q-7 -20 -21 -62t-22 -64q-27 -78 -66 -151q-15 -27 -39 -23t-26 37q-1 12 6 33t13.5 36t18.5 39.5t14 28.5q21 45 52 125q8 21 22.5 70t25.5 75q20 49 45 95q10 14 26.5 15.5t28.5 -10.5z" />
    <glyph glyph-name="zero" unicode="0" horiz-adv-x="377" 
d="M335 351q47 -110 2 -220q-25 -66 -82 -104.5t-122 -12.5q-62 29 -94 90q-15 26 -18 64.5t0 67.5q11 86 59 158q29 49 81 72q54 18 101 -14q55 -37 73 -101zM278 153q32 69 16 144q-11 41 -36 76q-11 16 -30 23.5t-38 3.5q-17 -4 -31.5 -13t-22.5 -16t-18 -25t-13 -24
t-13 -29q-29 -74 -4 -148q10 -37 30 -55.5t58 -18.5q38 1 62 22.5t40 59.5z" />
    <glyph glyph-name="one" unicode="1" horiz-adv-x="134" 
d="M111 454q2 -43 -7 -144.5t-8 -145.5q2 -31 -3 -107q-1 -22 -11.5 -36.5t-31.5 -9.5q-13 3 -20 12.5t-7.5 23t0.5 26t3.5 28t3.5 21.5v15v17.5v14.5v74q-1 17 2.5 63t3.5 51q1 12 4.5 33t3.5 27q-1 25 12 47q12 16 33 15t22 -25z" />
    <glyph glyph-name="two" unicode="2" horiz-adv-x="365" 
d="M174 80q23 3 50.5 3.5t58.5 -7.5t32 -27q0 -9 -2.5 -16t-9.5 -11t-12 -6.5t-16.5 -3.5t-15.5 -1t-17 0.5t-14 0.5q-17 1 -47.5 -2.5t-45.5 -3.5q-6 0 -27 0.5t-26 -0.5q-5 0 -14 -1t-14.5 -1.5t-12.5 1t-13 5.5q-12 8 -16 16.5t1 19t9 17t15 18.5t13 15q10 12 25 36
t20 33q40 55 69 92q24 28 30 65t-8 72q-9 15 -25.5 21.5t-34.5 1.5q-12 -3 -31 -20t-35 -18q-22 -1 -29.5 14t-1.5 33.5t18 29.5q40 27 88 23q43 5 80 -17q41 -37 46 -92q1 -47 -16 -89q-8 -20 -31.5 -48t-30.5 -40q-43 -74 -45 -77q-1 -1 -6 -8t-8 -12t-3 -9
q-1 -5 2.5 -8.5t11.5 -3.5t13.5 0.5t15 2t10.5 2.5z" />
    <glyph glyph-name="three" unicode="3" horiz-adv-x="324" 
d="M250 328q-7 -7 -16.5 -19t-15.5 -18q-18 -18 -32 -40q36 10 76 -30t35 -77q-7 -43 -38 -72q-19 -15 -36 -33q-15 -14 -33 -23q-24 -12 -50 -16q-31 0 -62 -5q-13 -6 -23 -5.5t-20 10.5q-20 21 3 49q8 11 22.5 21t24.5 8q4 -1 8 -6t6 -6q15 -9 31 -5q37 6 60.5 17t38.5 37
q0 2 1.5 7.5t2 7t1.5 6t0.5 6.5t-0.5 6t-1 6.5t-3 6t-5 6.5q-23 19 -53 23q-24 6 -50 7q-1 -1 -12 -2t-15.5 -1t-12 3t-11.5 9q-13 19 0 37t35 31q26 19 47 44q1 2 6 7l8.5 8.5t8.5 9t8 9.5t6 9t2.5 7.5t-2.5 5.5q-9 7 -25 7.5t-30 -3l-32 -8t-26 -5.5q-25 -2 -46.5 14
t-15.5 41q12 43 95 30q8 -1 26 -3.5t27 -3.5q13 -1 25 2q17 2 32 7q13 3 26 4q16 5 28 -6q23 -15 29 -42q4 -15 1 -22.5t-15 -15.5q-8 -6 -19 -20.5t-20 -21.5z" />
    <glyph glyph-name="four" unicode="4" horiz-adv-x="423" 
d="M373 258q0 -21 -66 -32q0 -6 2 -18t2 -18q1 -7 -1 -19.5t-2 -17.5q3 -29 9 -58v-5q1 -18 2 -37.5t-8.5 -34.5t-30.5 -16q-27 -2 -38 21t-8 51q0 8 2 21t3 24t1 21q0 12 -2 38.5t-1 40.5q-52 -3 -125 -14q-4 -1 -14.5 -4t-15.5 -3.5t-15 1.5q-12 7 -15.5 20t2.5 25
q0 5 2 11t4 10t7.5 10t8 8t9.5 8t8 7q8 7 39 39q16 17 45 62.5t51 63.5q10 9 21 15t23 8.5t21 -4.5t13 -23q2 -39 -1 -78q3 -44 1 -88q27 7 47 -1.5t20 -33.5zM243 280q-4 53 0 106q-69 -77 -100 -120q1 0 20 3t44 6.5t36 4.5z" />
    <glyph glyph-name="five" unicode="5" horiz-adv-x="374" 
d="M193 390q-4 0 -15.5 0.5t-17 0t-14 -3t-14.5 -8.5q-15 -13 -32 -44t-13 -47q2 -7 9 -9.5t17.5 -1.5t20 3t20 4.5t13.5 3.5q23 5 44 -2.5t36 -24.5q26 -39 22 -88t-30 -87q-12 -18 -32 -36.5t-46 -34.5t-50 -16t-45 19q-19 15 -10 38q2 4 5 6.5t7.5 3.5t7 1.5t8.5 0.5t8 1
q47 1 83 33q36 39 32 92q-4 33 -46 30q-10 -1 -49.5 -10t-61.5 -5q-15 3 -23.5 9.5t-9.5 17t0.5 19t5.5 23.5q7 33 16 65q4 9 12.5 25t12.5 24q2 6 7 28.5t13 35.5t23 15q31 -2 61 -11q31 -2 61 2q1 0 4 1q71 8 85 -17q5 -12 6 -20.5t-3.5 -14.5t-11 -10t-16.5 -6.5
t-20 -3.5t-22 -1h-22t-20.5 0.5t-15.5 -0.5z" />
    <glyph glyph-name="six" unicode="6" horiz-adv-x="323" 
d="M296 221q9 -8 11.5 -17.5t1 -25.5t-1.5 -25q4 -44 -29 -86t-73 -55q-48 -16 -93 4q-41 19 -72 53q-18 25 -20.5 67t2.5 71q12 91 59 170q4 5 9 16.5t9.5 21.5t12 23t14 21t15.5 15.5t18.5 6.5t21.5 -6q13 -8 15.5 -20t-4.5 -25.5t-15.5 -26t-19.5 -26t-14 -20.5
q-28 -59 -44 -123q-17 -66 -10 -67q16 15 28 34q19 33 53.5 47.5t71.5 5.5q32 -9 54 -33zM244 167q5 14 -5.5 21.5t-24.5 2.5q-18 -9 -30 -26q-11 -18 -26 -34q-2 -2 -9.5 -7.5t-11.5 -11t-5 -10.5q0 -15 13.5 -20.5t28.5 -2.5t24 9q37 31 46 79z" />
    <glyph glyph-name="seven" unicode="7" horiz-adv-x="313" 
d="M284 448q12 -5 14.5 -13t0 -22.5t-1.5 -21.5q-2 -34 -10 -67q-2 -16 -15.5 -39t-16.5 -34q-11 -35 -27 -68q-19 -47 -32 -96q-2 -5 -5.5 -39.5t-15.5 -43.5q-10 -8 -24 -8t-24 8q-9 9 -12 20t-0.5 24.5t6 24t10.5 26.5t9 21q3 10 13 39.5t16 44.5q4 10 13 24t12 29
q8 29 20 55q12 37 12 75q0 5 0.5 7.5t-0.5 5t-1.5 3.5t-3 2t-3 1.5t-5 1.5t-6.5 1q-31 9 -62 2q-29 -12 -60 -9q-20 4 -30 19t1 34q4 7 10.5 11t16 5.5t15 2t17.5 0.5h15q34 1 86 6q19 2 39.5 -14t28.5 -18z" />
    <glyph glyph-name="eight" unicode="8" horiz-adv-x="290" 
d="M207 203q27 -33 41 -73q28 -78 -36 -112q-61 -37 -128 -13q-31 17 -46 49t-7 66q3 15 19.5 38t27 44t4.5 39q-15 30 -39 55q-20 29 -21 66q-4 33 11.5 62t44.5 45q26 16 56.5 12t51.5 -26q6 -6 26.5 -22.5t27.5 -26.5q2 -4 5.5 -13.5t7.5 -14.5l6 -5.5t8 -10.5
q3 -8 3.5 -16.5t-1.5 -15.5t-6.5 -15.5t-9 -14.5t-11.5 -14.5t-11.5 -13l-11.5 -11.5l-5 -5q-17 -18 -18.5 -26t11.5 -27zM181 71q7 23 0.5 45.5t-23.5 38.5q-21 16 -35 9.5t-24 -29.5q-13 -21 -8.5 -44.5t23.5 -38.5q17 -13 37.5 -7t29.5 26zM186 340q3 8 -0.5 14t-12.5 12
t-11 8q-3 3 -13 18.5t-19 19.5q-16 7 -26.5 -10t-8.5 -34q7 -28 18 -55q0 -1 1 -6t2 -7.5t2.5 -6t4 -6t6.5 -3.5q18 -7 34.5 13.5t22.5 42.5z" />
    <glyph glyph-name="nine" unicode="9" horiz-adv-x="277" 
d="M250 409q8 -8 9 -18.5t-0.5 -16t-8.5 -19.5t-8 -17q-14 -45 -16 -92q-2 -14 -3 -44.5t-4 -46.5q-6 -33 -4 -66q2 -11 0.5 -28t-5 -33t-15 -24.5t-28.5 -1.5q-14 6 -18 23t-2 32.5t7 38t5 27.5q4 35 4 71q5 22 5 44q-5 11 -17 -8q-4 -6 -6 -7q-27 -24 -60 -11
q-39 11 -56.5 52.5t-13 88t24.5 77.5q19 25 47.5 38.5t60.5 11.5q15 0 27 -3t23 -12t17 -15t18 -20.5t17 -20.5zM185 367q5 11 7 16.5t0.5 14.5t-10.5 14q-12 4 -18 4t-19.5 -2t-18.5 -3q-54 -3 -57 -68q-6 -29 3 -57q6 -12 19.5 -15.5t25.5 3.5q19 17 33 40q21 24 35 53z
" />
    <glyph glyph-name="colon" unicode=":" horiz-adv-x="129" 
d="M65 254q-16 0 -29 10t-15 26q0 3 -0.5 9.5t-0.5 10.5t1.5 9t5.5 9l8 8l9 9q25 15 52 4q12 -7 13 -24t-1 -29q-3 -16 -15 -28t-28 -14zM62 97q16 1 29 -9t15 -25q1 -4 1.5 -10.5t0.5 -10.5t-1.5 -9t-5.5 -9q-2 -3 -7.5 -8t-9.5 -9q-23 -13 -46 1q-24 17 -18 46q2 17 14 29
t28 14z" />
    <glyph glyph-name="semicolon" unicode=";" horiz-adv-x="140" 
d="M81 111q19 -7 27.5 -26t0.5 -38q-3 -8 -6 -13t-8 -11t-9 -13q-16 -25 -35 -48q-16 -24 -44 -22q-4 5 -4 11.5t4 20t8.5 24.5t10.5 25.5t8 23.5q2 4 4.5 16t5.5 19.5t7.5 16.5t12 12.5t17.5 1.5zM113 330q1 -3 3.5 -9t4 -10t1 -9t-3.5 -10q-2 -3 -5.5 -9t-6.5 -11
q-20 -21 -49 -18q-5 2 -9 5t-7 9.5t-4 9.5t-3 12.5t-2 10.5q-2 16 6 30t24 20q15 6 29.5 -0.5t21.5 -20.5z" />
    <glyph glyph-name="less" unicode="&#x3c;" horiz-adv-x="324" 
d="M263 132q1 -1 7 -5.5l8 -6t7 -6t7.5 -7.5t4.5 -7.5t3 -9.5q2 -17 -13 -25t-32 -5q-11 1 -19 6t-18 15.5t-14 13.5q-6 6 -26 22t-30 25q-35 31 -56 50q-3 2 -11.5 9.5t-13.5 12t-10.5 12t-6.5 13.5q-1 8 3 15t7.5 10t13 9t11.5 8q30 21 56 47q42 45 89 83q8 6 21 11
t27 7.5t24 -4t9 -22.5q-1 -12 -14.5 -25t-33.5 -26.5t-26 -19.5q-15 -15 -45 -41t-35 -30q-1 -2 -4.5 -5t-5 -4t-3.5 -3.5t-2 -4t-0.5 -3.5t0.5 -5t3 -6q14 -18 33 -31q39 -33 85 -67z" />
    <glyph glyph-name="equal" unicode="=" horiz-adv-x="364" 
d="M72 285q-26 -6 -47 11q-9 8 -8 20q0 4 1 7q3 11 10 20q13 9 28 8q29 -1 81 1q8 0 69 -2.5t71 -2.5q27 3 40 3q6 0 11 -1q11 -2 14 -13q7 -14 3 -29q-5 -22 -59 -19l-142 2q-36 2 -72 -5zM336 203q13 -10 10 -26q1 -10 -7 -17q-21 -15 -47 -11q-8 1 -35 2t-38 1
q-122 -4 -141 -5q-54 -2 -60 20q-3 15 4 29q2 6 21 10q5 1 11 1q16 1 33 0q7 -1 70 -0.5t70 0.5q3 0 20 1t37 2t23 1q16 1 29 -8z" />
    <glyph glyph-name="greater" unicode="&#x3e;" horiz-adv-x="372" 
d="M310 276q27 -27 -11 -54q-30 -23 -58 -48q-14 -13 -46 -43t-49 -45q-10 -9 -20.5 -16t-24.5 -13.5t-26.5 -4t-19.5 15.5q-7 9 -4.5 19t8 18t16.5 16t20.5 14t20 12.5t14.5 9.5q56 46 93 83q7 7 8.5 13.5t-3.5 13.5t-9.5 11t-14 11.5t-11.5 9.5q-16 13 -46.5 37t-45.5 37
q-9 7 -13.5 11.5t-8.5 13t-2 17.5q4 13 18 18t28 2q10 -2 18.5 -7.5t19 -16l14.5 -14.5q40 -34 44 -38q59 -52 91 -83z" />
    <glyph glyph-name="question" unicode="?" horiz-adv-x="359" 
d="M302 420q5 -7 6.5 -15t0 -16.5t-4 -16t-8.5 -16.5t-10.5 -15.5t-13 -15.5t-12.5 -13l-12.5 -12.5l-10.5 -10.5q-3 -3 -24.5 -19t-25.5 -25q-4 -26 8 -49q0 -23 -10 -44q-9 -18 -35.5 -14.5t-37.5 19.5q-7 10 -8 26.5t0.5 26t7.5 32t7 25.5q1 11 7.5 21t20.5 21.5t19 15
t21 13.5q46 30 33 48q-5 7 -28 13.5t-49 13.5t-50.5 15.5t-36 21.5t-2.5 29q12 21 31 22t48 -11.5t35 -13.5q10 -3 29.5 -5.5t31 -5.5t26.5 -8t26.5 -14t20.5 -23zM168 69q17 -11 15 -37t-16 -39q-15 -15 -40 -10.5t-28 28.5q-2 28 19.5 50t49.5 8z" />
    <glyph glyph-name="at" unicode="@" horiz-adv-x="624" 
d="M552 40q23 7 38 -11.5t4 -39.5q-48 -60 -125.5 -89.5t-156 -25.5t-153 40.5t-117.5 100.5q-21 33 -21.5 97.5t13 125t32.5 94.5q29 50 79 87.5t106 55t117.5 12t111.5 -36.5q73 -40 113 -114q18 -57 4 -131t-56 -117v-1q-1 0 -23 -24t-41.5 -39.5t-35.5 -17.5
q-25 -4 -40 1t-18 14.5t-4 19.5t2 17q-1 2 -1.5 9.5t-0.5 9.5t-1 8.5t-1.5 8t-2.5 6t-4 5.5t-5 3.5t-7 2.5t-9.5 0.5t-11.5 -1.5q-34 0 -52 -11t-19 -41q0 -28 -22.5 -49.5t-47.5 -2.5q-9 7 -11 16.5t-0.5 15.5t7 18t6.5 15q28 74 44 151q7 14 9 39.5t3.5 45t13.5 35.5
t36 17q4 0 30.5 -0.5t37.5 -7.5q25 -16 21 -46q-1 -24 11.5 -56.5t15.5 -46.5q1 -13 9 -23q3 -2 9 -4t10 -6q5 -4 7 -8.5t0.5 -9.5t-3 -7.5t-5 -8t-4.5 -6.5q-4 -1 -2 -15.5t2 -16.5q0 -1 2 -7q6 -8 20 1q24 19 37 49t24 73q14 37 4.5 76t-40.5 65q-57 52 -133.5 58
t-140.5 -36q-44 -29 -74 -77t-37.5 -101.5t2 -103.5t47.5 -88t98 -50q61 -14 122 -5q3 1 17 2.5t19.5 2.5t18.5 3.5t19.5 5t16.5 6t17 9t13 11.5q19 36 57 49zM341 163q11 3 12.5 5.5t-0.5 8.5q-11 32 -19 64q-3 19 -9 22q-14 -53 -26 -105q21 -1 42 5z" />
    <glyph glyph-name="A" unicode="A" horiz-adv-x="311" 
d="M286 140q1 -3 6 -22.5t7.5 -31t4 -29t-2 -30t-12.5 -19.5q-11 -10 -28.5 -8.5t-22.5 15.5q-4 13 -3 27q0 4 -1.5 22.5t-1.5 29.5q0 27 -8 53q-6 16 -24 19.5t-34 -0.5q-20 -1 -28.5 -2t-22.5 -6.5t-21 -15.5q-12 -15 -16 -48.5t-9 -46.5q-8 -17 -24.5 -24.5t-33.5 4.5
q-7 6 -9.5 13.5t-1 17t4 16.5t7 18t5.5 15q27 72 43 147q13 47 20 96q2 40 10 80q5 20 14.5 31t28.5 11q21 -2 41 -6q18 0 36 -4q12 -4 15.5 -14t2.5 -28t-1 -22q10 -62 30 -122q1 -3 2.5 -11t2.5 -13t4 -10.5t7.5 -9t11 -6t10.5 -6.5q5 -4 5.5 -9t-1 -8.5t-6.5 -10t-6 -8.5
q-4 -6 -4 -13t1.5 -16t1.5 -15zM178 211q15 4 19.5 9.5t1.5 19.5q-3 10 -11 33t-10 36q-1 1 -2 10t-2.5 12.5t-4 9.5t-7.5 8.5t-12 1.5q-19 -74 -35 -144q32 -6 63 4z" />
    <glyph glyph-name="B" unicode="B" horiz-adv-x="292" 
d="M280 154q18 -71 -35 -91q1 -2 -18 -13.5t-47.5 -24.5t-58.5 -23t-56 -10t-36 15q-9 15 -5 32q5 18 4 36q-1 39 0 82q0 9 -2 32.5t-2 37.5t4 34q-1 17 -4.5 54.5t-4 53t2.5 39.5q7 29 13 34.5t38 13.5q53 9 105 -7q13 -4 21.5 -6.5t20 -7t18 -9.5t14 -13t9 -17t4 -22
t-2.5 -28q-11 -28 -30 -52q-3 -4 -18 -11.5t-27.5 -13.5t-13.5 -9q2 8 27 -13t50.5 -50.5t29.5 -42.5zM84 378q-12 -40 4 -78q1 0 11.5 -1t26.5 4.5t31.5 12.5t26.5 22.5t11 34.5q-3 5 -10.5 9t-14 5.5t-19 4.5t-16.5 4q-14 9 -30 3.5t-21 -21.5zM221 119q6 18 -5.5 33.5
t-36 26.5t-42.5 16.5t-39 10.5q-4 1 -6.5 -1.5t-2.5 -6.5l6 -112q-1 -8 5 -13t14 -4q33 6 67.5 20.5t39.5 29.5z" />
    <glyph glyph-name="C" unicode="C" horiz-adv-x="283" 
d="M172 363q-39 -27 -64 -67.5t-32 -86.5q-2 -38 22.5 -72.5t62.5 -55.5q29 -14 62 -8q14 1 21.5 -3.5t9.5 -17.5q5 -32 -14 -44.5t-50 -7t-59 15t-45 20.5q-42 25 -62 64t-18.5 81t16.5 83.5t41 76.5q22 29 48 53q21 26 50 43q34 17 70 16q15 -1 32 -10t19 -21
q5 -22 -6.5 -32.5t-29 -11.5t-40.5 -4.5t-34 -10.5z" />
    <glyph glyph-name="D" unicode="D" horiz-adv-x="301" 
d="M295 280q4 -17 3.5 -25t-6 -25t-6.5 -25q-12 -54 -54 -91q-12 -10 -50 -36t-44 -29q-28 -10 -53 -28q-4 -3 -9 -8t-7 -6.5t-4.5 -3t-6.5 -2.5q-7 0 -12 -0.5t-8.5 3.5t-6 8t-3.5 11t-2 12.5t-1 13.5v14v13v11q1 11 0 55.5t-1 49.5v34q-3 44 -3 53q0 21 4 59t4 53
q1 6 -0.5 23t-0.5 25t8.5 16.5t23.5 10.5q10 0 21 -2t24 -8t21.5 -10.5t22.5 -13t18 -11.5q22 -15 36 -37q5 -7 16 -17t16 -15q33 -33 60 -72zM217 200q9 12 12 26q0 11 -4 22q-4 25 -23 43q-43 53 -98 92q-3 -19 -6 -71.5t-3 -63.5q1 -12 -3.5 -44t-4.5 -45v-15v-12.5
t1.5 -9.5t4.5 -10t8 -9q8 1 18.5 8.5t23 17.5t18.5 13q14 9 30.5 29.5t25.5 28.5z" />
    <glyph glyph-name="E" unicode="E" horiz-adv-x="324" 
d="M273 90q21 -5 32.5 -23t-2.5 -38q-8 -10 -17.5 -13.5t-22.5 -0.5t-19.5 6t-21.5 10q-46 22 -95 30q-49 4 -93 25q-24 10 -26 36q0 12 7.5 20t18.5 9q33 -3 62 -16q10 -3 40 -12.5t46 -14.5q17 -6 49 -11t42 -7zM264 406q23 3 37.5 -5t15.5 -29q0 -5 -3 -9.5t-9.5 -8
t-13 -6.5t-16 -5t-17 -3.5t-18.5 -2.5t-16 -1.5t-13.5 -1.5t-9.5 -1q-57 -3 -112 -14q-4 -1 -14.5 -4t-16.5 -4t-14.5 -1.5t-14.5 3.5t-9 12q-3 12 -4 20.5t6.5 15t15 11.5t21 8t24.5 4.5t25.5 2.5t24 1.5t20 0.5h13.5q20 2 54 9t44 8zM38 198q-11 7 -18 17.5t-5 21.5t16 17
q32 7 64 1q35 -2 71 0q4 1 22 4t30.5 4t28.5 0.5t26.5 -6.5t14.5 -17q7 -21 -6 -29.5t-37 -8.5q-55 -2 -110 -14q-50 -13 -97 10z" />
    <glyph glyph-name="F" unicode="F" horiz-adv-x="320" 
d="M137 391q-16 -1 -23 -11.5t-6.5 -22t2.5 -30t2 -26.5q10 3 35 0.5t36 -0.5q3 0 18 3t22.5 3.5t19.5 0t19.5 -6t12.5 -14.5q13 -24 -3.5 -36.5t-41.5 -12.5q-19 0 -57 -9t-57 -9q3 -14 3 -41t1 -39q2 -10 6 -30.5t5 -30.5q8 -31 -11 -56q-13 -12 -32 -11t-31 15
q-7 7 -9.5 17.5t-2 18.5t2 21.5t2.5 19.5q1 38 -3 75q-2 21 -5.5 61.5t-6 72.5t-2.5 61q-14 1 -22.5 13.5t-4.5 26.5q6 23 45 36q12 6 26 7q17 4 64 2t65 0q7 1 35 8t46.5 5t29.5 -17q40 -54 -170 -64h-10z" />
    <glyph glyph-name="G" unicode="G" 
d="M378 254q16 -30 -2 -58q-2 -2 -7.5 -7t-7.5 -9q-3 -12 -5 -26q-15 -31 -37 -58q-20 -29 -46 -53q-55 -51 -129 -41.5t-115 72.5q-15 23 -20.5 47t-0.5 53t10 47.5t18.5 53.5t17.5 47q13 27 34 48q12 20 29 38q49 39 110 57q27 7 60.5 -11.5t25.5 -47.5q-12 -26 -41 -25
q-8 1 -19 8t-18 7q-27 4 -52.5 -17t-43.5 -48q-32 -55 -52 -115q-11 -26 -8 -58.5t18.5 -56.5t42 -34t61.5 7q56 30 83 87q1 2 3.5 6.5t3.5 6.5t1.5 5t-0.5 5t-4 4q-11 1 -18 0t-23.5 -6.5t-18.5 -6.5q-1 0 -13 -3.5t-15 -4t-13 -1.5t-14.5 0.5t-11 5t-11.5 10.5
q-18 25 6 44t53 20q24 -2 49 2q32 11 66 14q47 1 54 -8z" />
    <glyph glyph-name="H" unicode="H" horiz-adv-x="300" 
d="M264 361q-2 -33 10.5 -101.5t6.5 -105.5q-7 -41 -9 -80q0 -3 0.5 -15t0.5 -20.5t-4 -16t-12 -8.5q-28 -2 -44 22q-6 8 -6 17t3 21.5t3 18.5q3 39 -7 77q-5 16 -29 22t-47 3q-7 -1 -12.5 -3t-9 -5.5l-6.5 -6.5t-4.5 -9.5t-2.5 -10t-1.5 -11.5t-0.5 -11v-11.5v-10.5
q0 -11 5.5 -44.5t2.5 -51.5q-3 -24 -27 -30t-38 13q-20 40 -7 83q9 57 3 114q-7 46 -8 93q1 17 -4 54t-3 57q2 18 17 23t33 -6q9 -4 14 -12.5t7 -20t3 -20t0.5 -23t-0.5 -18.5q1 -16 1.5 -24.5t4 -21.5t12 -20.5t21.5 -10.5q27 -5 54 -4q14 0 16 2t1 15q0 4 -4 40t-4.5 49.5
t1.5 39t8 43.5q5 21 26 26.5t35 -10.5q11 -9 12 -24t-5 -37t-6 -29z" />
    <glyph glyph-name="I" unicode="I" horiz-adv-x="126" 
d="M102 319q5 -71 -5 -141q-2 -21 0 -73t2 -72q-1 -23 -18 -30.5t-34.5 2.5t-19.5 30q-2 25 4 71t6 64q0 20 -2.5 60t-2.5 60q1 38 -8 74q-14 37 -10 77q9 30 40.5 33.5t47.5 -23.5q3 -6 4 -14.5t0 -14.5t-3 -16.5t-3 -14.5q-4 -36 2 -72z" />
    <glyph glyph-name="J" unicode="J" horiz-adv-x="294" 
d="M273 445q15 -26 5 -55q-4 -37 -5 -73q-1 -18 -6 -70t-5 -76q2 -66 -24 -127q-14 -26 -42 -38.5t-57 -4.5v1q-58 9 -97 52t-42 102q-1 22 16 35.5t38 7.5q18 -3 23 -19t2 -33.5t2 -32.5q8 -20 26 -31.5t39 -11.5q21 1 30 11.5t13 33.5q6 53 8 107q7 114 7 133q0 8 -2.5 25
t-3 25.5t3.5 24.5q8 23 31.5 27.5t39.5 -13.5z" />
    <glyph glyph-name="K" unicode="K" horiz-adv-x="306" 
d="M210 315q-29 -38 -68 -67q17 -10 31 -23q5 -5 12.5 -16.5t11.5 -16.5q9 -10 30 -28.5t30 -28.5q10 -12 13 -27q8 -17 17 -33q7 -11 6.5 -30.5t-12.5 -27.5q-29 -13 -53 7q-8 6 -12 13.5t-8 17.5t-7 15q-44 64 -107 110q-1 -24 0 -49q7 -20 7 -42q-7 -47 -33 -51
q-15 -2 -25 3t-14.5 14t-7 21t-2 23.5t-0.5 21.5q1 13 4 92t2 121t2 84q1 1 1 9.5t1 13.5l2.5 12.5t5 12t9.5 5.5q26 -1 38 -20t11 -44.5t-3 -53t-4.5 -44.5t8.5 -19q3 0 10.5 7t16 16t9.5 10q18 15 32 34q22 33 49 62q4 4 13 11t11 9q0 1 7.5 9t12.5 10q22 8 38 -8t4 -32
q-20 -29 -42 -54q-4 -5 -21 -22t-26 -27z" />
    <glyph glyph-name="L" unicode="L" horiz-adv-x="320" 
d="M310 89q12 -9 14 -24t-8 -27q-6 -7 -12.5 -12t-17 -7t-15.5 -2.5t-19 -1t-17 -0.5q-18 -1 -52 -3t-45 -3q-43 -7 -84 5q-29 12 -37 42.5t1 57.5q15 77 15 155q5 55 0 109q-1 3 -3 12.5t-3.5 16t-1.5 14.5t2 14q8 16 28 22.5t38 -1t20 -27.5q1 -30 -7 -59q-6 -50 -5 -101
q4 -34 0 -69q-6 -34 -7 -70q-3 -12 -1 -28.5t13 -24.5q5 -4 11 -5.5t10 -2t12.5 0t11.5 1t12.5 2t10.5 1.5q14 3 39 10t34 9q32 7 63 -4z" />
    <glyph glyph-name="M" unicode="M" horiz-adv-x="404" 
d="M379 143q0 -6 6.5 -38t5 -53t-14.5 -34q-15 -13 -25 -13t-17.5 12t-11.5 24.5t-6 25.5q-2 64 -11 127q-5 18 -5 37q-20 -8 -24 -29q-4 -11 -12 -30t-11 -28q-2 -5 -8 -24t-10 -29t-13.5 -22t-22.5 -16q-15 -4 -25 3.5t-14 18.5t-8 28t-7 24q-12 29 -14 61q0 24 -7 46
q-20 33 -26 -53v-7q-1 -11 -3.5 -52t-6.5 -62q-11 -56 -46 -61q-24 -4 -30 16t-2 45q-5 40 10 78q1 6 12 45t15 60q3 17 5.5 85.5t18.5 99.5q21 45 60 -5q17 -22 24 -44q11 -33 24 -95.5t19 -84.5q38 50 59 108l10.5 31.5t12.5 36t15 30t22 25.5q12 10 27 9t22 -16
q7 -32 2 -64q0 -17 -2 -48t-2 -44q2 -28 9 -56q0 -1 6 -68z" />
    <glyph glyph-name="N" unicode="N" horiz-adv-x="323" 
d="M296 123q-3 -29 2 -58q0 -4 3.5 -16.5t4 -17.5t-3.5 -16q-7 -12 -22.5 -14t-30 2.5t-24.5 12.5q-33 27 -47 68q-6 13 -22.5 43.5t-23.5 47.5q-1 2 -6.5 26.5t-12.5 42t-15 16.5q-14 -3 -15.5 -40.5t1.5 -48.5q1 -3 3.5 -42t2.5 -59q0 -1 -0.5 -9t-0.5 -10.5t-1 -9
t-2.5 -9.5t-4.5 -7.5t-7 -7.5q-51 -39 -58 47q-2 29 0 59q3 28 6 81t5 75q0 1 1 21.5t2.5 31.5t5 28.5t10.5 28t17 14.5q23 10 44 -9t36 -46q13 -22 27 -67t21 -61q1 -2 3.5 -8.5t4.5 -11.5t5.5 -12t7 -12t7.5 -10t8 -6.5t9 -0.5q-13 60 -9 122q2 23 0.5 46t2.5 50t15 42
q9 15 26 17t29 -9q3 -3 4.5 -6.5t1.5 -8.5t-0.5 -7t-1.5 -9t-1 -8q-19 -78 -8 -157q6 -54 1 -108z" />
    <glyph glyph-name="O" unicode="O" 
d="M334 365q44 -81 43 -173q0 -1 -2 -13t-2.5 -14t-2 -12.5t-2.5 -14t-3.5 -12.5t-4.5 -13t-5 -11.5t-6.5 -12.5t-8 -10.5t-9.5 -10.5q-46 -52 -115 -66q-68 -11 -120 34t-76 114q-24 65 -5 131q23 60 59 113q38 47 97 62q25 11 52.5 7.5t49.5 -20.5q38 -33 61 -78zM304 164
q16 62 -4 122q-5 22 -9.5 33.5t-14.5 24.5t-27 22q-21 12 -34 17t-32 4t-36 -13q-41 -39 -57 -94q-12 -60 4.5 -119t67.5 -83q50 -22 99 2q36 34 43 84z" />
    <glyph glyph-name="P" unicode="P" horiz-adv-x="310" 
d="M296 395q41 -45 -26 -91q-44 -38 -91 -71q-39 -14 -75 -34q-10 -20 -10 -42q-1 -8 1 -26.5t3 -36.5t-0.5 -36t-10.5 -30t-25 -14q-8 -1 -14 0.5t-10.5 6t-8 9t-5 13.5t-3 14t-2 15.5t-0.5 14.5v14.5v11.5q0 5 2.5 28t2.5 26q-5 34 -1 68q5 29 4 59v22.5t1 22.5t1 23
q1 25 -2 50q-5 20 4 38q3 11 13 18t22 7q33 0 59 -22q12 -8 28 -11.5t37.5 -5.5t31.5 -4q42 -8 74 -37zM105 271q14 -10 67.5 25t55.5 57q1 9 -3 14t-7.5 6t-14.5 1t-16 1q-13 1 -32 9.5t-32 13.5t-17 1.5t-5.5 -15t-1.5 -31.5t-2 -33q-4 -40 8 -49z" />
    <glyph glyph-name="Q" unicode="Q" horiz-adv-x="357" 
d="M300 50q-5 -7 -19 -14t-20 -15t0 -22q1 -5 4 -12t3.5 -9t1.5 -9.5t-1 -12.5q-3 -20 -20.5 -29.5t-36.5 -1.5q-12 5 -16.5 13.5t-6 22.5t-4.5 22q-6 14 -17 18.5t-29 5.5q-35 0 -64 19q-28 20 -44.5 58.5t-20.5 79.5q-6 76 26 146q1 2 7.5 17t8 19.5t8 18t10 19.5t10.5 17
t13 17t13.5 12.5t16.5 11.5q44 21 88 2t78 -58.5t44 -79.5q11 -43 13 -86.5t-8.5 -90t-37.5 -79.5zM243 96q5 1 10 4.5t8 8t5 12t3.5 13.5t2 15t1 13.5t0.5 12.5v9q1 5 2 15.5t1 15.5q-1 18 -7 36q-6 37 -26 68q-13 17 -28.5 29t-35.5 17.5t-37 -9.5q-36 -29 -50 -85.5
t-7 -109.5q1 -46 36 -76q24 -17 32 -10q1 4 0.5 9.5t-3 15t-2.5 10.5q-10 44 0 89q5 17 17.5 17t23 -10.5t16.5 -22.5q1 -3 6.5 -28t13.5 -42.5t18 -16.5z" />
    <glyph glyph-name="R" unicode="R" horiz-adv-x="318" 
d="M141 193q-3 0 -4 -2t1 -4q11 -9 36 -32q147 -130 122 -151q-1 -1 -2 -1q-10 -4 -19 -4.5t-17 2t-15 6.5t-15 10.5t-14.5 12.5t-16 15t-17.5 15q-38 28 -67 65q-1 1 -3 1.5t-3 -0.5q-9 -10 -8.5 -28t5.5 -35t0 -33.5t-24 -23.5q-10 -4 -17.5 -4.5t-12 2.5t-7 6.5t-4 10.5
t-2 12.5t-1 14t-1.5 13.5q-4 41 -3 83q0 12 -6.5 25t-7.5 24q-7 28 3 56q4 23 1 47q8 37 5 73q-2 7 -6.5 14t-5 10t1.5 15q8 26 44 34t72 6q25 -2 50.5 -7.5t53 -16.5t45 -26.5t27 -38t-1.5 -51.5q-15 -51 -63 -74q-44 -39 -103 -41zM105 234q9 2 20 3.5t19 3.5q46 11 80 45
q15 14 21 32.5t-4 34.5q-10 14 -51.5 26.5t-61.5 9.5q-54 -7 -44 -138q6 -20 21 -17z" />
    <glyph glyph-name="S" unicode="S" horiz-adv-x="322" 
d="M288 202q27 -21 29.5 -48.5t-12.5 -51t-40 -43.5q-35 -23 -76 -33q-5 -2 -19 -7.5t-22.5 -8.5t-23 -5.5t-20.5 2.5q-17 6 -24 24t8 31q21 10 44 10q41 8 54 11q19 5 29 8t23.5 13t18.5 24q3 10 -1.5 19.5t-17 18.5t-19 13t-20.5 11q-35 18 -97 43q-6 3 -27.5 10t-35.5 14
t-24 17q-15 19 -15 44t15 44q13 19 33 31q6 5 17.5 16t19.5 16q5 3 21 14t24 16t22 9.5t26 4.5q9 -1 27.5 0.5t27.5 1.5q30 -6 56 -23q11 -15 6 -24t-16 -12t-25 -1q-25 5 -53 4.5t-50 -14.5q-41 -21 -74 -53q-27 -34 33 -62q21 -8 44 -13q7 -3 19.5 -9t16.5 -8
q53 -21 98 -54z" />
    <glyph glyph-name="T" unicode="T" horiz-adv-x="373" 
d="M379 461q4 -15 -5 -29t-25 -17q-8 -6 -38.5 -3t-39.5 2q-2 -1 -9.5 -1.5t-10 -1t-9 -1.5t-9.5 -2l-7.5 -2.5t-7 -4t-5 -5.5t-4 -7t-1.5 -9q0 -17 -4 -48.5t-5 -42.5q-1 -24 0.5 -59.5t5.5 -77t5 -58.5q2 -30 1 -60q-1 -19 -14.5 -22t-31.5 3q-9 2 -10.5 2.5t-5.5 2.5
t-5 4.5t-3 8.5q-6 18 -10 36q-2 13 2 37.5t4 36.5q-1 15 3.5 68t2.5 70q-10 43 -11 86q1 13 2 24t-7 16t-25 0q-9 -2 -28.5 -14t-34.5 -12q-20 -1 -33.5 9.5t-9.5 28.5q1 8 4.5 13t11 9t11.5 5.5t15 4t13 3.5q48 12 97 13q48 -3 96 6q32 12 66 11q62 -2 69 -23z" />
    <glyph glyph-name="U" unicode="U" horiz-adv-x="318" 
d="M287 479q22 -19 23 -48q-3 -25 -11 -48q-5 -26 -7 -52q-1 -12 -2 -45t-2 -52q0 -40 -13 -78q-7 -21 -11 -42q-6 -18 -19 -32q-4 -6 -10 -18.5t-12.5 -20t-18.5 -14.5q-40 -20 -85 -17q-55 10 -75 118q-7 36 -10 104t-11 107q-2 9 -6 35q0 1 -5 18.5t-3 24.5q6 20 25.5 23
t39 -7t26.5 -25q5 -12 -2 -35.5t-7 -30.5q-1 -44 9 -87q3 -13 5.5 -35t5 -39.5t6.5 -34.5t11 -25.5t16 -7.5q35 4 54 39t11 80q0 2 4 60q0 42 -5 83q-1 19 -1.5 38t7.5 38.5t24 28.5q3 2 4.5 3.5l2 2l1.5 1.5t3.5 1h6.5q17 0 31 -11z" />
    <glyph glyph-name="V" unicode="V" horiz-adv-x="327" 
d="M270 462q17 14 29.5 9t19.5 -14.5t7 -15.5q1 -13 -3.5 -33.5t-11.5 -41t-9 -25.5q-14 -72 -44 -140q-4 -12 -10 -32.5t-11.5 -37.5t-12.5 -34q-10 -43 -32 -80q-26 -36 -41 -10q-14 26 -40.5 85t-36.5 77q-12 30 -18 62q-7 23 -10 47q-2 9 -18 53t-25 80.5t0 46.5
q8 10 19.5 11t20.5 -3.5t17 -11.5q11 -9 14 -20t3 -27t1 -23q7 -40 21.5 -82t36.5 -93.5t32 -79.5q7 23 15 54t15.5 63.5t7.5 34.5q16 77 51 148q0 1 4.5 15t8.5 18z" />
    <glyph glyph-name="W" unicode="W" horiz-adv-x="402" 
d="M325 407q22 12 49 0.5t23 -35.5q-7 -21 -20 -39q-11 -28 -13 -59q-2 -13 -8.5 -58.5t-8.5 -70.5q-1 -14 -1.5 -43.5t-1.5 -44.5q0 -1 -0.5 -8.5t-0.5 -11t-1 -10.5t-2.5 -11.5t-4 -9.5t-6 -8.5t-8.5 -6.5q-7 -3 -13 -4t-11.5 2t-9.5 5t-9 9t-7 10t-6.5 11.5t-5.5 9.5
q-21 37 -51 106t-35 80q-19 -55 -26 -113q0 -3 -0.5 -15t-1 -17.5t-2.5 -15t-5.5 -15t-10 -11t-15.5 -8.5q-16 -7 -27 -4.5t-18 6t-10.5 13.5t-5.5 19t-1.5 22t1 22.5t2 21.5t1.5 17q-1 22 -11 42q-12 31 -14 63q-2 15 -6.5 41.5t-7 48t-3.5 40.5q-5 76 24 100q23 17 47 1
q10 -6 11 -15t-2 -20q-14 -125 13 -248q24 62 31 128q0 12 7 21t18 11.5t21.5 -2.5t15.5 -15q13 -27 22 -56q25 -51 45 -105q10 3 16.5 13t9 25t3.5 27t1 28t1 20q0 10 7 32.5t5 36.5q-3 14 -0.5 27.5t17.5 20.5z" />
    <glyph glyph-name="X" unicode="X" horiz-adv-x="339" 
d="M269 142q16 -15 30 -33q3 -5 11 -15.5t12.5 -18t8.5 -17.5t3.5 -19.5t-5.5 -18.5q-11 -15 -28.5 -13.5t-31.5 14.5q-28 37 -44 80q-9 16 -28.5 44.5t-26.5 41.5q-47 -72 -60 -95q-5 -9 -17 -25t-16 -22q-3 -4 -7.5 -14t-9.5 -16.5t-12 -10.5q-11 -4 -23 -1t-19 13
q-17 22 1 44q10 16 33.5 44.5t33.5 42.5q32 41 56 88q1 3 1.5 5t-0.5 4.5t-2 3.5t-3.5 4t-4.5 5q-8 10 -15 21q-8 12 -22 35q-26 43 -43 76q-9 12 -7.5 26.5t12.5 23.5q8 6 15 7t13.5 -3.5t11.5 -9t11 -14t8 -13.5l6 -12q9 -18 29.5 -48t28.5 -44q28 43 51 89q3 6 9 27.5
t13 35.5t17 23q15 11 33.5 9.5t31.5 -14.5q12 -13 11 -31t-14 -30q-31 -33 -52 -74q-22 -42 -53 -79q-9 -13 -8 -19q4 -12 12 -21q15 -17 28 -36q8 -21 21 -40z" />
    <glyph glyph-name="Y" unicode="Y" horiz-adv-x="293" 
d="M272 472q15 -3 19.5 -17.5t1.5 -29.5q-3 -14 -15 -38t-15.5 -34.5t-9 -36.5t-11.5 -40q-6 -17 -22 -59.5t-25 -65.5q-8 -55 -23 -109q-24 -94 -60 -99q-18 -2 -29.5 14.5t-10.5 34.5q4 36 20 68q27 52 32 111q0 6 3 16t4 14.5t-2 10.5q-28 34 -45 74q-23 44 -51 84
q-5 7 -15 16.5t-15.5 17.5t-7.5 21q-2 16 9.5 30.5t28.5 11.5q12 -3 23 -12t16.5 -16.5t14.5 -23t13 -20.5q14 -19 37 -58t25 -43q17 23 31.5 72.5t26.5 69.5q9 14 23.5 26t28.5 10z" />
    <glyph glyph-name="Z" unicode="Z" horiz-adv-x="333" 
d="M326 48q8 -10 5 -23t-15 -19q-3 -5 -26 -4t-27 0q-22 -3 -59.5 3t-52.5 6q-37 1 -57 0q-31 -5 -62 -7q-22 2 -30.5 22t0.5 40q10 18 27 31q7 7 20 23.5t20 23.5q38 44 62 97q25 47 58 89q1 3 6 8.5t7.5 9.5t6 9.5t4.5 10t1 9t-3.5 8.5t-10.5 7q-12 6 -44 6.5t-58.5 0.5
t-46 13.5t-15.5 42.5q2 13 12.5 18.5t21.5 4.5t27.5 -3.5t22.5 -2.5q42 -2 83 -13q10 -2 28 -4.5t28.5 -4.5t24.5 -8t25 -17q9 -5 12 -15.5t-3 -20.5q-7 -24 -26 -40q-80 -127 -91 -143q-8 -12 -23 -38.5t-25 -38.5q-1 -2 -7.5 -10t-9.5 -13t-5.5 -11.5t1 -10.5t12.5 -5
q12 -2 43.5 0.5t42.5 -2.5q23 -7 46 -10q1 0 6 -0.5t6.5 -0.5t6 -0.5t6.5 -1l6 -1.5t6 -2.5t4.5 -3t5 -4t3.5 -5.5z" />
    <glyph glyph-name="bracketleft" unicode="[" horiz-adv-x="263" 
d="M121 -75q5 0 25.5 2.5t34.5 0.5t22 -12q15 -17 5 -37t-33 -19q-4 0 -83 1q-4 0 -15.5 -0.5t-17 0t-14.5 2t-13 5t-7.5 10.5t-3.5 17h5h-5q0 11 2.5 32t2.5 31q1 9 0 26t-1 25q0 10 0.5 22t1 27t0.5 23q1 29 1.5 85t0.5 62q0 14 1 42t1.5 41.5t-0.5 41.5q-1 9 -3 26.5
t-3.5 30.5t-0.5 29t5 27q3 8 9 13t15 6.5t16 1.5t18.5 -0.5t15.5 -0.5q43 5 87 1q14 -4 20 -17.5t0 -26.5q-9 -23 -34 -21q-4 -1 -28 1.5t-42.5 1.5t-19.5 -8q-3 -57 -3.5 -162t-1.5 -136q0 -18 1 -57t0 -59q0 -7 -1 -20.5t-1 -20.5t1 -20q0 -5 1 -8t3.5 -5t5 -3t6.5 -1.5
t7 -0.5t8.5 0.5t8.5 0.5z" />
    <glyph glyph-name="backslash" unicode="\" horiz-adv-x="358" 
d="M276 74q2 -6 9 -18.5t11.5 -23t8.5 -23.5t3 -24t-8 -19q-12 -11 -29 -9.5t-27 14.5q-24 47 -44 96q-11 26 -31 87.5t-28 81.5q-30 79 -51 125q-3 6 -12 24.5t-14 29.5t-10 27.5t-4 28.5q0 14 8.5 24.5t22 13.5t26 -2.5t18.5 -17.5q13 -22 27 -71.5t17 -56.5
q8 -22 22 -64.5t21 -61.5q15 -43 64 -161z" />
    <glyph glyph-name="bracketright" unicode="]" horiz-adv-x="276" 
d="M237 45q0 -20 4 -88q6 -37 -2 -74q-4 -12 -18.5 -17.5t-28 -6t-34 0.5t-26.5 1q-3 0 -17.5 -1t-23 -1.5t-19 2.5t-15.5 9q-12 16 -4.5 34t26.5 21q37 2 73 -1q25 2 29 7q2 3 2.5 12t-1 21.5t-1.5 14.5q0 3 3 191q0 27 -0.5 78.5t0.5 75.5q0 14 0.5 39.5t0.5 33.5q1 2 1 7
v7t-1.5 5t-4.5 5q-18 5 -36 2q-4 0 -25.5 -2.5t-35.5 -0.5t-23 12q-14 19 -2 40q5 11 12.5 13.5t22.5 1.5q4 -1 39 -0.5t39.5 0.5t16.5 0.5t19.5 0t17.5 -2t16 -7t9 -14.5q3 -18 2.5 -28t-5 -31t-5.5 -28q-2 -18 -2 -51q-1 -123 -1 -128q-1 -76 -2 -153z" />
    <glyph glyph-name="asciicircum" unicode="^" horiz-adv-x="318" 
d="M297 309q11 -15 1.5 -31.5t-27.5 -15.5q-6 0 -11.5 2t-9.5 6.5t-7 8t-6.5 10.5l-5 10t-4.5 11t-3 9q-15 39 -55 120q-3 -4 -48 -78q-2 -3 -18 -37t-31 -45q-14 -13 -33 -7.5t-24 24.5q-1 9 4 20t15.5 26.5t12.5 17.5q12 22 43 70t46 74q6 11 14.5 19t20.5 10.5t24 -8.5
q21 -28 29 -62q31 -69 73 -154z" />
    <glyph glyph-name="underscore" unicode="_" horiz-adv-x="425" 
d="M398 -105q4 -17 -5 -31q-4 -13 -18 -14h-14q-2 0 -18.5 2.5t-30.5 3.5q-13 0 -68 -3t-65 -2q-68 2 -104 0q-19 -1 -36 9q-9 9 -12 21q-2 3 -2 7q-1 14 10 22q28 18 60 11q46 -9 92 -9q109 2 134 3q69 3 77 -20z" />
    <glyph glyph-name="grave" unicode="`" horiz-adv-x="123" 
d="M75 508q3 -4 7.5 -10.5t7.5 -10t6.5 -9.5t5.5 -9.5t4.5 -8t2.5 -8v-7.5t-2.5 -7t-5.5 -6l-2.5 -2.5t-9 -4t-20.5 1.5q-19 3 -34 14q-18 11 -30 28q-14 18 -14 30.5t19 34.5q27 28 65 -26z" />
    <glyph glyph-name="a" unicode="a" horiz-adv-x="303" 
d="M277 182q1 -5 11.5 -31t8.5 -44q-4 -27 -25 -42.5t-40 8.5q-23 43 -24 92q0 2 -0.5 18.5t-3 27t-9.5 15.5q-7 6 -23.5 6.5t-38 -2t-26.5 -2.5q2 -41 -4 -81q-4 -30 -7 -49q-16 -89 -58 -86q-15 1 -23 9.5t-8.5 24t0.5 27.5t5 30.5t5 22.5q3 21 12.5 60t12.5 55
q8 38 11 77q-1 27 3 54q10 26 17 53q1 1 2 9t1.5 10l2 8t3.5 8.5t5.5 6.5t7.5 6q36 22 78 -31q40 -54 66 -115q5 -4 16.5 -8t17.5 -9t7 -16q2 -26 -21 -40q12 -35 18 -72zM165 293q22 11 8.5 40.5t-36.5 51.5q-28 -35 -21 -79q8 -22 49 -13z" />
    <glyph glyph-name="b" unicode="b" horiz-adv-x="295" 
d="M197 293q-3 -2 -13.5 -8.5t-19 -12.5t-11.5 -12q-2 -7 -2.5 -10t4 -5t8.5 -2t10 -0.5t10 -0.5q39 -6 65 -37q23 -28 17.5 -63.5t-35.5 -55.5q-26 -19 -56 -29q-13 -5 -35.5 -18t-32.5 -17q-21 -14 -47 -10q-8 3 -13.5 10t-8 19t-3.5 17.5t-2 18.5q-1 12 0 34.5t1 32.5
q-2 26 -7 52q-7 25 -5 50q1 42 -4 83q-1 17 1.5 49t2.5 37t-0.5 16t-0.5 17.5t4 14t12 11.5q38 12 76 4q44 -6 86 -22q40 -15 76 -39q9 -5 13 -11t5 -10.5t-2.5 -12t-5.5 -10.5t-8.5 -12.5t-8.5 -11.5q-14 -10 -38.5 -30t-31.5 -26zM198 158q-25 25 -60 23q-20 -1 -29 -15.5
t-8 -36.5q2 -29 43 -22q37 6 52 29q7 11 2 22zM135 315q4 3 19 13.5t22 16.5q1 1 8.5 6.5t13 10t5.5 7.5t-1.5 5.5t-5 5t-6 3.5t-7 2.5t-5.5 1.5q-10 4 -27.5 8.5t-38 7t-25.5 -4.5q-4 -7 -3.5 -12.5t2 -15.5t1.5 -13q-1 -34 3 -68q9 0 16 3t17 12t12 11z" />
    <glyph glyph-name="c" unicode="c" horiz-adv-x="312" 
d="M136 306q-22 -23 -38 -50q-13 -29 -11 -61q3 -38 32 -61q12 -14 28 -24q17 -5 35 -9q4 -2 14.5 -7.5t16.5 -6.5q12 -2 16.5 -1.5t14 3t15.5 2.5q17 3 30 -7t15 -27q1 -7 -1 -19t-6 -15q-21 -10 -44 -7q-39 -3 -78 5q-40 12 -78 32q-31 21 -58 47q-27 29 -32 69
q-3 16 -2 33q1 14 7 28q1 5 1.5 16t2.5 16q9 22 23 40q29 40 61 76q28 38 72 56q44 20 90 4q1 0 7 -2.5t7.5 -3t7 -3t7 -3.5t5.5 -4t5.5 -5.5t4 -6t3 -7t0.5 -8t-1 -10.5q-3 -16 -26 -18t-53.5 -3t-45.5 -14q-26 -20 -47 -44z" />
    <glyph glyph-name="d" unicode="d" horiz-adv-x="382" 
d="M301 373q3 -4 24.5 -27.5t29 -34.5t17 -32t8.5 -40q-4 -21 -14 -39q-2 -5 -3 -18.5t-3 -19.5q-31 -44 -77 -71q-36 -18 -76 -25q-16 -4 -27.5 -11t-26 -18.5t-23.5 -17.5q-11 -8 -21 -8.5t-16.5 6.5t-11.5 14.5t-8.5 21.5t-5 21.5t-3.5 21.5q-1 3 -1 5q-3 42 -12 84
q-8 38 -6 77q4 47 -3 94q-3 13 -19 29.5t-19 26.5q-2 6 -2 12t1.5 10t5 7.5t6.5 6t9 5.5t9.5 4l10.5 3q3 1 4 2q26 15 55 7q6 -2 18 -8t17 -8q11 -4 46 -11.5t53 -18.5q36 -20 64 -50zM253 145q25 17 40.5 42t17.5 52.5t-22 50.5q-31 32 -68 56q-82 50 -103 35
q-11 -7 -11 -27t4.5 -45t4.5 -32q-7 -61 5 -121q-1 -21 6 -40.5t23 -19.5q35 0 103 49z" />
    <glyph glyph-name="e" unicode="e" horiz-adv-x="374" 
d="M256 65q3 -1 9.5 -3.5t10 -4t9.5 -4t9.5 -4.5t8 -5t7 -6t4.5 -6.5t1.5 -7.5t-2.5 -8q-6 -14 -13 -21.5t-19 -11t-27 4.5q-8 4 -19.5 12.5t-17.5 11.5q-27 12 -55 20l-54 19q-8 3 -21 9.5t-20 9.5q-3 1 -12.5 4.5t-13.5 5t-12 5.5t-11.5 7.5t-7.5 10t-6 13.5
q-3 12 -1 20.5t12 13.5q21 9 42 -1q53 -17 104 -40q86 -40 95 -44zM373 411q7 -20 -13 -29t-49 -6q-12 3 -49 2t-50 -1q-51 1 -101 -5q-3 -1 -16.5 -2.5t-20 -1.5t-16.5 1t-15.5 6.5t-7.5 15.5q-3 16 8 27.5t32.5 16t40 6t43.5 1.5t29 1h6q32 2 52 2.5t51.5 -1t50.5 -10
t25 -23.5zM98 232q-10 -1 -15 8q-1 2 -4 6t-5.5 7.5t-2.5 6.5q-4 19 9 33.5t32 12.5q35 0 68 -10q12 -3 39.5 -6t42.5 -8q3 -1 14.5 -4t17.5 -5t12.5 -8t7.5 -13q3 -19 -8 -30t-29.5 -12.5t-34 -0.5t-29.5 4q-38 8 -77 12q-19 2 -38 7z" />
    <glyph glyph-name="f" unicode="f" horiz-adv-x="340" 
d="M308 467q9 -3 22.5 -17.5t12.5 -23.5q0 -10 -12.5 -19.5t-24.5 -13.5q-31 -4 -61 6q-31 2 -62 -2q-28 2 -48 -18q-12 -8 -17 -23.5t-5.5 -24.5t3 -33t3.5 -27q32 10 65 18q33 2 66 2q4 0 11.5 2t12 3t10 -2t8.5 -10q2 -20 -5 -39q-2 -4 -6 -7t-7 -4.5t-9 -3t-8.5 -2
t-9.5 -1t-8 -0.5q-11 0 -22 -3q-12 -6 -25 -7q-3 -1 -16 -0.5t-20.5 -0.5t-17 -5t-13.5 -12q-2 -31 7 -61q2 -11 10 -31t10 -30q5 -31 -6 -61q-28 -10 -55 2q-6 5 -9.5 12t-4.5 12t-2 15.5t-1 13.5q-3 23 -9.5 66.5t-11 80t-6.5 66.5q-1 30 4 60l1 12q5 13 -11 15
q-13 4 -25 11q-20 19 -13 40t29 33q10 2 14.5 2t14.5 -3t14 -3q27 -3 55 0q11 1 55 9t68 9q28 5 55 -2z" />
    <glyph glyph-name="g" unicode="g" horiz-adv-x="362" 
d="M322 250q11 -2 23 -11.5t14 -18.5q1 -8 -7 -24.5t-9 -21.5q-2 -14 -8 -28q-14 -37 -34 -72q-31 -43 -82 -58q-56 -21 -109 5q-29 11 -53 31q-21 23 -30 52q-8 15 -12.5 47.5t-5.5 58.5l-1 25q10 48 33 91q23 48 26 53q19 26 46 41q24 23 56 32q35 10 71 3l25.5 -8.5
t27 -11.5t23.5 -19t2 -23q-7 -18 -25.5 -19t-43 5.5t-33.5 5.5q-57 -13 -94 -58q-31 -40 -40 -89t6 -97q12 -29 37.5 -47t56.5 -19q43 11 73 45q17 17 14 31t-28 8q-40 -14 -81 -17q-23 2 -25 24.5t15 34.5q23 17 51 15q32 2 62 15q3 1 17 8t24 9.5t18 1.5z" />
    <glyph glyph-name="h" unicode="h" horiz-adv-x="328" 
d="M305 228q4 -72 1 -144q0 -5 0.5 -20t0 -22t-2.5 -18t-8.5 -18.5t-16.5 -11.5q-21 -12 -42 -1t-23 35q-4 20 3 59t6 56q3 26 -1 52q-2 7 -7.5 9.5t-11 2t-12.5 -0.5q-6 1 -19.5 3.5t-22 3.5t-19.5 -1t-19 -9q-9 -8 -11.5 -24.5t-1.5 -28t5.5 -33.5t5.5 -26q1 -16 3 -33
t-7 -31t-30 -16q-22 -2 -33 13.5t-10 35.5t0 37q1 27 -2.5 77t-3.5 71q0 19 -6 148q0 2 -1 13t-1 16.5t0.5 15.5t2 16t5 13t9.5 10.5t14 3.5q10 1 17 -1t12 -8t8 -9.5t4.5 -14.5t2 -14t1 -16t0.5 -14q2 -58 2 -67q-2 -49 15 -60q6 -3 12.5 -3.5t15 1t12.5 1.5q8 0 25.5 -4
t26.5 -4q16 0 20 8t2 24q-2 11 -2.5 33t-2.5 33q-1 8 -4.5 29t-5.5 34.5t-1 31t8 29.5q7 14 24 14.5t31.5 -10t16.5 -23.5q1 -9 0 -26.5t0 -26.5q1 -7 4 -22t3 -23q3 -24 4.5 -73t4.5 -72z" />
    <glyph glyph-name="i" unicode="i" horiz-adv-x="141" 
d="M112 141q2 -9 6 -26.5t6 -27.5t3 -28t-3 -27q-9 -29 -39.5 -30t-45.5 24q-8 12 -8.5 28.5t2.5 39.5t3 30q1 22 -2.5 61t-3.5 53q-1 21 -6 64.5t-6 66.5q-3 47 1 94q2 13 19.5 21t31.5 6q7 -1 13 -4t9 -8.5t5 -10t2.5 -13t1 -13t0 -14.5t-0.5 -12q-1 -13 1.5 -37.5
t2.5 -30.5q1 -11 1 -37t1 -37q0 -33 5 -66q2 -11 1 -32.5t0 -33.5z" />
    <glyph glyph-name="j" unicode="j" horiz-adv-x="308" 
d="M291 468q5 -8 5.5 -17.5t-0.5 -14.5t-6 -19t-6 -16q-24 -81 -18 -165q1 -39 8 -77q10 -43 1 -86q-8 -35 -41 -52.5t-74 -19.5q-47 0 -88 22q0 1 -8.5 5t-10.5 5t-10 5.5t-11 7t-9.5 6.5t-9.5 7.5t-7 8t-6 9.5q-13 30 10 55.5t55 21.5q13 -1 20 -10t11.5 -24t7.5 -21
q19 -26 50 -22q19 -1 28.5 4.5t13.5 22.5q3 21 1 43q2 20 1 40q-9 82 0 165q3 30 5 85q0 18 10 32t26 19q15 4 29.5 -1.5t22.5 -18.5z" />
    <glyph glyph-name="k" unicode="k" horiz-adv-x="317" 
d="M208 188q43 -50 77 -105q19 -20 21 -48q-5 -29 -33 -37q-8 -2 -14.5 -2.5t-12.5 1.5t-10.5 4t-9 7.5t-7.5 9t-7.5 11.5t-6 11l-6 12l-5.5 11q-16 30 -39 56q-20 32 -56 44q-7 -26 3 -50q6 -28 2 -57q-1 -26 -23.5 -38.5t-45.5 0.5q-10 10 -11 45v22v26v22t0.5 55t0.5 73
q0 10 -0.5 62.5t-0.5 63.5v19t0.5 26.5t2.5 24t8 23.5t15 14q20 7 38 -5q10 -9 13 -55q2 -23 -0.5 -67t-2.5 -58q6 7 19.5 18.5t18.5 16.5q36 41 38 44q35 49 78 92q1 2 4 5t4.5 4t4 3t5 2.5t5.5 0.5q11 -1 20 -5q15 -3 19 -18q6 -18 -13 -40q-42 -49 -47 -57
q-37 -52 -80 -98q-1 0 -4.5 -3.5l-4.5 -4.5t-3.5 -4t-3 -4.5l-1.5 -4.5t-0.5 -5t1.5 -5t3 -6q8 -11 26 -29.5t21 -22.5z" />
    <glyph glyph-name="l" unicode="l" horiz-adv-x="319" 
d="M276 120q16 7 30.5 1t16 -25.5t-9.5 -29.5t-24.5 -12t-35 -3t-30.5 -4q-57 -6 -112 -23q-2 -1 -8.5 -4t-9 -4t-8 -3t-9 -2h-8.5t-9.5 2t-9.5 5q-25 21 -22 55q-1 13 -0.5 78.5t-2.5 78.5q-3 48 -2 97q0 16 -2 45.5t-2 42.5q-1 20 10.5 36t31.5 21q12 3 22.5 -4t11.5 -20
q1 -40 -3 -80q0 -17 1 -48t1 -38q1 -12 2.5 -33.5t1.5 -32.5q2 -18 8 -35q1 -6 0.5 -18.5t0.5 -19.5q3 -16 10.5 -23.5t23.5 -8.5q35 -1 65 0q36 -1 71 9z" />
    <glyph glyph-name="m" unicode="m" horiz-adv-x="441" 
d="M420 140q11 -38 13 -77q2 -16 -7.5 -29t-25.5 -16q-36 -5 -41 33q-2 13 -7 38q-6 28 -7 43q-1 9 0 19q0 11 -1 21q-1 9 -4 16.5t-4 15.5v6q0 17 -12 19q-11 2 -18 -16q-4 -11 -6 -22q-2 -10 -5 -20q-4 -10 -9 -20q-6 -10 -10 -22l-1 -3q-8 -35 -36 -59q-16 -10 -34 -5
t-26 21q-22 50 -32 103q-8 38 -19 74l-3 6l-4 -6q-24 -45 -24 -97l-4 -36q-1 -8 -5 -21q-4 -14 -5 -27q-2 -11 -2 -25t-1 -29q-1 -24 -22 -36q-27 -8 -47 11q-9 12 0 55q3 14 4 19q6 64 18 126q4 17 9 52q6 37 15 73q7 33 8 66t9 65q9 29 37 40q4 1 8 1q10 0 17 -7
q16 -23 19 -50q2 -9 3 -15q7 -28 16 -80q5 -38 18 -75q5 -13 8 -26q5 -23 16 -44l2 -3l3 2q18 18 22 43q2 7 3 9q3 9 17 43q11 27 16 41q6 22 8 44q2 19 4 29.5t7 25.5t13 23.5t20 10.5q16 5 29 -5q23 -17 31 -98v-9q2 -18 3 -51q1 -28 2 -42q0 -8 5 -14q2 -3 3 -6
q3 -13 3 -26v-10q4 -34 13 -67z" />
    <glyph glyph-name="n" unicode="n" horiz-adv-x="331" 
d="M309 62q3 -13 3 -26q-1 -29 -27 -40q-22 -10 -40 7q-11 12 -17 27q-3 8 -5 11q-4 8 -14 23q-9 14 -16 30q-7 13 -23 42q-19 29 -32 61q-4 11 -10 34q-6 28 -18 54q-9 16 -15 16h-2q-12 -3 -11 -46q1 -13 3 -43q1 -22 2 -36q0 -11 2 -35q4 -40 2 -79q-1 -29 -24 -45
q-15 -8 -28 1q-10 6 -14.5 18t-4 25t0.5 27q1 13 1 26q-2 34 0 67l1 15q1 32 -2 64q-5 43 1 87q1 6 3 22q1 17 2.5 27t5.5 25t11.5 23.5t17.5 10.5q22 5 41 -12t29 -38q15 -33 34 -84q5 -15 18 -45l8 -18q2 -4 5 -11q7 -28 28 -48q5 -5 9 -3q8 4 4 33q0 6 -2 19q-2 21 -3 25
q-2 36 -1 72v15v17q-3 47 9 91q11 27 41 30h1q17 0 23 -16q-10 -56 -6 -113v-9v-79v-40q0 -21 3 -61q3 -37 3 -51q1 -23 0 -38q0 -15 3 -29z" />
    <glyph glyph-name="o" unicode="o" 
d="M371 315q8 -81 -10 -160q-21 -75 -88 -114q-58 -34 -124 -26q-52 8 -106 81q-28 38 -33 85q-9 78 20 151q21 60 70 100.5t111 50.5q23 2 43.5 -6t33 -18t32.5 -30q45 -48 51 -114zM310 284q1 29 -44 80q-7 7 -10.5 11t-10 10.5t-11 9.5t-11.5 7t-13 5t-14 1t-16 -3
q-84 -25 -98 -176q-4 -26 0 -53.5t22 -47.5q53 -57 104 -45q18 4 32.5 13t24.5 24t16.5 28t11.5 34.5t7.5 33.5t5.5 36z" />
    <glyph glyph-name="p" unicode="p" horiz-adv-x="310" 
d="M306 386q15 -36 -28 -92q-34 -37 -82 -54q-28 -18 -59 -28q-14 -4 -18.5 -8t-4.5 -17q4 -61 28 -117q1 -9 -2 -17q-16 -36 -39 -39q-31 -3 -46 25q-4 11 -3.5 17t2.5 17t2 18q-1 40 -12 78q-2 8 -4 17q-12 13 -14 29t2 40t5 32q0 10 -4 30.5t-3 30.5q0 5 3 14t3.5 13.5
t-2.5 13.5q-1 3 -10 14.5t-11 20.5q-6 24 12 42q9 9 23 13t24 4.5t28.5 -0.5t24.5 -1q56 0 111 -25t74 -71zM219 339q3 6 3 12.5t-2 11t-7.5 10.5t-9.5 9.5t-12 8.5t-11 6.5t-10 5.5q-49 27 -61 -6q-5 -32 -4 -65q-3 -27 4 -53l21 7t27 10t24 11t24 15t14 17z" />
    <glyph glyph-name="q" unicode="q" horiz-adv-x="363" 
d="M354 268q1 -20 -1 -40q-1 -7 -1.5 -23.5t-1.5 -25.5q-8 -42 -33 -77q-9 -13 -31 -34t-31 -33q-4 -5 -6 -10t-2 -10.5t0.5 -8t3 -10.5t3.5 -11t4 -11.5t4.5 -14.5t3 -13.5t0.5 -14t-3 -11.5q-13 -13 -30.5 -14.5t-33.5 7.5q-5 5 -8 13t-6 19.5t-5 15.5q-3 9 -5.5 20.5
t-7.5 22.5q-3 9 -10 13t-15 4.5t-17 0.5t-17 1q-68 9 -95 105q-18 88 18 169q35 81 92 148q54 67 124 12q59 -48 88 -118q17 -34 19 -71zM261 149q16 72 -3 143q-25 81 -69 99q-8 -1 -15 -5.5t-10.5 -8t-10 -13.5t-8.5 -11q-22 -30 -38 -62q-15 -35 -25 -72q-11 -33 0 -67
q14 -49 35 -57q10 -3 15.5 1.5t5.5 14.5q1 9 -5 37t-4 48t19 31q16 9 28.5 4.5t21 -20.5t13 -31t6.5 -28v-8.5t0.5 -11.5t2 -10.5t5 -9.5t8.5 -5q18 -3 28 42z" />
    <glyph glyph-name="r" unicode="r" horiz-adv-x="371" 
d="M300 112q6 -4 16.5 -9t17 -8.5t13.5 -8.5t10 -11t3 -15t-5 -21q-15 -37 -47 -34q-13 1 -21.5 5.5t-20 17t-14.5 15.5q-6 5 -31.5 28t-37.5 33t-34 24t-42 21q16 -38 6 -78q0 -2 -1 -11.5t-2.5 -15.5t-4 -13.5t-7.5 -12t-11 -5.5q-26 -3 -40 18q-13 31 -11 64q-1 51 4 102
q-2 40 -8 80q-1 14 0 26t-1.5 25.5t-9.5 23.5q-5 5 -7.5 10t-3.5 10.5t-1.5 8.5t1.5 10t2.5 9.5t3.5 11t4 11.5q3 5 6.5 13.5t7.5 12t13 6.5q37 13 75 20t77 4q11 -2 28.5 -10.5t26.5 -10.5q20 -5 34 -9.5t33 -13.5t30 -22.5t13 -31.5q3 -34 -18.5 -54.5t-59.5 -36.5
q-23 -9 -67 -21.5t-63 -19.5t-22.5 -16.5t6 -19t20.5 -16.5t24 -13q60 -32 116 -72zM112 309q15 -2 20.5 -1.5t18.5 6.5t19 8q13 3 37.5 6.5t32.5 5.5q68 14 30 49q-6 5 -12 9t-11 6.5t-13 4.5t-12 3.5t-13 2t-12.5 1t-14 0t-13 -1t-14 -1.5t-13.5 -1q-11 -1 -16.5 -2
t-11.5 -5.5t-9 -13.5q-5 -39 7 -76z" />
    <glyph glyph-name="s" unicode="s" horiz-adv-x="290" 
d="M273 473q10 -9 11.5 -15.5t-1.5 -15.5q-5 -14 -19 -19q-17 -6 -27.5 -4.5t-28.5 6.5t-28 5q-29 1 -75 -44q-9 -9 -10.5 -13t3.5 -15q13 -22 32 -37q7 -6 45 -36t58 -51.5t33 -47.5q16 -41 -6 -80q-7 -12 -18 -20t-26 -16t-23 -14q-43 -26 -92 -41q-21 -10 -43 -17
q-29 -11 -51 10q-8 10 -1 29.5t22 28.5q46 24 97 33q34 9 45.5 29.5t3 43.5t-29.5 48q-14 15 -46 36.5t-56 43.5t-29 48q-2 8 -2.5 15.5t2 14t4.5 11t7 11.5t8.5 10.5t10.5 11.5q3 3 9.5 11.5t10.5 12.5q19 17 42 27q27 12 55.5 18.5t60.5 3t52 -21.5z" />
    <glyph glyph-name="t" unicode="t" horiz-adv-x="336" 
d="M299 497q14 -1 28 -9t15 -20q0 -22 -13.5 -38t-34.5 -20q-24 -6 -49 -4q-1 1 -10 2.5t-16 1.5t-9.5 -3t-3 -9.5t0 -14t0.5 -10.5q0 -8 -7 -55q-6 -54 0 -108q1 -43 8 -86q4 -37 2 -74v-9v-9.5t-0.5 -7.5t-1.5 -7.5t-3.5 -6t-6 -5.5t-8.5 -4q-27 -11 -50 6q-6 5 -9 11.5
t-4.5 15.5t-2 15t-0.5 17.5v14.5q-1 18 0.5 47.5t1.5 35.5q0 10 -0.5 47.5t0.5 47.5t3.5 28t3.5 33t1 28q4 28 -5 55q-10 10 -24 11q-11 2 -31 2t-29 2q-37 4 -52 37q-5 19 10 30.5t34 10.5q14 0 42 -4.5t42 -5.5q12 0 44.5 1.5t45.5 -0.5q24 -3 48 1q20 6 40 9z" />
    <glyph glyph-name="u" unicode="u" horiz-adv-x="334" 
d="M317 472q16 -29 3 -59q-6 -20 -6 -58t-4 -56q-2 -8 -3.5 -24t-4.5 -25q-7 -22 -6 -46q1 -23 -15 -62.5t-18 -55.5q-2 -10 -5 -17t-8.5 -16.5t-9.5 -16.5q-14 -29 -45.5 -36.5t-62.5 5.5q-27 6 -47.5 25.5t-27.5 46.5q-7 22 -14 65t-12 62q-27 120 -13 244q2 27 12.5 41.5
t36.5 12.5q58 -5 44 -66q-2 -7 -10.5 -33t-11.5 -45t0 -34q4 -11 7 -22q1 -7 -0.5 -13.5t-1.5 -10.5q3 -28 15 -53q3 -8 2 -22.5t0 -23.5q2 -10 4.5 -30.5t4.5 -28.5q4 -24 26 -33.5t43 3.5q13 6 21 24.5t10 34t4 41.5t2 29q3 21 6 65t6 66q4 27 2 54q-1 6 -6 20.5t-6 21.5
t3 18q15 21 41 23.5t45 -15.5z" />
    <glyph glyph-name="v" unicode="v" horiz-adv-x="337" 
d="M268 481q6 12 19 18t26 1.5t20.5 -16.5t4.5 -26q-26 -119 -82 -227q-8 -18 -15.5 -38t-16.5 -46t-13 -38q-3 -9 -11.5 -29.5t-13.5 -35.5v-1q-7 -21 -10 -26q-9 -18 -28 -20q-25 0 -28 12q-4 12 -10 22q-3 8 -5 18q-3 12 -13 48.5t-13 60.5q-4 19 -8.5 39.5t-12 47.5
t-10.5 39q-9 68 -39 129q-18 28 -2 58q12 17 32.5 19t34.5 -13q21 -35 20 -75q2 -39 16 -74q21 -63 32 -128q0 -5 9 -44q7 21 28 70q30 72 53 139q10 29 20 59q5 29 16 57z" />
    <glyph glyph-name="w" unicode="w" horiz-adv-x="438" 
d="M429 444q7 -35 -7 -68q-4 -17 -8.5 -66.5t-14.5 -76.5q-6 -28 -6 -57q-5 -45 -18 -87q-3 -8 -7 -27t-7.5 -29t-13 -21t-25.5 -15q-13 -3 -24 1.5t-17.5 11.5t-11.5 20.5t-7.5 22t-5.5 23.5q-1 5 -1 7q0 1 -2.5 19t-6 29t-9.5 15q-6 2 -10 0.5t-9 -10.5t-7.5 -15.5
t-6 -15.5t-3.5 -11q-1 -19 -14 -49t-33 -47.5t-43 4.5q-21 30 -25 67q-14 53 -21 86q-5 22 -12 63.5t-9 48.5q-3 17 -6 49t-4 40q-7 48 -26 93q-14 36 1 53q5 5 10.5 6.5t16 0.5t12.5 -1q17 2 29 -8.5t18 -32.5t9 -39t5 -42.5t2 -26.5q7 -60 20 -118q6 -25 10 -53q0 -1 1 -2
q1 -7 1.5 -10t4 -6t8.5 -5q14 32 24 65q9 35 26 67q2 5 4 22t8 24q18 22 45 14q8 -3 13.5 -11t8.5 -20t4.5 -21.5t3 -23t1.5 -17.5q3 -47 20 -92q1 14 9.5 43.5t9.5 45.5q1 29 5 56q10 38 7 77q-1 5 -3.5 14.5t-2.5 13t2 15.5q8 25 34 31q16 6 31.5 -1.5t22.5 -22.5z" />
    <glyph glyph-name="x" unicode="x" horiz-adv-x="367" 
d="M362 74q4 -25 -8.5 -38.5t-39.5 -13.5q-7 0 -13 1t-10.5 2.5t-9 6t-6.5 7t-6 9.5t-5 9t-5 11t-5 11q-15 31 -35 59q-1 2 -4 7t-4.5 7t-4.5 5.5t-5 4t-5 0.5t-6.5 -2t-6.5 -6q-30 -32 -54 -67q-25 -33 -40 -71q-23 -54 -53 -63q-18 -6 -28 5t-13 30q-2 20 7 38t27 29
q19 10 28 30q13 19 45 59.5t46 64.5q7 12 8 23t-2.5 19t-12.5 22q-7 12 -16.5 36.5t-14.5 34.5q-22 37 -50 69q0 1 -2 3q-8 9 -12 15t-8.5 16t-3 18.5t9.5 15.5q5 5 11 7.5t12.5 1t12.5 -3.5t13 -7t12 -9t12 -11.5t10 -11l9 -10.5t8 -8q22 -29 38 -62q2 -2 5.5 -10.5
t7.5 -15.5t7 -10q23 27 35 60q7 16 15 37.5t14 34.5q25 60 68 49q45 -11 -18 -114q-6 -11 -18.5 -29.5t-20.5 -33.5q-1 -2 -7 -12t-8 -14.5t-7 -14t-7 -16t-4 -15t-1.5 -15.5t2.5 -14q13 -21 30 -37q3 -4 14.5 -18.5t17.5 -22.5q5 -6 17 -18.5t17.5 -19t11.5 -19t9 -25.5z
" />
    <glyph glyph-name="y" unicode="y" horiz-adv-x="323" 
d="M321 506q6 -11 6 -19.5t-2.5 -14t-10.5 -18.5q-22 -44 -34 -91q-24 -60 -38 -122q-6 -30 -32 -75t-32 -59q-3 -7 -8 -22.5t-9 -23.5q-4 -10 -10.5 -33t-11.5 -34q-7 -9 -11.5 -29.5t-9.5 -29.5q-8 -15 -25.5 -19.5t-32.5 5.5t-17 30t3.5 36.5t14.5 32.5q17 32 25 48
t17.5 46.5t6.5 52.5q-11 45 -36 83q-11 18 -26 34q-13 18 -13 40q-3 8 -14 37t-16.5 48t-2 41.5t22.5 34.5q9 5 17 5.5t15 -4.5t12 -10.5t10.5 -15.5t8 -16t6.5 -15q10 -24 18 -49q4 -45 22 -87q8 -12 16 -13t14.5 8t11.5 18.5t10 23.5t6 16q12 27 26 61q9 31 14 62
q5 20 21 37.5t34.5 20.5t33.5 -21z" />
    <glyph glyph-name="z" unicode="z" horiz-adv-x="398" 
d="M390 75q33 -77 -114 -55q-19 3 -49 9q-18 3 -23 4q-58 6 -115 -8q-61 -12 -81 10q-6 7 -8.5 14t1 15.5t5.5 13.5t10.5 15t10 11.5l11.5 11.5q49 43 94 91q37 54 81 102q20 23 35 50q2 2 8.5 9t10 13.5t2.5 11.5q-3 15 -45 18t-53 -1q-48 -12 -97 -17q-26 -1 -36 16.5
t3 41.5q2 5 6.5 9t8 7t10 5t10.5 3t12 2t11 1t12 0.5t10 0.5q13 0 40.5 2.5t41.5 2.5q39 -2 77 -11h29.5t45 -4t23.5 -14q5 -10 6 -19t-2 -16.5t-8.5 -15.5t-11 -13.5t-13 -13.5t-12.5 -13q-13 -23 -25 -48q-1 -2 -40 -52q-35 -51 -76 -96l-9 -9t-8.5 -10t-7 -11.5t-2 -9.5
t4 -9t12.5 -7q19 -4 39 -5q7 -1 32.5 -6.5t39.5 -6.5q7 0 24 1t28.5 1t23.5 -5t17 -16z" />
    <glyph glyph-name="braceleft" unicode="{" horiz-adv-x="321" 
d="M196 -43q2 -13 13 -19.5t23 -8t22 -7t12 -17.5q4 -14 -4 -21t-21.5 -7.5t-26.5 1.5t-21 6q-29 11 -40 30t-15 53q-1 12 -0.5 41.5t-2.5 41.5q0 4 -1 32.5t-8 40.5q-4 6 -17 15.5l-26 19t-23.5 20t-9.5 21t16 20.5l0.5 0.5t1.5 0.5q13 8 22.5 20t15 28t8 28.5t5.5 32.5
t5 30q0 3 4 24.5t6.5 30.5t7.5 25.5t11.5 28t15.5 19.5q17 15 44.5 21t46.5 -7q13 -10 10.5 -26.5t-18.5 -22.5q-4 -1 -18.5 -5t-23.5 -9.5t-10 -15.5q-25 -86 -38 -174q-9 -46 -26 -53q28 -17 41.5 -47.5t13.5 -61.5t1 -66t4 -63z" />
    <glyph glyph-name="verticalbar" unicode="|" horiz-adv-x="123" 
d="M102 -28q10 -32 -11 -59q-12 -16 -32.5 -13.5t-28.5 20.5q-11 41 -2 82q7 39 1 79q-5 68 -1 137q3 81 1 155q-1 32 -3 64q-4 30 -4 61q0 14 9.5 24t23.5 10.5t24 -9.5t10 -24q17 -125 4 -251q-1 -32 -1 -45.5t0.5 -45t0.5 -45.5q-5 -70 9 -140z" />
    <glyph glyph-name="braceright" unicode="}" horiz-adv-x="295" 
d="M240 212q6 -9 4 -20t-11 -18q-16 -11 -25.5 -30.5t-12 -33t-4.5 -42t-3 -37.5q0 -4 -2.5 -25t-4 -30.5t-5 -26.5t-9.5 -28.5t-14 -20.5q-15 -17 -42 -25t-48 3q-14 10 -12 26.5t17 23.5q3 2 17.5 6.5t23 11t8.5 16.5q11 58 16 117q1 5 2.5 26.5t3.5 36.5t8 31t17 20
q-37 51 -45 112q-5 57 -21 111q-3 6 -14 18t-19.5 21t-13.5 22t5 21q14 15 31 11.5t31 -16t20 -27.5q15 -28 20 -59q4 -16 10.5 -48.5t10.5 -48.5q7 -28 20 -55q5 -10 20.5 -23t20.5 -20z" />
    <glyph glyph-name="asciitilde" unicode="~" 
d="M363 262q8 -14 4 -29q-3 -22 -24 -31.5t-39 -7.5q-30 -1 -59 10q-3 1 -27.5 9t-47.5 15t-48.5 11t-37.5 0q-19 -8 -39 -15q-22 -3 -28 25q-4 23 12 39q17 13 39 17q43 7 85 -8q42 -12 82 -29q27 -13 57 -13q21 3 40 13q4 3 15.5 2t15.5 -8z" />
    <glyph glyph-name="nonbreakingspace" unicode="&#xa0;" horiz-adv-x="214" 
 />
    <glyph glyph-name="exclamdown" unicode="&#xa1;" horiz-adv-x="122" 
d="M76 276q-22 -9 -41 5q-20 17 -12 42q3 14 14.5 23.5t26.5 10.5q14 0 24.5 -10t11.5 -24q0 -6 0.5 -11.5t-1.5 -11.5t-6 -10q-3 -2 -8 -6t-9 -8zM95 25q0 -39 4 -88q2 -19 1.5 -32.5t-6.5 -21.5q-8 -11 -21 -12q-18 0 -28 11t-11.5 20t-1.5 19q1 39 -3 95q0 15 -0.5 61.5
t0.5 65.5l4 56q3 17 20 22q17 4 29 -7q20 -28 16 -61q-3 -124 -3 -127v-1z" />
    <glyph glyph-name="cent" unicode="&#xa2;" horiz-adv-x="346" 
d="M252 300l-21 -71q-19 -76 -45 -149q46 -3 92 5q19 1 29 -10t2 -29q-10 -20 -37.5 -29t-53.5 -8t-49 7q-4 -18 -11 -61t-13 -64q-8 -32 -39 -38q-26 -4 -34 16q-2 7 -1 16q5 28 20.5 79t20.5 74q-57 33 -83 85.5t-5 111.5q22 58 71.5 95.5t111.5 43.5q1 5 6 26t9.5 35.5
t12.5 31.5t19.5 23.5t25.5 1.5q15 -5 20 -16.5t1.5 -27.5t-9.5 -30.5t-13.5 -31t-8.5 -22.5q26 -8 45 -28q26 -31 8 -47q-7 -5 -14.5 -7.5t-16.5 0.5t-13 4t-15.5 7.5zM176 256q10 27 15 55q-26 -5 -56 -35t-42 -58q-12 -32 -1.5 -64.5t38.5 -51.5q6 20 21.5 73t24.5 81z
" />
    <glyph glyph-name="sterling" unicode="&#xa3;" horiz-adv-x="428" 
d="M368 64q18 -29 1.5 -51t-50.5 -22q-29 -4 -57 5q-2 0 -19.5 4t-34 6.5t-37 5.5t-38 3t-27.5 -4q0 -1 -1 -1q-4 -1 -10.5 -4.5t-11 -5.5t-11 -3.5t-12 -1t-10.5 3.5q-23 21 -11 51q3 7 13.5 34.5t14.5 43.5q10 43 11 87h-5q-14 0 -20.5 0.5t-16 3.5t-14 10.5t-6.5 19.5
q-2 25 17.5 33t43.5 2q0 14 -3 39t-5 42t-1 39.5t6.5 37.5t20 29.5t37.5 22.5q53 18 114.5 -4.5t79.5 -75.5q7 -21 -7.5 -38t-37.5 -13q-17 2 -33 28t-24 31q-19 15 -44 12t-33 -26q-6 -30 -4 -61q0 -10 3 -70q47 7 93 0q12 -2 19.5 -10.5t7.5 -20.5t-7 -21t-19 -11
q-18 -1 -35 4q-29 2 -58 -3q-1 -21 -4 -62.5t-4 -62.5q63 -12 124 -32q34 -7 67 6q1 0 8.5 3.5t11 4t9 -0.5t9.5 -7z" />
    <glyph glyph-name="currency" unicode="&#xa4;" horiz-adv-x="359" 
d="M311 155q1 -2 8.5 -7t10 -7.5t6 -8t4.5 -11.5q1 -21 -19 -31q-6 -5 -14 -3.5t-13.5 3t-12.5 7t-11.5 9.5t-11 10.5t-10.5 9.5q-2 3 -5 4q-16 -9 -34.5 -16t-40 -6.5t-34.5 12.5h-1q-7 7 -16.5 5t-14.5 -6t-13.5 -11.5t-12.5 -10.5q-18 -12 -36 0t-14 34q2 11 19 28.5
t17 28.5q0 8 -6.5 23.5t-7.5 20.5q-6 30 3 58q0 3 2 11t1 12q-5 14 -17 24q-2 2 -5.5 6t-5 6.5t-4 6t-3.5 6.5t-1 6.5t2 7.5q6 16 21.5 21.5t29.5 -2.5q6 -4 17.5 -18.5t21.5 -16.5q32 19 69.5 19.5t69.5 -17.5q8 1 19.5 14t13.5 14q31 23 50 0q7 -9 7.5 -17.5t-4.5 -16
t-11.5 -13t-15.5 -12.5t-13 -11q19 -32 18 -69t-20 -68q4 -17 18 -28zM170 177q44 -5 65 29t5.5 70t-59.5 37q-28 3 -49 -15.5t-22 -46.5q-2 -28 15 -49.5t45 -24.5z" />
    <glyph glyph-name="yen" unicode="&#xa5;" horiz-adv-x="359" 
d="M288 197q-15 1 -37 2q-1 -3 -7 -16t-9 -19q40 6 79 -3q18 -7 17 -26t-20 -25q-20 -1 -41 3q-28 3 -56 0q-1 -2 -6.5 -22t-9.5 -29q-4 -6 -9 -25.5t-15 -27.5q-27 -19 -54 0q-9 10 -9 25t4 25.5t14 29.5t11 21q-6 1 -28.5 -0.5t-37.5 -1.5t-31.5 5t-22.5 16q-18 37 39 40
q12 0 87 -6q6 -1 9 -1q3 20 -2 40q-14 1 -43.5 -1t-44.5 -1q-33 0 -39 18q-4 11 1 22t16 16q12 2 47.5 0t49.5 -1q-27 43 -48 90q-3 10 -11.5 24.5t-15.5 26.5t-14 28t-6.5 27t8.5 25q16 19 32 15.5t29 -22.5q22 -34 34 -72q1 -2 6.5 -30t13.5 -46t22 -18q10 -1 16 9.5
t11 28t7 20.5q15 26 22 55q0 23 8 46q6 12 17.5 22.5t25.5 13.5t26 -9q9 -10 11 -21t-1 -18t-9 -19.5t-9 -20.5q-25 -76 -41 -155q3 0 14 0.5t16.5 0t13.5 -2.5t13 -6.5t7 -12.5q8 -24 -8.5 -31t-41.5 -6z" />
    <glyph glyph-name="section" unicode="&#xa7;" horiz-adv-x="332" 
d="M304 215q25 -42 3 -87q-5 -10 -14.5 -19.5t-22.5 -19.5t-19 -16q26 -19 31 -50.5t-14 -57.5q-24 -50 -72 -79q-44 -29 -97 -26q-24 3 -40 17t-5 35q8 16 23.5 18.5t36 -0.5t31.5 0q47 18 65 65q1 9 -3.5 17.5t-15 17.5t-18 14t-21.5 13t-15 9q-46 26 -84 62
q-42 37 -34 93q3 16 10.5 27.5t23.5 26t22 20.5q-28 16 -36 47t8 58q25 51 73 82t105 31q27 -2 47.5 -18.5t1.5 -39.5q-11 -14 -32 -15.5t-39 2.5t-37 -6q-21 -12 -39.5 -35.5t-7.5 -40.5q9 -14 22 -24.5t40.5 -25.5t28.5 -16q56 -29 94 -79zM190 111q30 16 34.5 38.5
t-11 43.5t-36.5 38.5t-41 28.5q-25 -14 -30 -35.5t5.5 -42.5t32.5 -40q21 -18 46 -31z" />
    <glyph glyph-name="dieresis" unicode="&#xa8;" horiz-adv-x="234" 
d="M233 508q0 -3 1.5 -9t2 -10t0 -9t-4.5 -9q-2 -2 -6.5 -7.5t-8.5 -10.5q-22 -18 -50 -11q-6 2 -9.5 5.5t-5.5 10t-2.5 9.5t-1 12t-0.5 10q0 16 10.5 28.5t25.5 16.5q16 3 29.5 -4t19.5 -22zM50 531q16 -2 27.5 -14t13.5 -28q1 -16 -8.5 -28.5t-24.5 -15.5q-3 0 -9.5 -1
t-10.5 -1t-9 1.5t-8 5.5l-8 8l-9 9q-12 23 1 46q16 24 45 18z" />
    <glyph glyph-name="copyright" unicode="&#xa9;" horiz-adv-x="488" 
d="M467 295q2 -39 -5 -78l-2 -13q-3 -45 -30 -80q-51 -60 -126 -80q-42 -12 -85 -13q-34 -1 -66 12q-63 31 -105 87q-26 35 -29 82.5t10.5 89t37.5 78.5q40 55 101.5 85t129.5 27q75 -11 124 -69q25 -27 39 -62q7 -22 6 -45v-21zM416 275q1 4 3 12.5t2 11.5q2 39 -53 91
q-42 40 -100 44q-3 1 -10 1q-48 0 -86.5 -31.5t-61.5 -75.5q-24 -55 -26 -116q-8 -53 33 -87q43 -38 100 -44.5t108 21.5q23 13 39.5 31.5t26.5 45t14.5 44.5t10.5 52zM337 207q16 3 25 -11q8 -17 -5 -32q-44 -44 -106 -40q-20 0 -39 5q-46 18 -73 54.5t-14 86.5
q12 45 45.5 77.5t79.5 42.5q26 8 51 -4q16 -2 28.5 -12.5t17.5 -26.5q6 -14 -5 -24q-24 -12 -46 1q-4 2 -11 5q-20 15 -42 4l-10 -8l-2 -1q-26 -21 -40 -49t-5 -52q10 -28 38 -38q20 -6 41 -3l1 1h1q18 3 35 12q17 8 35 12z" />
    <glyph glyph-name="guillemotleft" unicode="&#xab;" horiz-adv-x="365" 
d="M148 97q8 -7 12 -11t10.5 -12.5t9 -15.5t3 -16t-4.5 -17q-5 -15 -20 -16h-2q-21 0 -44 32q-7 9 -31 43q-17 24 -23 33q-15 22 -32 41q-13 10 -14 26.5t10 28.5q22 27 59 67q6 7 22 22l7 8q3 3 9 10q10 16 28 22q13 3 24 -5q11 -7 12 -19q1 -25 -18 -40q-11 -10 -30 -29
q-20 -19 -30 -30l-7 -7q-12 -11 -15 -16.5t1 -15.5q21 -32 52 -71zM315 91l3 -3q18 -14 23 -37q2 -16 -10 -27q-9 -8 -21 -8q-4 0 -7 1q-19 6 -29 23q-5 8 -8 10q-6 7 -14 16q-15 16 -22 25q-23 26 -36 43q-2 2 -6 7q-17 15 -23 37q-1 24 20 37l5 5q19 19 35 40l3 4
q26 36 56 68q8 9 23.5 15.5t27.5 1.5q14 -7 13 -29q-7 -31 -34 -49q-8 -8 -15 -17q-11 -14 -34 -40q-17 -20 -18 -21l-3 -4q-5 -5 -5.5 -7t1.5 -8q6 -11 15 -19q3 -3 5 -6q25 -28 55 -58z" />
    <glyph glyph-name="softhyphen" unicode="&#xad;" horiz-adv-x="0" 
 />
    <glyph glyph-name="registered" unicode="&#xae;" horiz-adv-x="521" 
d="M500 327q12 -89 -30 -167q-35 -70 -104 -105q-66 -36 -142 -39q-8 0 -16 1q-78 12 -132 71q-60 58 -56 142q-2 116 31 166q36 54 102.5 81t129.5 25q75 -3 139.5 -55t77.5 -120zM429 299q3 31 -9.5 59t-36.5 46q-54 41 -122 41q-28 0 -55 -9q-136 -44 -130 -213
q2 -55 67 -106q56 -47 129 -39q36 6 64.5 26.5t44.5 45.5t27.5 57t15 52.5t5.5 39.5zM318 273q-1 -1 -12 -9q-20 -20 -48 -27q8 -6 21 -18q20 -17 30 -26.5t20.5 -23t10.5 -22.5t-7 -14l-1 -1q-15 -5 -30.5 0t-25.5 18q-4 3 -12 11q-22 17 -39 38q-5 -15 -1 -31
q6 -19 -4 -37q-9 -8 -21 -7q-17 0 -20.5 19.5t-3.5 52.5q1 13 -1 26q-9 27 -5 55q2 11 1 21q1 12 1 17q0 3 1 8q3 16 -1 31q-7 13 -1.5 25.5t18.5 15.5q25 9 51 6q13 -1 27 -3.5t33 -9t33 -19.5t16 -32q4 -41 -30 -64zM284 306q16 12 8 30q-20 28 -54 21q-24 -6 -20 -73v-1
l9 -7q33 6 57 30z" />
    <glyph glyph-name="degree" unicode="&#xb0;" horiz-adv-x="230" 
d="M207 433q13 -34 -1 -66.5t-46 -47.5q-38 -17 -77.5 -3.5t-57.5 50.5q-13 31 -4.5 62.5t34.5 51.5q30 25 69 26q14 1 33.5 -6.5t20.5 -19.5q20 -20 29 -47zM155 375q11 18 5.5 38.5t-24.5 31.5q-18 9 -37 1t-24 -28q-7 -17 -0.5 -34t22.5 -25q15 -10 32.5 -5t25.5 21z" />
    <glyph glyph-name="plusminus" unicode="&#xb1;" horiz-adv-x="380" 
d="M345 67q12 -4 17.5 -15t1.5 -23q-6 -15 -33 -18q-43 -1 -86 3q-28 1 -140 -4q-3 0 -18 -1.5t-23 -1.5t-18.5 3t-16.5 9q-6 10 -4 21.5t10 19.5q17 8 35 6h65.5h61.5q45 1 48 1q33 -3 66 -1q17 2 34 1zM101 237q-37 -5 -74 4q-20 11 -9.5 31t29.5 23q59 1 118 -5
q0 4 -1.5 22.5t-1.5 34t2 33t9.5 28t19.5 10.5q14 0 21 -8.5t7.5 -17.5t0.5 -23q-2 -54 -2 -80q4 0 25 1.5t38.5 1t38 -2.5t31.5 -9.5t10 -20.5q-1 -12 -10.5 -18t-20.5 -5.5t-22 0.5q-57 1 -89 1v-32.5v-32.5q0 -3 1 -15.5t1 -20t-2.5 -17t-7.5 -14.5q-22 -20 -38.5 -6
t-16.5 39q0 17 3 50t3 48q-12 0 -36 0.5t-27 0.5z" />
    <glyph glyph-name="acute" unicode="&#xb4;" horiz-adv-x="125" 
d="M126 520q30 -25 -22 -67q-33 -36 -81 -28q-3 0 -5 1.5t-5 10t7 23.5q15 34 41 60q16 15 29 16t36 -16z" />
    <glyph glyph-name="paragraph" unicode="&#xb6;" horiz-adv-x="683" 
d="M657 344q5 -20 7 -41q-1 -21 -5 -41q-1 -21 -5 -41q-6 -18 -14 -35q-5 -17 -14 -34q-10 -16 -22 -30q-14 -11 -30 -20q-15 -9 -32 -16q-16 -7 -33 -12q-15 -7 -32 -11v-39q0 -7 1.5 -11.5t1.5 -11t-2.5 -20t-2.5 -20.5q1 -5 1.5 -19t0.5 -22q1 -11 -11 -18t-25 -8
q-16 -1 -31 1q-5 0 -15.5 -3t-15.5 -3q-1 1 -31 4q-5 0 -15 4t-16 5q-7 0 -35 1q-5 1 -17 -1t-18 -1q-7 0 -18.5 3t-16.5 4q-3 0 -12 0.5t-14 1.5q-13 4 -25 10q-6 4 -10 8.5t-6 12.5t-2.5 11t-1.5 15q-2 21 -1 41q0 7 2.5 11.5t3.5 10.5t8 41q-5 4 -16.5 10t-16.5 9
q-4 3 -14 9.5t-15 10.5q-13 13 -25 28q-12 13 -22 28q-12 14 -20 30q-6 18 -7 37q-2 18 0 37q4 18 10 36q3 18 8 36q6 18 14 35q10 15 23 27q16 33 50 46q14 10 29 18q14 10 29 19q16 5 33 9q2 1 14 5t18 5q7 1 18.5 1t15.5 1q5 1 18 0.5t17.5 -0.5t16.5 1t19 1q5 0 17 1
t18 1q18 -1 36 -3l36 -5q6 -1 17.5 -6t16.5 -6q22 -5 35 -9q18 -3 36 -9q14 -6 27 -15q14 -8 26 -19q10 -13 17 -28q11 -12 18 -27q5 -20 6 -41zM588 260q1 2 0 18.5t-1 19.5q3 19 3 38q-4 18 -12 35.5t-21 31.5q-12 13 -28 23q-6 3 -18 4t-17 3q-16 5 -33 8q-6 1 -17.5 6.5
t-17.5 6.5q-11 2 -35 5q-7 0 -19 -1t-18 0q-5 0 -17 2t-19 2q-6 0 -18.5 -1.5t-16.5 -2.5q-28 -2 -36 -4q-16 -3 -32 -8q-15 -6 -30 -15q-15 -7 -29 -16q-13 -11 -24 -24q-9 -15 -15 -31q-7 -16 -11 -32q-8 -15 -14 -31q-4 -17 -5 -35q0 -17 6 -34q3 -16 13 -30
q10 -15 24 -26q12 -14 25 -26q5 -4 15.5 -9.5t14.5 -8.5t14.5 -9t15.5 -10q12 -4 8 -22q-1 -7 -2 -18.5t-2 -17t-5 -17t-4 -17.5q-2 -9 -1 -18q2 -17 7 -34q16 -5 32 -8q7 -1 19 -1h16q5 -1 16.5 -3t17.5 -2t16 -2t14 -3h15.5t15.5 -1q6 -1 14.5 -0.5t13.5 0.5q0 7 -1 19
t-1 18q0 7 -1 11t-1.5 11t5.5 15.5t6 15.5t2 20t2 19q0 17 16 24q4 2 13 9.5t13 7.5q16 0 31 4q19 1 37 8q16 12 26 28q14 14 23 30q5 19 6 38q4 18 6 37zM368 212q11 -15 16 -33q16 -35 6 -72q-1 -6 -14 -12q-13 -4 -26 -3q-2 0 -5.5 -0.5t-5 -0.5t-3 2t-2.5 6q0 1 -2 5
l-2 4v3v3q-1 9 -3 18q-1 -3 -3.5 -13.5t-2.5 -11.5q-6 -13 -10 -27q-1 -2 -2 -4.5t-3 -4t-4 -2.5t-5 -1.5t-5 -1t-5.5 -1t-4.5 -0.5q-11 -2 -22 1h-2q-7 1 -6 5q1 18 5 36q5 18 12 34q8 16 17 31q3 5 8 16.5t9 16.5q13 13 32 14q25 3 33 -7zM539 307q19 -23 18 -54
q-1 -25 -17 -44t-40 -25q-47 -12 -87 16q-18 12 -26.5 32.5t-4.5 42.5q2 8 8 14q0 2 1 4q4 20 16 37q15 19 38 24t44 -5q30 -15 50 -42zM304 260q-12 -25 -33 -41q-27 -22 -60 -16q-29 8 -49 30t-26 51q-3 17 3 33q5 15 17 26q19 18 45 24q27 8 55 6q1 0 11 -1q9 0 18 -5
q5 -1 10 -3q15 -6 13 -22q17 -42 -4 -82z" />
    <glyph glyph-name="cedilla" unicode="&#xb8;" horiz-adv-x="131" 
d="M96 30q15 -17 22.5 -30.5t9 -31t-10.5 -32.5q-24 -27 -58 -36.5t-68 1.5q-9 3 -11.5 13.5t1.5 20.5q3 5 9 7t11 2l5 -1q17 -5 33 0q31 7 25 35q-3 16 -34 17q-12 0 -15 13t5 26q4 7 12 10t15 3l6 1q24 -2 43 -18z" />
    <glyph glyph-name="guillemotright" unicode="&#xbb;" horiz-adv-x="351" 
d="M324 206q12 -10 13.5 -26t-9.5 -28q-8 -10 -24 -32q-21 -29 -34 -44q-7 -7 -21 -22l-8 -7q-3 -3 -8 -10q-10 -16 -28 -22q-3 -1 -7 -1q-9 0 -17 5q-10 8 -11 20q-1 24 18 39q10 10 30 34q19 24 28 34q3 2 7 6q12 11 15 17t-1 16q-14 20 -31 37q-14 17 -20 25q-6 6 -12 11
q-7 7 -11.5 11t-10.5 12.5t-9 15t-3 15.5t4 18q6 14 21 16q21 1 45 -32q8 -12 28 -35q20 -24 30 -38l5 -8q9 -14 21 -27zM193 183q1 -28 -21 -44q-19 -18 -35 -38l-2 -3q-25 -36 -55 -67q-17 -16 -40 -18q-5 0 -10 2q-14 6 -13 27q7 31 33 49q8 7 15 16q11 14 33 39
q10 12 18 21l3 3q6 8 3 15q-5 10 -14 18q-4 4 -5 6q-24 26 -54 56l-3 3q-18 14 -22 36q-2 16 9 26q12 11 28 8q19 -6 29 -23q5 -8 7 -10q4 -3 14 -15q14 -16 22 -24q19 -23 35 -42q1 -2 5 -6q15 -14 20 -35z" />
    <glyph glyph-name="questiondown" unicode="&#xbf;" horiz-adv-x="269" 
d="M199 276q-22 13 -26 38q-1 9 3 18q6 15 21 22q13 5 26.5 0.5t21.5 -15.5t6.5 -25t-10.5 -23q-2 -1 -6 -4.5t-6.5 -5t-6.5 -4t-7 -3t-7.5 -0.5t-8.5 2zM278 -72q4 -10 -1.5 -20t-13.5 -15l-8 -6q-12 -13 -29 -20q-18 -6 -38 -5q-63 3 -101 53q-29 38 -37 84q3 56 78 117
q3 2 12.5 8.5t14 11.5t6 13t6.5 49q3 25 11.5 34.5t27.5 3.5q45 -14 28 -72q-11 -24 -23 -48q-10 -21 -27 -37q-21 -21 -44 -39q-18 -10 -21 -31q0 -22 12 -41t32 -30q44 -15 84 8q2 1 5.5 1.5t12 -4t13.5 -15.5z" />
    <glyph glyph-name="Agrave" unicode="&#xc0;" horiz-adv-x="307" 
d="M278 162q1 -5 12.5 -35t11.5 -48q-2 -33 -25 -49.5t-43 14.5q-10 17 -15 35.5t-8.5 52t-3.5 38.5q-2 13 -7.5 22t-11.5 13.5t-17 5.5t-18.5 0.5t-22.5 -2t-23 -2.5q-12 -88 -20 -127q-1 -3 -3.5 -18t-4.5 -22t-7 -16.5t-12 -15.5q-23 -16 -39.5 1t-14.5 43q9 74 28 146
q17 68 19 138q4 35 16 69q1 3 3.5 17.5t6 23t10.5 13.5q61 54 146 -144q3 -7 4 -9q4 -3 17 -7.5t18 -10.5q15 -25 -4 -46l-5 -4q-10 -3 -4 -11q0 -10 3 -19q10 -29 14 -46zM162 271q15 12 11 33.5t-17 42t-21 20.5q-23 -13 -22 -56q1 -42 25 -46q11 -2 24 6zM98 532
q-11 15 -17 33q-8 15 -4 29t30 24q40 16 57 -39q20 -68 -8 -82q-27 -9 -58 35z" />
    <glyph glyph-name="Aacute" unicode="&#xc1;" horiz-adv-x="307" 
d="M286 185q-9 -22 -8 -46q1 -3 6 -23t7 -33t4 -31t-2 -31t-13 -20q-12 -10 -27.5 -7t-22.5 18q-7 42 -5 84q1 30 -9 58q-8 13 -28.5 14.5t-34.5 -2.5q-18 -1 -27.5 -3t-21 -9.5t-17.5 -20.5q-6 -14 -10 -48.5t-13 -49.5q-8 -17 -26 -20t-30 11q-6 8 -6.5 20.5t2.5 21.5
t8.5 23.5t7.5 19.5q13 44 24 80q6 16 11.5 46.5t7.5 38.5q13 49 17 98q1 40 11 78q3 18 18 27.5t32 5.5q28 1 54 -9q4 -2 7.5 -6t5.5 -8t4.5 -10.5t3.5 -10.5t2.5 -12t1.5 -11t1 -11l1 -8q11 -60 28 -118q1 -3 2.5 -11t2.5 -13t4 -11.5t7 -10t14.5 -5t14.5 -4.5
q5 -5 5.5 -11t-2 -10t-7 -10.5t-5.5 -9.5zM171 213q16 4 21 10.5t1 22.5q-2 10 -10 34.5t-10 38.5q-1 1 -1.5 7t-1 8t-2 7.5t-3.5 8t-4.5 5.5t-6 4t-7.5 1q-19 -77 -34 -151q29 -6 58 4zM153 513q-2 0 -3.5 2t-5 10.5t0.5 21.5q4 29 19 55q9 15 19.5 18t34.5 -6
q13 -7 14.5 -19.5t-3.5 -23t-13 -21.5q-16 -21 -33 -32.5t-30 -4.5z" />
    <glyph glyph-name="Acircumflex" unicode="&#xc2;" horiz-adv-x="304" 
d="M300 22q6 -13 -17.5 -20t-33.5 -3q-20 8 -27.5 32.5t-6.5 50.5q0 40 -6 79q-3 22 -12.5 29t-32.5 6q-16 -1 -25 -3t-18 -9.5t-13 -21.5q-5 -27 -12 -54q-9 -19 -14 -39q-1 -3 -3.5 -26t-8 -36t-17.5 -19q-18 -9 -34.5 2.5t-15.5 31.5q0 8 3.5 24t4.5 22q1 3 2.5 21
t3.5 28q3 12 14 36.5t13 39.5q10 47 14 95q-3 18 2 36q1 3 8.5 21.5t11.5 29.5q8 47 35 87q16 12 36 18q18 10 38 6q8 -2 13 -10.5t6 -17t1.5 -22t1.5 -17.5q4 -53 19 -105q3 -10 13 -20.5t19 -18t17 -18t7.5 -20t-8.5 -26.5q-3 -3 -7.5 -8t-6 -8.5t-0.5 -11.5q1 -18 8 -56
q0 -1 12 -47q5 -30 16 -58zM137 245q3 0 9 1t8.5 1.5l7.5 1.5t7.5 2t5.5 3t4.5 4.5t3 5.5t1 7.5t-1.5 9.5q-5 23 -16 64.5t-15 57.5q-3 -1 -5.5 -4t-4 -7.5t-2 -8t-0.5 -9v-6.5q-4 -24 -11 -47q-3 -25 -4 -50q-3 -9 -1 -18.5t14 -7.5zM81 504q-21 3 -21 17q-1 5 1 10
q1 2 2 3l5 7q18 26 33 53q5 8 12 16l2 3l1 1q8 17 28 17q12 1 24 -3l6 -2l1 -1q5 -2 7 -7l3 -3q7 -10 15 -25q4 -6 37 -48l3 -4q4 -5 4.5 -7t-0.5 -5t-1 -6q0 -7 -16 -10.5t-31 2.5q-16 7 -27 20q-12 17 -19 27q-19 -25 -21 -27q-4 -10 -11 -17q-16 -14 -37 -11z" />
    <glyph glyph-name="Atilde" unicode="&#xc3;" horiz-adv-x="294" 
d="M286 72q13 -46 -18 -59q-6 -2 -12 -2t-10.5 1t-9 5t-7.5 8t-6.5 10.5t-5.5 11.5t-4.5 12.5t-3.5 11.5t-3 11q-1 5 -2 7q-3 9 -6 29t-4 24q-7 36 -6 73q-10 0 -25.5 -0.5t-30 -1t-26.5 -7t-14 -18.5t-2 -34.5v-29.5q0 -1 -0.5 -11t-1 -16t-1.5 -17.5t-2.5 -20t-4 -19
t-5.5 -18t-6.5 -14.5t-9 -10.5t-11.5 -4.5q-17 -2 -26.5 16.5t-11.5 38.5q-2 53 9 104q1 5 1 15.5t2 16.5l3.5 7t2.5 9q2 10 1 20q2 2 0 8t-4 16.5t0 20.5q1 23 19 37q4 12 21 64q11 30 28 56q1 0 5 7.5t4.5 8.5t4.5 7.5t6 8.5t6 7t6.5 6.5t7 4.5t8.5 4t9 2t10 1
q16 -1 24.5 -10t13.5 -26q9 -29 22 -56q11 -27 11 -56q4 -33 14 -66q6 -21 12 -64t12 -63q3 -11 8.5 -33t8.5 -33zM124 269q40 -4 54.5 24t3.5 61t-34 43q-5 0 -12.5 -13t-14 -31.5t-10.5 -37t-1 -32t14 -14.5zM76 508q-18 -5 -27 12q-9 15 -4.5 33t19.5 28q31 18 66 9
q5 -1 16 -5t19.5 -6.5t18.5 -3.5t14 4q3 3 7 11t9 11q23 13 42 -4q13 -17 3 -38t-27 -30q-35 -16 -71 -4q-2 0 -9.5 2.5t-10.5 3t-9.5 1.5t-10.5 0.5t-9.5 -2t-9.5 -4.5t-8 -7.5t-8 -7t-10 -3.5z" />
    <glyph glyph-name="Adieresis" unicode="&#xc4;" horiz-adv-x="303" 
d="M278 111q1 -5 9 -26.5t12 -39t2 -28.5q-5 -17 -21.5 -22t-29.5 7t-17 29q-3 15 -4 30q-3 21 -17 71q-4 13 -12.5 19t-25.5 10q-31 5 -63 4q-21 0 -26.5 -8t-8.5 -32v-7q-5 -41 -5 -51v-6q0 -12 -1 -18t-3.5 -14t-10 -10t-18.5 -1q-9 1 -15 4t-9.5 9t-5.5 10.5t-2 14v13.5
t1.5 16t1.5 14q1 8 2 12.5t2 6t2.5 7t3.5 14.5q2 45 15 87q2 5 11 45q6 29 25 82.5t25 80.5q1 4 3 11.5t2.5 10t2 8t2.5 7t3.5 4.5t5 4t6 2.5t7.5 2t10 0.5t16 2t15.5 2t12.5 -2.5t13 -9.5q6 -6 9.5 -15.5t6 -22.5t3.5 -22t2.5 -23.5t1.5 -18.5q1 -5 1.5 -19.5t1.5 -21.5
q4 -24 11 -47q4 -14 8 -35.5t5 -28.5q13 -12 21 -27q5 -23 2 -47q6 -18 11 -37zM121 218q32 -3 62 8q-13 61 -32 145q-9 0 -14.5 -6.5t-7.5 -13.5t-4 -20t-3 -18q-2 -9 -7.5 -25.5t-7.5 -23.5q-7 -19 -6 -29.5t20 -16.5zM200 513q-5 2 -8.5 5t-5.5 9t-2.5 9t-1.5 11.5
l-1 8.5q0 15 9.5 27t23.5 16t27 -2.5t19 -19.5q1 -3 2.5 -8.5t2 -9t0 -8.5t-3.5 -8t-6.5 -8t-7.5 -9q-20 -18 -47 -13zM64 517q-2 2 -7 6.5t-9 8.5q-12 21 0 43q14 23 41 19q15 -2 26 -13t13 -26q2 -14 -6.5 -26.5t-22.5 -15.5q-3 0 -9 -1t-9.5 -1.5t-8.5 1t-8 5.5z" />
    <glyph glyph-name="Aring" unicode="&#xc5;" horiz-adv-x="320" 
d="M299 179q-9 -22 -8 -46q1 -3 6 -23.5t7.5 -33t4 -31t-2.5 -31t-14 -19.5q-12 -11 -28 -7.5t-23 18.5q-8 41 -5 83q0 30 -11 58q-8 14 -29.5 15.5t-35.5 -2.5q-19 -2 -29 -4t-22 -9t-19 -20q-6 -14 -10.5 -48.5t-13.5 -49.5q-8 -17 -27 -20t-32 11q-6 8 -6.5 20.5
t2.5 21.5t9 23.5t7 19.5q14 43 27 80q5 16 11.5 46.5t7.5 38.5q13 48 18 98q1 39 11 78q5 14 16 24q-18 12 -28 31q-11 26 -3.5 52.5t29.5 42.5q27 20 60 21q12 1 29 -5.5t18 -16.5q18 -16 25 -39q10 -24 2 -48.5t-30 -38.5q3 0 5 -1q11 -6 14 -19t2 -32t-1 -25
q11 -59 29 -117q1 -3 2.5 -11.5t3 -13.5t4.5 -11t7 -9.5t15.5 -5t15.5 -5.5q5 -4 5.5 -10t-2 -10t-7.5 -10.5t-6 -9.5zM132 546q-4 -10 1 -20.5t15 -13.5q11 -5 22.5 -2.5t18.5 11.5q8 11 4 23.5t-17 16.5q-12 6 -25 1.5t-19 -16.5zM178 207q17 4 22.5 10.5t1.5 21.5
q-3 10 -11 35t-11 39l-1 6t-1.5 8.5t-2 8t-3.5 7.5t-4.5 5.5t-6 4.5t-8.5 1q-19 -76 -36 -151q31 -6 61 4z" />
    <glyph glyph-name="AE" unicode="&#xc6;" horiz-adv-x="570" 
d="M520 84q21 -9 28 -30.5t-4 -41.5q-12 -20 -31.5 -20.5t-38.5 11.5q-41 19 -70 30q-54 15 -108 24q17 -58 -21 -63q-15 -2 -25.5 9.5t-14 23.5t-5.5 29q-2 19 -3 25t-5 23.5t-9 25.5t-14 17.5t-21 12.5q-39 11 -79 4q-8 -2 -12.5 -7t-6 -10t-2.5 -15q-5 -35 -7 -61v-12
v-13.5t-2 -13t-7 -9.5q-13 -9 -29 -4.5t-23 18.5q-8 28 -1 56q1 8 5 23.5t5 22.5q1 6 3.5 28t5.5 34q17 77 42 151q16 44 28 90q0 1 1.5 8t2 9.5t2.5 7.5t5 8t7 5q32 13 66 6q21 -8 29 -51q4 -21 9.5 -74t12.5 -82q5 7 14.5 10.5t17 3.5t22 -0.5t16.5 -0.5q4 0 36.5 -1
t35.5 0q13 1 34.5 5.5t37.5 8t36 3.5t34 -7t20.5 -21.5t2.5 -29.5q-6 -13 -19 -17.5t-35.5 -4.5t-25.5 -1q-18 -2 -53.5 -10.5t-58.5 -13t-52.5 0t-51.5 21.5q1 -5 9 -13t9 -11q10 -22 6 -47q19 -4 39 -10.5t46.5 -16.5t38.5 -14q31 -11 64 -18q33 -2 64 -11zM121 218
q32 -3 62 8q-12 61 -32 145q-13 0 -19.5 -13.5t-10 -38t-4.5 -26.5q-2 -4 -6.5 -16t-6 -18.5t-2.5 -16t4 -15.5t15 -9zM532 490q18 -5 28 -19t1 -32q-1 -3 -4.5 -6.5t-6.5 -6t-8.5 -5t-9 -4t-10 -3.5t-9 -2.5t-9 -2.5t-7.5 -2q-33 -8 -103.5 -18t-105.5 -20q-4 -1 -14 -5.5
t-14 -5.5t-14 1q-23 12 -21 38q1 41 71 61q63 10 126 12q28 3 55 11q26 13 55 9z" />
    <glyph glyph-name="Ccedilla" unicode="&#xc7;" horiz-adv-x="323" 
d="M149 350q-53 -50 -67 -122q-3 -32 10 -62t38 -50q25 -25 56 -41q33 -14 68 -7q34 2 36 -24t-23 -43q-9 -5 -18 -7q28 -28 18 -66t-48 -50q-11 -4 -28 -7.5t-36.5 -4.5t-32 7t-11.5 25q2 17 20.5 18t41 1.5t29.5 15.5q6 14 -1.5 23.5t-21.5 13.5q-3 0 -9 0.5t-10 2t-7 5.5
q-9 16 1 32q-72 25 -112.5 74.5t-34.5 121.5q6 62 36 116t78 92q7 6 20.5 20t21.5 21q22 15 47 20q19 6 29 8.5t27 4t30 -5t22 -20t8.5 -23.5t-6.5 -15.5t-18 -9t-21 -4t-22 -1.5q-68 -3 -110 -59z" />
    <glyph glyph-name="Egrave" unicode="&#xc8;" horiz-adv-x="375" 
d="M279 76q1 0 6 -1.5t8 -2.5t8 -3.5l8 -4t7.5 -4.5t6.5 -5.5t4 -6t2 -7.5t-2 -8q-20 -47 -60 -31q-9 3 -23.5 13t-23.5 13q-22 8 -45 14q-1 0 -103 37q-4 1 -14.5 4.5t-16 5.5t-13 6t-12.5 9.5t-8 12.5q-12 26 4 38t42 6q58 -15 113 -38q104 -44 112 -47zM373 440
q2 -7 3 -12.5t-3.5 -9.5t-8 -6.5t-11.5 -4t-13.5 -2.5t-14 -1.5t-13.5 -0.5t-12 0.5t-9 0.5q-77 1 -154 -9q-6 -1 -22 -4t-28 -5.5t-26 -1.5t-22 6q-16 13 -12 29.5t21 26.5q19 11 43 15t59 5t46 2q4 0 21.5 2.5t28.5 3.5t30 2t32.5 -1t27.5 -5.5t23.5 -11t13.5 -18.5z
M124 230q-1 0 -13.5 1t-17 1.5t-15 2.5t-15.5 5t-10.5 9t-7.5 15q-3 18 8 32t29 16q53 2 104 -10q3 0 16 -1t24.5 -2t26.5 -2.5t26.5 -5.5t21.5 -9.5t14 -14t0 -19.5q-11 -38 -97 -29q-8 1 -41.5 5.5t-52.5 5.5zM195 513q-15 -5 -35.5 11t-34.5 34q-36 48 5 72
q26 16 52 -12.5t29 -61.5t-16 -43z" />
    <glyph glyph-name="Eacute" unicode="&#xc9;" horiz-adv-x="367" 
d="M305 98q26 -2 42.5 -22t1.5 -43q-8 -13 -18.5 -18t-26 -2t-23.5 5.5t-25 9.5q-48 19 -99 24q-60 0 -116 20q-28 11 -33 40q-1 12 7 22.5t20 12.5q37 -1 72 -13q12 -3 43.5 -10.5t49.5 -11.5q52 -11 105 -14zM66 381q-10 -4 -20.5 -3t-17.5 11q-11 14 -6 27.5t15 22.5
t24 15t30 9.5t30.5 4t31.5 0.5h32q18 1 60 5q10 2 29.5 7.5t29.5 7.5q24 2 39.5 -7t16.5 -32q1 -34 -125 -44h-6q-60 -2 -118 -14q-7 -1 -22 -4.5t-23 -5.5zM45 229q-13 7 -20.5 19.5t-4.5 25.5t20 19q36 5 73 0q41 -2 83 1q4 0 19.5 2.5t26 4t26.5 2t27 -1.5t20.5 -8.5
t12.5 -17.5q7 -24 -7.5 -33.5t-40.5 -9.5q-63 -2 -125 -15q-57 -15 -110 12zM252 619q21 -18 8.5 -47.5t-44 -50.5t-45.5 -4q-16 20 14 78q25 48 67 24z" />
    <glyph glyph-name="Ecircumflex" unicode="&#xca;" horiz-adv-x="399" 
d="M309 67q2 -1 11.5 -2.5t12.5 -2.5l10.5 -3.5t10 -5l7 -7t7 -10.5t3.5 -14q-13 -29 -25.5 -39t-39.5 -1q-8 3 -25 12t-27 11q-1 1 -70 16q-18 4 -56 14.5t-59 14.5q-24 4 -44 20q-11 10 -17.5 24t-2.5 24q6 11 13 17t18.5 6t18.5 -1.5t23.5 -6.5t22.5 -7q7 -1 46 -10.5
t59 -16.5q51 -19 103 -32zM393 436q5 -19 -10.5 -30t-49.5 -11q-12 1 -34 1h-40t-34 1q-50 2 -100 -4q-4 -1 -17 -3t-22.5 -3t-21.5 -1t-20.5 4.5t-11.5 13.5q-7 12 -3.5 22t9 17t16.5 12t19.5 7.5t18.5 3.5q27 5 54 3q10 0 27.5 2t21.5 2q70 5 119 7q25 3 46.5 -9t32.5 -35
zM302 311q5 0 15.5 -1t18.5 -2t17.5 -3t15 -6t6.5 -11q3 -17 -7.5 -29.5t-30 -18.5t-38 -8t-36.5 -2q-121 2 -186 -1q-18 -1 -28 27q-5 17 3 33q19 18 46 23t67.5 1.5t53.5 -2.5q42 4 83 0zM181 521q-9 -9 -24 -11.5t-25 6.5q-5 7 -5.5 13.5t5 17.5t10.5 18.5t12 16.5t8 12
q39 69 77 35q16 -20 26 -42q4 -5 31 -43q12 -16 -5 -24t-32 -3q-7 2 -12.5 5.5t-11 10t-8 9.5t-9 12.5t-7.5 10.5q-13 -23 -30 -44z" />
    <glyph glyph-name="Edieresis" unicode="&#xcb;" horiz-adv-x="382" 
d="M298 90q3 -1 13.5 -2t15.5 -2t14.5 -3t14 -4t9.5 -5.5t6.5 -8.5t-0.5 -11q-6 -25 -18.5 -36.5t-38.5 -7.5q-9 2 -24 8t-22 8q-32 5 -64 6l-64 6q-9 1 -24.5 4.5t-23.5 4.5q-3 0 -14.5 1t-16.5 2t-14.5 3t-14.5 5t-10.5 8.5t-9.5 12.5q-6 11 -6 20t10 17q21 14 46 10
q89 -8 122 -15q108 -20 114 -21zM98 402q-2 -1 -16.5 -3t-21 -2.5t-17.5 0.5t-17 6.5t-8 15.5q-3 18 7.5 30t33.5 17.5t42.5 7.5t45.5 3t31 2h6q34 3 55 4.5t54.5 0.5t53.5 -9.5t26 -24.5q8 -20 -13 -30.5t-50 -7.5q-14 2 -52.5 0t-52.5 -2q-54 0 -107 -8zM263 292
q4 -1 18 -3t22 -4t16.5 -7t9.5 -12q5 -19 -8 -31t-34 -14.5t-43 -3.5t-35 2q-41 4 -95 5q-23 0 -46 4q-11 -2 -19 7q-1 2 -5.5 5.5t-7 7t-3.5 6.5q-4 21 12 37q15 11 35 12q42 3 83 -5q14 -1 48 -1.5t52 -4.5zM105 526q-4 3 -8 7.5t-7 7.5q-4 4 -5 8.5t1 13t2 9.5
q6 13 18.5 20t26.5 4q14 -2 24 -12.5t11 -24.5v-9t-0.5 -10.5t-2 -8t-5 -9t-7.5 -5.5q-26 -6 -48 9zM254 524q-14 2 -23.5 12.5t-9.5 24.5q2 15 12 25.5t25 13.5q26 6 42 -15q13 -19 3 -39q-4 -4 -8 -8.5t-7 -7.5q-4 -4 -9 -5.5t-14.5 -1t-10.5 0.5z" />
    <glyph glyph-name="Igrave" unicode="&#xcc;" horiz-adv-x="132" 
d="M104 156q0 -15 8 -53t4 -60q-5 -26 -31 -33t-44 13q-9 9 -12 21t-3 21t2.5 25.5t2.5 22.5q2 24 -0.5 68t-3.5 55q0 26 -4 73t-5 73t2 74q2 12 19.5 19.5t30.5 5.5q8 -1 13 -4t8 -8.5t5 -10.5t2.5 -13t0.5 -12.5t-0.5 -13.5t-1.5 -11q0 -19 3 -128q0 -32 3 -63t1 -61z
M86 510q-16 -4 -36.5 12t-33.5 34q-36 48 5 72q26 15 51.5 -13t28.5 -61t-15 -44z" />
    <glyph glyph-name="Iacute" unicode="&#xcd;" horiz-adv-x="129" 
d="M109 447q5 -22 -1.5 -60t-6.5 -53q3 -30 1 -60q-2 -32 -1 -64q0 -109 1 -128q0 -2 1 -11t1 -13.5v-12.5t-1.5 -13t-4.5 -10.5t-8 -8.5t-13 -5q-13 -2 -30.5 4.5t-19.5 19.5q-6 47 -5.5 73t3 73t2.5 73q0 11 1 62t-1 62q-1 6 -3.5 22t-3.5 25t2 21.5t11 20.5
q17 21 43.5 15t32.5 -32zM30 519l-3 3t-4.5 11.5t3.5 23.5q9 31 27 58q12 15 23.5 17.5t34.5 -10.5q13 -7 13 -21t-6.5 -25t-15.5 -22q-20 -21 -39.5 -32.5t-32.5 -2.5z" />
    <glyph glyph-name="Icircumflex" unicode="&#xce;" horiz-adv-x="132" 
d="M111 458q5 -26 -4 -51q-6 -40 1 -79q5 -73 -5 -145q-2 -13 0.5 -39t2.5 -37q-1 -12 -1 -36t-1 -36q0 -22 -18 -30t-36.5 1.5t-21.5 29.5q-3 27 3.5 77.5t6.5 69.5q0 22 -2 64t-3 62q-1 38 -11 75q-13 35 -8 72q14 31 47.5 31.5t49.5 -29.5zM143 539q12 -15 -3.5 -23.5
t-31.5 -4.5q-7 2 -13 5t-12 10t-8.5 9.5t-10 13.5l-7.5 11q-14 -23 -30 -44q-10 -9 -25.5 -11.5t-25.5 6.5q-5 7 -5 13.5t5.5 17.5t10.5 18.5t11.5 16.5t8.5 13q40 68 78 34q16 -20 27 -42q4 -6 31 -43z" />
    <glyph glyph-name="Idieresis" unicode="&#xcf;" horiz-adv-x="131" 
d="M103 218q1 -9 0 -33t0 -33q0 -9 7.5 -49.5t0.5 -63.5q-8 -26 -35 -30t-43 18q-7 8 -9 20.5t-1.5 21.5t3 24t2.5 21q3 13 1 60.5t-2 59.5q0 28 -3 76t-4 75.5t4 75.5q2 13 20 20t31 5q7 -2 12.5 -5t8 -8.5t4.5 -10.5t2 -13v-12.5t-1 -13.5t-1 -12q0 -13 1 -37t2 -29
q0 -11 -1 -33.5t-1 -34.5v-25t2 -34zM177 572q5 -17 -3.5 -33t-25.5 -21q-15 -7 -29.5 -3t-18.5 21q-5 15 0.5 30t18.5 23q13 10 33.5 5t24.5 -22zM10 594q19 -1 29.5 -19t4 -36t-27.5 -20q-46 0 -53 31q-5 21 10 33.5t37 10.5z" />
    <glyph glyph-name="Eth" unicode="&#xd0;" horiz-adv-x="456" 
d="M445 268q12 -26 7 -55q-2 -10 -11 -25.5t-12 -23.5q-3 -25 -18 -47q-20 -20 -45 -34q-46 -35 -102 -48q-59 -3 -110 -30q-49 -28 -68 6q-15 35 -15 73q-2 30 -6 131q-2 -1 -9 -1.5t-9.5 -0.5h-9t-9 0.5t-8 1.5t-8 2.5t-6 4t-5 6t-2.5 8.5t-1 11q1 16 8 23.5t15.5 7.5
t23.5 -2t23 -1q1 8 4.5 35t4.5 42q0 39 -7 77q-3 34 9 49.5t46 18.5q30 -2 59 -11q36 -10 71 -24q75 -25 122 -89q40 -48 68 -105zM297 117q40 21 65.5 58.5t14.5 76.5q-5 18 -17 35.5t-33 35.5t-32.5 27t-35.5 26q-1 1 -3 2q-87 63 -107 22q-7 -16 -7 -39.5t2.5 -42.5
t-0.5 -41q10 0 40 -0.5t47 -0.5q21 0 31 -7.5t11 -27.5q0 -15 -8.5 -22.5t-20.5 -7.5h-25q-40 2 -83 4q-2 -34 1 -68q-9 -70 41 -66q64 6 119 36z" />
    <glyph glyph-name="Ntilde" unicode="&#xd1;" horiz-adv-x="352" 
d="M107 510q-18 -4 -26 13q-9 16 -4 33.5t21 27.5q32 17 66 6q5 -1 16 -5t19 -7t18.5 -4t14.5 4q3 2 7.5 10t9.5 11q23 12 41 -6q12 -16 2 -37t-28 -29q-35 -16 -71 -3q-2 1 -9.5 3.5l-10.5 3.5t-9.5 2t-10.5 0.5t-9.5 -2t-9.5 -4.5q-1 -1 -9.5 -8.5t-17.5 -8.5zM331 63
q3 -13 3 -26q-1 -29 -29 -39q-24 -10 -43 7q-12 12 -18 27q-4 8 -6 10q-4 8 -14 24q-10 14 -18 29q-7 14 -25 42q-19 29 -33 61q-4 11 -11 34q-7 28 -20 54q-8 17 -16 17h-2q-13 -3 -11 -46q0 -14 2 -44q2 -22 3 -35q0 -11 2 -36q4 -39 3 -79q-2 -29 -27 -45q-15 -7 -29 2
q-11 6 -16 17.5t-4.5 24.5t0.5 27q1 14 1 27q-2 33 1 67l1 14q1 32 -3 64q-5 44 1 87q1 7 3 22q2 18 3.5 28t6 24.5t12 23t19.5 11.5q23 5 43.5 -12.5t30.5 -38.5q16 -32 36 -83q6 -16 20 -45q8 -17 9 -19q1 -3 5 -11q8 -28 30 -48q4 -5 10 -2q8 3 4 33q0 6 -2 18
q-2 17 -3 26q-3 36 -2 72v14v18q-3 46 10 91q13 27 43 29h1q19 1 26 -16q-11 -56 -7 -112v-9v-80v-40q0 -20 4 -61q2 -33 3 -50v-39q-1 -15 3 -29z" />
    <glyph glyph-name="Ograve" unicode="&#xd2;" horiz-adv-x="393" 
d="M379 316q9 -83 -10 -164q-21 -74 -86 -113q-62 -39 -135 -28q-47 9 -99 77q-65 83 -23 229q17 65 66.5 111t115.5 59q36 6 61 -7.5t58 -45.5q47 -50 52 -118zM222 83q17 6 30.5 16t23 25t15.5 27.5t10.5 33.5t6.5 33.5t5 35.5t4 32q-5 54 -42 93q-17 22 -44 30t-53 -2
q-80 -32 -93 -178q-5 -29 0 -57t25 -49q59 -59 112 -40zM155 541q-14 13 -23 31q-11 13 -9.5 27.5t23.5 27.5q35 20 62 -31q33 -64 8 -82q-14 -10 -39 10q-5 3 -8.5 5.5t-6 4.5t-7.5 7z" />
    <glyph glyph-name="Oacute" unicode="&#xd3;" horiz-adv-x="393" 
d="M340 383q46 -79 45 -171q0 -2 -2 -14l-2.5 -15t-2.5 -13.5t-3.5 -14.5t-4 -13t-5 -14t-6.5 -12t-8.5 -12.5t-9.5 -10.5q-52 -58 -129 -69q-68 -7 -119 38.5t-74 112.5q-25 68 1 135q24 56 59 106q40 42 96 56q27 11 55.5 7t51.5 -21q36 -32 58 -75zM315 201v1
q9 58 -11 113q-9 50 -55 71q-20 11 -35 15.5t-34 2t-35 -16.5q-37 -38 -53 -88q-7 -26 -5 -57t9 -59t27 -51.5t48 -34.5q29 -8 60 -6q27 0 46 19q31 41 38 91zM174 504q-2 1 -3.5 3t-4.5 10.5t3 22.5q6 29 22 55q11 15 22 17.5t33 -8.5q12 -7 12.5 -20t-5 -23.5t-14.5 -20.5
q-42 -50 -65 -36z" />
    <glyph glyph-name="Ocircumflex" unicode="&#xd4;" horiz-adv-x="375" 
d="M318 420q49 -53 48 -125q-3 -79 -33 -153q-23 -61 -78 -94q-19 -10 -31 -15t-28 -9.5t-32 -2.5t-32 10q-57 30 -90 84.5t-32 118.5q1 144 81 203q48 41 112 44q68 -9 115 -61zM285 186q0 6 4.5 35t5.5 40.5t1.5 36.5t-4 39t-15 31t-26.5 28q-44 32 -113 -7
q-24 -14 -34 -34.5t-17 -55.5q-26 -137 39 -187q37 -28 90 8q2 2 15 10t18 12t14.5 12t14.5 16t7 16zM162 524q-8 -17 -29.5 -26t-30.5 12q-3 8 7 24q11 18 28 46q5 9 9 14.5t10.5 12.5t12.5 10t14.5 2.5t17.5 -6.5q11 -7 20 -20t18 -30.5t15 -25.5q11 -15 -2 -26.5
t-27 -7.5q-6 2 -11.5 5t-11 9.5t-7.5 9t-8 12t-7 10.5z" />
    <glyph glyph-name="Otilde" unicode="&#xd5;" horiz-adv-x="390" 
d="M377 308q17 -70 -17 -134q-30 -52 -70 -97q-44 -37 -100 -45q-28 -7 -55.5 0t-48.5 27q-32 35 -49 80q-36 83 -24 173q0 2 3.5 13.5t4 14.5t3.5 13t5 14t5.5 12.5t7 13t8 11t9.5 11.5t11 10q57 50 133 52q69 0 114 -50.5t60 -118.5zM291 194q12 36 13 74.5t-16 76.5
t-52 56q-28 11 -58 13q-27 3 -47 -14q-36 -36 -49 -85q-15 -57 -1 -113q3 -50 46 -76q18 -13 32.5 -19.5t33 -6t36.5 12.5q40 33 62 81zM121 497q-17 -3 -25 12t-3.5 31.5t19.5 25.5q30 16 62 6q5 -1 20.5 -7t23.5 -7.5t19 2.5q2 3 6.5 10t8.5 10q22 11 39 -6
q11 -15 1.5 -34.5t-25.5 -26.5q-33 -15 -67 -2q-2 0 -8.5 2.5t-9.5 3t-9 2t-9.5 1t-8.5 -2t-10 -4.5q-1 0 -8.5 -7.5t-15.5 -8.5z" />
    <glyph glyph-name="Odieresis" unicode="&#xd6;" horiz-adv-x="401" 
d="M254 462q61 -28 98 -83t39 -122q4 -143 -82 -199q-52 -41 -119 -41q-74 11 -126 64q-53 51 -56 126q2 78 32 150q24 61 82 91q27 13 43.5 18.5t40.5 6t48 -10.5zM310 195q24 135 -47 186q-24 16 -52.5 16t-52.5 -15q-45 -23 -65 -70q0 -8 -3.5 -29.5t-4.5 -33t-2 -31.5
t2 -33.5t8 -29.5t16 -29t26 -23q29 -16 61.5 -15t60.5 19q26 13 36 33t17 55zM126 514q-4 3 -8 7.5t-6 6.5q-4 4 -4.5 8.5t1 12.5t1.5 9q5 12 17 18.5t25 3.5q13 -2 22.5 -11.5t10.5 -23.5v-7v-7.5t-1 -7t-2.5 -7.5t-4.5 -5.5t-6 -4.5q-25 -6 -45 8zM266 512q-14 2 -22.5 12
t-8.5 23q2 14 11.5 24t22.5 12q25 6 40 -13q13 -18 3 -37q-4 -4 -8 -8.5t-6 -6.5q-4 -4 -8.5 -5.5t-13.5 -0.5t-10 0z" />
    <glyph glyph-name="multiply" unicode="&#xd7;" horiz-adv-x="314" 
d="M244 206q2 -3 12.5 -12t15.5 -14.5t10.5 -14.5t5.5 -17q1 -25 -19 -30.5t-37 8.5q-41 40 -76 85q-15 -13 -41 -41t-30 -31q-11 -12 -27 -16.5t-28.5 3t-12.5 28.5q0 8 5.5 16.5t11 14t16 14.5t13.5 11q47 44 49 46q-39 36 -74 77q-18 25 -1.5 45.5t43.5 3.5
q13 -12 26 -26.5t28.5 -32.5t24.5 -28q13 11 44 41t50 44q12 4 24.5 -1t17.5 -17q7 -18 -15 -41q-14 -15 -45 -41t-35 -29q20 -22 44 -45z" />
    <glyph glyph-name="Oslash" unicode="&#xd8;" horiz-adv-x="444" 
d="M437 473q4 -4 1 -14l-4.5 -15t-8 -15t-9.5 -14.5t-10 -12.5t-9 -11q34 -77 23 -160q-1 -78 -47 -141q-33 -38 -79.5 -59.5t-98.5 -19t-91 34.5q-14 -27 -35.5 -42.5t-44.5 1.5q-40 30 31 93q-47 68 -36.5 156.5t64.5 150.5q52 61 129 80q38 9 75.5 -1.5t64.5 -38.5
q13 21 29 39q13 15 31.5 11.5t24.5 -22.5zM102 152q34 46 105 125.5t90 102.5q-29 37 -76 36.5t-75 -37.5q-48 -65 -51 -146q-8 -42 7 -81zM318 131q10 16 17 38t10 36t7 43t5 39q0 20 -11 36q-13 -14 -49.5 -52t-55.5 -60q-10 -13 -42 -51t-50 -59q40 -33 91 -24t78 54z
" />
    <glyph glyph-name="Ugrave" unicode="&#xd9;" horiz-adv-x="358" 
d="M341 461q7 -9 8 -22.5t-1.5 -25t-5.5 -27t-4 -23.5q0 -65 -13 -129q-4 -22 -4 -46q-3 -32 -16 -63q-11 -53 -39 -100q-18 -25 -51.5 -30.5t-66 4.5t-53.5 29q-36 38 -40 90q-5 22 -15 63.5t-14 58.5q-14 67 -15 135q0 2 -0.5 22.5t0 30t3.5 24.5t10 23q16 13 37.5 12.5
t38.5 -14.5q7 -7 9 -18t1.5 -18t-4.5 -22.5t-5 -18.5q-8 -51 1 -101q1 -23 5 -45q12 -27 16 -56q1 -81 22 -101q19 -14 41.5 -12t38.5 18q27 37 27 83q5 60 3 121q0 11 2.5 36t2.5 38q-6 31 0 62q7 26 34 33.5t47 -11.5zM147 526q-13 13 -22 29q-10 13 -9 26.5t22 25.5
q32 18 58 -30q31 -61 8 -77q-13 -9 -36 10q-5 3 -8.5 5t-5.5 4z" />
    <glyph glyph-name="Uacute" unicode="&#xda;" horiz-adv-x="339" 
d="M146 499q-2 0 -3.5 2t-4.5 11t3 23q6 31 23 58q12 15 23 18t34 -9q13 -7 13.5 -20.5t-5.5 -24.5t-15 -21q-18 -22 -37 -33.5t-31 -3.5zM329 429q0 -36 -9 -71q-5 -38 -6 -77q1 -69 -17 -136q-6 -30 -18 -59q-4 -8 -13 -22t-13 -20q-32 -46 -88 -45q-44 -11 -76 21
q-27 35 -34 78q-11 47 -19.5 134.5t-14.5 122.5q-10 56 -11 60q-3 11 -3.5 16t0.5 13.5t7 14.5q15 13 32.5 8.5t30.5 -19.5q10 -13 12 -30.5t0.5 -40t-0.5 -33.5q2 -18 10 -50.5t10 -46.5q2 -10 2 -46t5.5 -62.5t21.5 -38.5q19 -10 36.5 -2.5t30.5 23.5q34 45 28 101
q-1 15 1.5 44t2.5 42q-5 57 -5 113q0 46 40 69q15 4 25.5 1t17.5 -15t10 -23.5t4 -23.5z" />
    <glyph glyph-name="Ucircumflex" unicode="&#xdb;" horiz-adv-x="377" 
d="M365 457q8 -53 1 -106q-6 -62 -24 -121q-13 -42 -34 -120q-8 -50 -46 -83q-24 -17 -58 -26t-68.5 -1.5t-52.5 32.5q-27 49 -38 104q-12 32 -15 65q1 24 -2 47q-12 66 -10 132q0 9 -4.5 31.5t-4.5 39.5t10 29q22 19 50 10.5t36 -36.5q4 -31 -3 -63q-1 -13 1 -37.5t2 -35.5
q-1 -8 -3 -47.5t-2 -60.5t6 -50.5t19 -48.5q16 -18 39 -23t44 6q13 7 19.5 23t9.5 41t5 32q2 8 9 27t9 30q2 9 3.5 25t1.5 22q11 56 11 112q-1 10 -0.5 21.5t2.5 22t8 19.5t17 13q18 10 37 2t25 -27zM165 529q-6 -11 -23 -20.5t-32.5 -7t-16.5 20.5q0 6 3 11.5t9.5 13
t7.5 8.5q6 8 17 25t18 26t11 13t11.5 8.5t16.5 5.5q28 2 42 -22q6 -10 21.5 -35.5t24.5 -39.5q10 -15 -4.5 -26.5t-30.5 -8.5q-7 2 -13.5 5.5t-12.5 11t-9 11.5t-9.5 14.5t-7.5 12.5q-9 -11 -23 -27z" />
    <glyph glyph-name="Udieresis" unicode="&#xdc;" horiz-adv-x="346" 
d="M333 479q6 -8 6.5 -17.5t-3.5 -24t-5 -19.5q-1 -10 -11 -81q-4 -30 -10.5 -100.5t-12.5 -108.5q-17 -110 -76 -122q-49 -7 -94 11q-13 7 -20 14.5t-14 20.5t-12 20q-22 37 -34 78q-16 40 -17 83q-2 19 -4 54.5t-3 48.5q-3 27 -9 54q-7 19 -7 40q0 2 0.5 10.5t1 12t2.5 10
t5 11t8 8.5q13 10 30 8q58 -6 58 -86q-3 -69 0 -138q3 -23 2 -42t1.5 -42t10.5 -41q7 -14 19.5 -26t28.5 -16.5t31 7.5q6 4 10 11.5t6.5 13.5t4 17t1.5 15.5t0.5 17.5t0.5 14q3 57 15 113q9 32 10 64q0 9 -2 26t-2 31t5 25q10 23 35 34t44 -9zM245 513q-15 -6 -29 1.5
t-17 23.5q-6 29 23 45q28 15 43 -3q5 -6 7 -14q3 -11 2.5 -19t-7.5 -17q-8 -13 -22 -17zM110 510q-24 2 -32 22.5t3.5 40.5t36.5 19q24 0 33 -22t-3 -42.5t-38 -17.5z" />
    <glyph glyph-name="Yacute" unicode="&#xdd;" horiz-adv-x="311" 
d="M318 474q3 -13 -14.5 -44t-19.5 -35q-6 -19 -19.5 -52t-18.5 -47q-14 -50 -34 -98q-24 -43 -44 -89q-14 -40 -29 -80q-1 -1 -4.5 -11t-4.5 -13t-5 -10t-8 -9.5t-10.5 -5t-13.5 -2.5q-28 0 -37.5 24.5t2.5 46.5q29 46 48 97q5 25 -2.5 52.5t-20.5 47.5t-27 47t-18 48
q-3 10 -10 24.5t-13 26t-11.5 27t-5.5 27t6 25.5q12 22 26.5 24t27 -12t21.5 -28.5t15 -28.5q8 -18 15.5 -52t11.5 -46q15 -48 38 -31q5 4 9 10.5t6.5 11.5t5.5 14t5 12q5 12 17 39.5t18 41.5q2 5 7 21.5t10 26t14 16.5q15 14 39 10t28 -26zM195 609q20 -17 7.5 -45.5
t-43 -49t-43.5 -3.5q-15 19 14 75q25 46 65 23z" />
    <glyph glyph-name="Thorn" unicode="&#xde;" horiz-adv-x="380" 
d="M375 297q14 -38 -11 -81.5t-63 -64.5q-41 -20 -85 -33q-45 -8 -89 -24q-14 -7 -18 -22t-1.5 -30t1.5 -32t-11 -28q-13 -11 -30.5 -11t-30.5 12q-21 17 -13 43q2 27 2 58.5t-1 69.5t-1 59q0 35 2 103t3 100v7v14t0.5 15t1.5 16t3 14t5 13t7.5 10t10 7t13.5 2t18 -3
q24 -8 26 -48q0 -4 -1 -14t-0.5 -18t4.5 -13q6 -7 19.5 -10t31.5 -3.5t22 -1.5q37 -7 73 -19q91 -32 112 -87zM290 231q20 27 -29 70q-41 39 -98 37q-19 1 -33 -12t-15 -32q-11 -61 -2 -123q7 2 40.5 9t55.5 12.5t47 16t34 22.5z" />
    <glyph glyph-name="germandbls" unicode="&#xdf;" horiz-adv-x="357" 
d="M350 161q18 -43 -17 -81t-81 -50q-57 -18 -107 15q-15 11 -10.5 37t25.5 28q4 0 8 -1.5t6 -2.5t6.5 -5t5.5 -5q16 -15 37 -11q22 3 37 12t20 24t-8 36q-27 36 -66 59q-17 12 -26 30q-3 6 -7 23.5t0 18.5q-3 33 21 80.5t28 69.5q1 13 -8 21t-17.5 10.5t-24.5 5.5
q-3 1 -4 1q-20 6 -37 2.5t-27 -21.5q0 -15 -6.5 -44.5t-6.5 -45.5q0 -8 0.5 -40t-0.5 -39q-2 -25 2 -70.5t4 -64.5v-12v-15t-0.5 -15.5t-1.5 -17t-2.5 -16t-4 -16t-6 -13t-8.5 -10.5t-11 -7q-7 -3 -13.5 -3.5t-11 2t-8 5.5t-5.5 8.5t-3.5 10.5t-2 12.5t-0.5 13t0.5 13.5
t0.5 12.5t1 11.5q1 6 1 8q5 69 2 137q0 6 -1 25t-1 29q0 9 3 27.5t3 28.5q0 7 -2 32.5t-1 36.5t9 28t25 29q85 62 151 33q21 -9 32.5 -15t28.5 -18t23.5 -27t3.5 -33q-9 -42 -35 -76q-2 -2 -10 -13.5t-11.5 -17.5t-7 -15.5t-1.5 -18.5q2 -8 5.5 -15t11 -15t10 -10.5
t15 -12.5l12.5 -10q41 -29 63 -73z" />
    <glyph glyph-name="agrave" unicode="&#xe0;" horiz-adv-x="624" 
d="M606 160q6 -19 3 -39q-5 -20 -26.5 -30t-46.5 -10h-49q-23 1 -28 0q-11 0 -36 -2q-34 -4 -51 -4h-8.5h-9.5h-8q-26 1 -51 -2q-29 -3 -58 -1t-57 -1l-25 -5q-39 -8 -79 -9q-22 0 -44 6q-24 7 -33 30q-6 16 5 30q8 9 21 11q4 0 8 3q6 11 7 24q2 7 3 10q12 41 29 125
q10 46 16 73q1 7 5 19q11 37 11 75q0 4 -1 13q-4 12 -0.5 27t21.5 23q14 7 29 0q20 -10 33 -67q3 -11 5 -16q5 -15 12 -41q13 -47 31 -93q10 27 37 81q13 30 21 45q13 30 21 62q2 9 1 19q-1 19 9 34q18 22 34 17q28 -7 40 -77q13 -70 38 -138q30 52 78 145q4 9 6 18
q3 12 5.5 18.5t9.5 14t18 9.5q11 3 20.5 -2t13.5 -15q13 -29 11 -61v-8q1 -40 -4 -121l-1 -10q-3 -55 3 -110q3 -32 8 -57q0 -4 3 -13zM534 155v12q-1 16 -4 32l-3 15q-8 66 -3 132q1 29 2 43q-2 -3 -5 -9t-5 -9q-27 -50 -36 -68q-2 -3 -6 -13q-6 -12 -9.5 -19.5t-10.5 -18
t-15.5 -15t-18.5 -2.5q-12 1 -21 14t-12 24t-7 30q-3 13 -5 17q-4 15 -12 44q-9 34 -15 52q-6 -15 -19 -45q-21 -48 -31 -75q-1 -4 -6 -19q-5 -18 -8.5 -28t-10.5 -25t-16 -22.5t-21 -7.5h-1q-12 0 -21 9t-12.5 17.5t-8.5 24.5q-3 11 -8 21q-18 33 -28 69q-4 15 -7 24
q-1 -5 -2.5 -14.5t-2.5 -11.5q-9 -56 -13 -80q-5 -25 -18 -74q-9 -32 -13 -48q64 5 127 17q14 3 29 -1q6 -2 10 -2q17 -2 33 0q8 1 12 1q13 1 41 0q23 -1 45 1h2q59 7 117 8h7q5 -1 10 0z" />
    <glyph glyph-name="aacute" unicode="&#xe1;" horiz-adv-x="407" 
d="M405 119q9 -23 -1 -45q-9 -11 -24 -12q-22 -5 -45 0q-7 2 -15 2q-11 1 -15 6.5t-7 16.5q-4 15 -12 29q-8 12 -12 26q-1 7 -13 21q-5 6 -15 19q-19 27 -26 27q-5 -1 -9 -5q-20 -27 -37 -56q-20 -34 -32 -52q-27 -37 -39 -81l-3 -10q-8 -23 -28 -46t-37 -23q-1 -1 -2 0
q-13 1 -19 9t-12 24l-2 5q-3 9 -5.5 19.5t0.5 28t16 25.5q6 4 15 8q18 6 26 23q28 58 65 110q32 42 53 90q6 14 -12 40l-4 7q-15 18 -23 41q-15 41 -42 74q-6 7 -11 16q-5 8 -12 19q-8 10 -10 23q-1 1 -2.5 1.5t-2.5 0.5q-18 7 -25 26q-6 13 1 25q8 15 24 19.5t30 -4.5
q19 -10 32 -27q11 -13 25 -24q29 -19 39 -52l2 -4q7 -20 21 -36q5 -6 9 -12t6 -8q3 5 6 11q6 13 15 25q1 4 7 18q14 32 23 65q6 36 22 69q5 17 18 28q22 15 49 15q16 -2 22 -17q3 -12 0 -23q-3 -27 -13 -53q-7 -16 -22 -44q-15 -27 -21 -41q-4 -9 -13 -27q-20 -39 -35 -81
q-1 -10 -3 -19q-6 -13 -3 -27t14 -23q21 -22 40 -46q14 -19 31 -35q37 -26 51 -69q1 -4 2 -10z" />
    <glyph glyph-name="acircumflex" unicode="&#xe2;" horiz-adv-x="427" 
d="M562 705q8 -13 0 -27l-1 -2l-1 -1t-2.5 -3t-4 -4.5l-5.5 -5.5t-6 -6.5l-6 -7t-6.5 -7t-7 -7.5t-6.5 -7q-37 -41 -65 -87q-45 -86 -100 -164q-108 -137 -131 -173q-6 -11 -41 -57q-27 -32 -49 -68q-31 -51 -68 -98q-2 -3 -17 -22q-14 -18 -24 -30q-16 -19 -27 -41
q-13 -16 -34 -20q-8 -2 -16 -2q-9 -1 -17 4q-11 10 -11 25q0 35 27 58q39 35 70 76q39 49 46 61q9 14 16 29q6 17 18 31q2 1 5 3q22 16 34 40l4 6q15 31 39 56q11 11 59 74q27 35 36 48q49 65 90 136q15 25 34 48q18 20 30 44q18 38 40 74q10 18 28 29t39 12q19 1 31 -14z
" />
    <glyph glyph-name="atilde" unicode="&#xe3;" horiz-adv-x="452" 
d="M490 -35q13 -16 24.5 -40.5t7.5 -33.5q-3 -7 -9 -11t-8 -4.5t-11 -2.5q-15 -3 -26 7l-9 11l-1.5 2t-4.5 6.5t-6.5 9.5t-8 12t-8.5 14q-30 46 -68 86q-63 68 -118 143q-94 141 -122 175q-9 10 -41 56q-23 34 -49 66q-39 43 -72 92q-3 5 -8.5 13.5t-6.5 9.5q-13 20 -21 31
q-13 21 -30 38q-14 14 -13 33q-1 12 5 22q7 5 15 9q6 5 31 -2q12 -3 17.5 -9t18.5 -26q10 -14 27.5 -45t26.5 -43q34 -51 42 -61q24 -24 43 -51q13 -27 32 -49l5 -4q24 -24 40 -54q7 -14 52 -77q23 -33 34 -49q44 -66 96 -126q19 -22 35 -47q16 -22 36 -39q29 -29 53 -62z
" />
    <glyph glyph-name="adieresis" unicode="&#xe4;" horiz-adv-x="532" 
d="M532 88q6 -16 -3.5 -31.5t-27.5 -17.5q-35 -8 -63 37q-9 21 -28 33q-18 14 -56.5 50.5t-60.5 52.5q-13 9 -17 11.5t-13 4.5t-17.5 -3t-21.5 -17q-28 -21 -58 -40q-35 -28 -65 -61q-65 -72 -87 -44q-5 10 -6 19t5 21t13 22.5t17.5 22.5t19 21t17.5 18t12 13q24 27 54 47
q2 2 10 6.5t14.5 9t7.5 8.5q-23 26 -55 39q-15 8 -35 17t-33 15q-24 9 -37.5 31.5t-9.5 47.5q2 13 9 19t18 4t21 -5.5t23.5 -12t19.5 -12.5t14 -10q10 -8 27.5 -21.5t31.5 -23.5q2 -1 11.5 -7.5t13.5 -9t13 -8t15 -7.5t14 -4t14.5 -1.5t11.5 3.5q22 13 40 32q3 4 16 17.5
t19 21.5q29 44 68 78q22 19 38 15t30 -30q12 -23 -5 -46.5t-66 -61.5q-10 -7 -27 -27t-23 -26q-2 -2 -7.5 -7t-7 -6.5t-4.5 -5.5t-2.5 -7t2 -8t6.5 -10q29 -33 63 -61q30 -27 66 -45q43 -17 61 -60z" />
    <glyph glyph-name="aring" unicode="&#xe5;" horiz-adv-x="273" 
d="M252 379q0 -8 -3 -100q-3 -135 -2 -146q2 -30 2 -44q0 -6 -1 -13q-2 -14 -17 -18h-1q-10 -5 -21 -5q-6 0 -11 2q-27 7 -24 66v2q2 41 2 248v5q2 37 -5 73q-7 30 12 55q11 11 25 9q5 0 10 -2l3 -1q11 -2 20 -10q1 -1 3 -2q4 -2 5.5 -7.5t1.5 -23.5q0 -71 1 -88zM93 188
q0 -3 3 -64q1 -20 1 -24q1 -19 -9 -34l-1 -1q-11 -14 -30 -12q-13 -1 -21 10q-18 24 -13 53q0 12 1 34q2 33 2 46l-0.5 24t-1.5 58t-1.5 69t-1 62.5t-0.5 33.5v2q-4 60 23 67q17 4 32 -3l2 -1q9 -3 13 -23l1 -3q1 -6 1 -13v-6q2 -15 0 -30q-1 -12 0 -154v-91z" />
    <glyph glyph-name="ae" unicode="&#xe6;" horiz-adv-x="673" 
d="M655 102q13 -14 7 -31q-10 -22 -34 -25q-5 -1 -9 -1q-13 0 -25 3q-6 1 -10 2q-10 2 -21 2q-14 1 -21 2q-36 1 -70 1q-78 0 -115 2q-113 7 -227 -4q-16 -4 -40 -1t-37 19q-13 14 -8 32q-1 6 -2 13q0 3 -1 17q0 21 -1 30q-1 17 -5 33q-3 15 -4 29q-11 129 -20 185
q-3 20 3 40q5 9 15 13l2 1q4 3 8 3q9 2 17 -3q10 5 18 -2q5 -4 9 -8q1 -1 9 -11q11 -14 15 -20q10 -10 21 -19l18 -16q20 -24 94 -101q0 1 4 6q9 13 15 27q5 12 12 24q5 7 45 72t44 72q8 17 24 27q10 2 19 -2h3q4 -1 7 -4q6 -1 12 -3q13 -2 16 -15q1 -6 1 -11q1 -4 0 -15
v-24q0 -14 3 -28q2 -12 3 -24q0 -8 4 -83q5 9 11 16q76 99 95 129q10 15 26 23q10 0 19 -4l3 -1q3 -2 7 -5q7 -6 10 -16q4 -5 6 -12l2 -14v-18q-1 -19 -1 -31q1 -18 4 -36q3 -15 4 -31q0 -10 5 -98t6 -98q1 -2 1 -4zM540 117l38 -1v5q-2 130 -7 190l-5 41q-50 -65 -59 -77
q-20 -30 -31 -47v-1q-27 -40 -46 -38h-3q-13 -2 -22 7q-15 22 -12 48q-1 102 -4 148l-2 15q-58 -88 -68 -106q-19 -34 -29 -53l-1 -1q-27 -52 -50 -44l-2 2h-1q-22 9 -35 27q-65 78 -100 113l-21 20q8 -114 12 -141q6 -42 9 -65l1 -1q3 -18 3 -35q7 0 25 -1q21 -2 29 -2
q10 0 39 1t45 1q34 -1 92 -3q12 0 34 -1t33 -1q22 -1 68 0q27 1 41 1q15 0 29 -1z" />
    <glyph glyph-name="ccedilla" unicode="&#xe7;" horiz-adv-x="421" 
d="M404 106q3 -21 1 -42q-3 -18 -12.5 -26t-21.5 -5q-23 -9 -47 -6q-114 7 -167 6q-39 -2 -61 -3q-51 -3 -61 15q-9 6 -13 19.5t-3.5 25t2.5 29t2 22.5q3 92 2 133q-1 18 -2.5 59t-1.5 63q-2 21 2 42q1 18 17 28q4 4 11 5q5 1 11 1q3 0 9 -0.5t16 -1.5t19 -2q11 0 30 2
t28 1.5t86.5 -1.5t86.5 0q19 1 35 -7q5 -5 7 -12q9 -10 11 -25.5t0.5 -39t-1.5 -26.5q2 -91 5 -133q1 -18 5 -58.5t5 -62.5zM87 124q13 17 17 22q9 12 23 35t21 33q72 99 135 192q-103 5 -126 4q-40 -1 -61 -2l-3 -0.5t-5 -0.5v-4t-0.5 -4.5t-0.5 -3.5q-4 -80 -4 -97
q0 -20 3.5 -66.5t2.5 -71.5q-1 -12 -2 -36zM334 103h1q0 79 -1 97q-1 20 -7 66t-6 72v17q-100 -133 -132 -181q-30 -46 -46 -71q-4 -7 -7 -11q14 2 28 2q9 0 81.5 -1t88.5 -1v11z" />
    <glyph glyph-name="egrave" unicode="&#xe8;" horiz-adv-x="422" 
d="M397 236q0 -19 2 -59.5t2 -62.5q2 -21 -2 -42q-2 -18 -17 -28q-5 -5 -11 -6h-12q-3 0 -9 0.5t-15.5 1.5t-18.5 1q-11 1 -30.5 -1t-28.5 -1.5t-87 1t-87 0.5q-19 -2 -35 7q-2 1 -3 3q-6 0 -11 3q-11 6 -15 20t-3 26t3.5 30.5t2.5 23.5q5 89 5 133q0 19 -0.5 59.5
t-0.5 62.5q-1 22 3 43q3 15 15 25l4 2q23 10 48 7q115 -7 168 -6q40 1 61 2q51 3 62 -14q9 -6 12.5 -19.5t3 -25.5t-2 -29.5t-1.5 -22.5q-3 -92 -2 -134zM257 417q-24 1 -143 2l12 -12q22 -27 85 -99q16 22 21 29q30 46 46 71q3 5 7 11q-14 -2 -28 -2zM90 142q1 1 2.5 3.5
t2.5 3.5q24 32 82 112q-54 58 -85 92q-2 -21 -2 -44q-1 -21 1.5 -67.5t0.5 -71.5q0 -1 -2 -28zM264 99q36 2 58 3q-2 3 -13.5 17t-19.5 24q-10 12 -30 30.5t-28 27.5q-1 1 -14 16q-69 -97 -80 -114q105 -4 127 -4zM337 174q1 18 1 38q0 21 -3.5 67.5t-2.5 71.5q1 13 2 36
q-9 -12 -17 -22q-9 -12 -23 -35t-21 -33q-1 -1 -3.5 -5t-8.5 -12t-11 -15q23 -25 30 -33q36 -37 57 -58z" />
    <glyph glyph-name="eacute" unicode="&#xe9;" horiz-adv-x="436" 
d="M421 20q7 -22 5 -49.5t-21 -43.5q-17 -14 -34.5 -11t-24.5 23q-3 -3 -8 -4q-20 -5 -39 4q-15 2 -17 17q-2 7 -2 14v2q-13 0 -25 5q-10 2 -15 11h-6q2 -25 -22 -34q-19 -6 -39 1q-15 2 -19 16l-2 14v11t0.5 17t-0.5 23v1v2q-3 -2 -6 -3q-10 -3 -19 -2q-15 -1 -28 3
q-16 2 -21 18q-2 8 -3 15q-1 4 -2 23q-14 -1 -28 4q-14 4 -18 15q-2 6 -2 12q0 3 0.5 9t1.5 16t1 19q1 12 -2.5 31.5t-3.5 28.5t-2 88.5t-3 88.5q-1 13 3 25q-1 5 -1 6q-6 24 1 47q10 12 24 18q4 2 9 3q6 1 11 0q-3 17 -4 20q-9 17 -1 35.5t27 21.5q5 3 10 3q15 5 28 -5
q18 -19 20 -45q10 9 22 13v2v2q-4 22 5 43q11 10 25 14q5 2 10 3q16 3 28 -8q20 -28 17 -61q0 -14 2 -51q0 15 -1 19q-2 21 9 40q12 9 26 13q5 2 10 2q9 0 17 -3q-1 30 -1 39q0 5 -1 12t-1 10.5t1 9t4 9.5t9 9q20 16 43.5 6t26.5 -35q1 -11 1.5 -13t-1.5 -9t-3 -13
q-1 -9 -1 -26.5t-1 -26.5q0 -21 4.5 -103.5t5.5 -127.5q-1 -142 21 -283z" />
    <glyph glyph-name="ecircumflex" unicode="&#xea;" horiz-adv-x="577" 
d="M552 354q-5 -2 -11 -4q-3 0 -23 -2q4 -5 6 -12q5 -19 0 -39q0 -13 -12 -20q-4 -2 -10 -3q-2 -1 -7 -1.5t-13.5 -1t-16.5 -1.5t-16 -4q8 -1 14.5 -7t7.5 -15q3 -11 1 -22q2 0 8 1.5t9 1.5q16 8 36.5 5.5t31.5 -21.5q10 -18 6.5 -36.5t-19.5 -23.5q-31 -8 -63 -6
q33 -7 36 -30q3 -20 -7 -38q-6 -14 -18 -16q-6 0 -13 1q-3 0 -9.5 1.5t-17 4t-20.5 4.5q-12 3 -32.5 2.5t-31.5 1.5q-9 1 -94.5 12t-95.5 12q-21 0 -37 13q-2 3 -3 6q-16 -1 -23 -1q-5 0 -24 -1t-29 -1q-2 -1 -9.5 -1.5t-11.5 -0.5t-10 0.5t-10.5 4t-7.5 9.5q-11 19 -4.5 40
t27.5 29q8 3 17 2q-5 11 -7 23q-1 5 -1 10q0 6 1 12q-7 1 -13 6q-7 12 -10 25q-1 5 -1 10q-2 15 6 28q17 19 43 17h5q-3 2 -5 4q-6 12 -7 26q-2 5 -2 10q-1 15 6 28q16 18 39 13h3q0 2 1 3q16 21 42 22h5q-3 7 -4 14q-43 0 -50 -1q-21 -2 -39 9q-8 12 -11 26q-1 5 -1 10
q-2 16 9 28q27 18 58 12q130 -7 189 -5q45 3 69 5q14 1 21 1q45 9 51 -19q2 -9 2 -18v-2q-1 -2 -1 -4q0 -4 -1 -7q0 -3 -2 -8q-1 -9 -7 -16l13 1q9 0 20 1t21.5 -5t13.5 -20v-9q49 14 57 -13q6 -20 0 -39q-1 -15 -14 -21z" />
    <glyph glyph-name="edieresis" unicode="&#xeb;" horiz-adv-x="575" 
d="M374 499q-2 0 -9.5 -0.5t-10.5 0t-8 3t-8 7.5q-12 20 5 38q27 7 55 7h48q16 0 67 -4q32 -2 29 -40q-2 -30 -1 -61q1 -17 2.5 -22t2.5 -22q2 -63 -38 -61q-5 1 -8 4.5t-5 11.5t-3 15t-1 19v17.5v17t1 12.5q1 20 -3 40q0 5 -1 11q0 8 -1 9.5t-6 0.5h-11q-16 0 -48.5 -1.5
t-47.5 -1.5zM189 560q20 0 38.5 -13.5t-1.5 -31.5q-8 -7 -14.5 -8.5t-15.5 0.5t-17 1q-17 -2 -49 -4t-37 -2q-2 -1 -6.5 -1t-5.5 -0.5t-4 -1t-4 -2t-2.5 -4t-3.5 -5.5q-4 -18 -1 -36v-18t1 -12t1 -18q5 -24 -6 -45q-9 -10 -22.5 -9.5t-20.5 12.5q-4 6 -5.5 13t-0.5 19t1 16
v9.5v10.5q1 38 2 60q-3 26 7 50q4 6 10.5 8.5t10.5 2.5t13 -0.5t10 -0.5q30 -1 59 3q31 7 63 7zM190 109q2 0 7.5 0.5t8 0.5t6.5 -1t7 -3t5 -6q11 -19 -5 -34q-25 -7 -52 -6q-31 -1 -46 -0.5t-63 3.5q-30 2 -27 36q2 27 0 55q0 16 -1.5 20t-2.5 21q-2 56 36 54q4 0 7.5 -3.5
t5 -11t2.5 -13.5t1 -16.5v-16v-16v-10.5q-1 -19 2 -37q0 -4 1 -10q0 -7 1 -8t6 -1q5 1 10 1q15 0 45.5 1t45.5 1zM560 136q0 -3 0.5 -11t0.5 -13t-1.5 -11.5t-4.5 -11.5q-15 -18 -38 -15q-30 -1 -59 -6q-31 -7 -62 -9q-18 0 -33.5 10t-6.5 29q5 10 13 13t23 3.5t20 0.5
q16 3 39 1.5t38 0.5q10 1 13.5 4.5t6.5 13.5q3 16 0 33q-1 11 -1.5 18t-2 15.5t-2.5 17.5q-6 22 4 41q9 10 22 10t21 -10q5 -5 6.5 -11.5t1 -17.5t-0.5 -14q0 -9 1 -13.5t1 -13.5q1 -32 1 -54z" />
    <glyph glyph-name="igrave" unicode="&#xec;" horiz-adv-x="595" 
d="M589 82q1 -13 -7 -24t-21 -16q-13 -7 -26 -0.5t-15 21.5q-1 7 -3.5 23.5t-5.5 24.5q-2 9 -7 24.5t-7 22.5q-2 8 -4.5 24t-5 24.5t-5 24.5t-4.5 24q-2 7 -7 22.5t-7 23.5q0 -7 -1.5 -21.5t-2.5 -22.5t-0.5 -23t0 -22.5t-3 -22.5t-3.5 -22q0 -8 -2 -23t-3 -22
q-2 -32 -25 -36q-14 -2 -29.5 4.5t-14.5 12.5v22.5v20.5q1 5 1.5 20t0.5 23.5t-1 23.5t-1 20q0 7 1.5 21.5t1.5 21.5q-1 9 -2.5 24t-2.5 20q0 -4 -6 -49q-2 -9 -5.5 -27t-3.5 -21q-3 -13 -11 -48q1 -8 4 -22.5t4 -22.5q-1 -21 -16 -35q-14 -17 -35 -13q-20 8 -22 29
q-1 2 -5 18.5t-5 25.5q-1 8 -1.5 23t-1.5 21q0 8 0.5 23t0.5 21q0 7 -3 22t-3 22q-1 7 -2 23.5t-2.5 24.5t-7 23.5t-6.5 22.5q0 -1 -1 -3t-1 -3q0 -6 2 -20t2 -21q0 -5 1 -19.5t2 -22.5q0 -6 1 -20t1 -21t-1.5 -21t-0.5 -21q0 -7 -0.5 -21t-0.5 -20l0.5 -20.5t-0.5 -20.5
q0 -16 -42 -23q0 -3 -1 -13t-1 -15q0 -38 -24 -41q-14 -2 -30.5 6.5t-17.5 15.5v24v22q0 8 2 23.5t2 23t-2.5 23t-2.5 23.5t1.5 23.5t1.5 22.5v25.5t-1 24.5q0 9 -4.5 25t-5.5 24t-1.5 26t-1.5 27q-1 -8 -5 -24t-5 -23.5t-0.5 -22.5t-0.5 -22.5t-5 -22t-5 -22t0.5 -22.5
t0.5 -22.5t-3.5 -22.5t-3.5 -22.5t-1.5 -22.5t-1.5 -22.5t-4 -22t-4 -22t-4.5 -22t-4.5 -22t-0.5 -22.5t-0.5 -23q-2 -19 -11 -29.5t-20 -11.5q-14 -2 -29.5 9.5t-14.5 20.5q1 8 4 23t4 23t3.5 23.5t3.5 23t3.5 23t3.5 23t0.5 23.5t0.5 23.5t5.5 23t5.5 23t1 23.5t1 23.5
t4.5 22.5t4.5 23t0 24t0 23.5t4 23t4 23t3.5 23t3.5 23t2 23.5t2 23.5t2 23t2 23.5t6 23t6 23q3 29 26 32q25 4 41 -17q2 -8 6.5 -18t5.5 -14q6 -15 10 -31q5 4 22.5 -2.5t24.5 -6.5q0 9 9 17.5t22 11.5q29 9 35.5 -15.5t6.5 -25.5q3 14 8 34q3 9 28 17q0 2 3 6.5t4 7.5
q4 29 27 33q14 2 27.5 -3.5t15.5 -13.5q3 -9 6.5 -25.5t4.5 -19.5q0 6 9 13.5t21 10.5q14 4 26 2t14 -8q1 -8 5 -22.5t5 -21.5q2 -8 5.5 -24t4.5 -20q2 -7 3.5 -22t3.5 -22.5t6.5 -21.5t5.5 -21q2 -8 4.5 -22.5t4 -22t8 -21.5t8.5 -21q1 -8 4 -22.5t5 -21.5q1 -8 2 -23
t2.5 -22t7.5 -21t8 -22q1 -9 3 -24.5t3 -20.5q1 -8 2.5 -24.5t1.5 -20.5z" />
    <glyph glyph-name="iacute" unicode="&#xed;" horiz-adv-x="620" 
d="M605 34q14 -25 -3 -47q-15 -15 -36 -22q-13 -1 -24 5.5t-17 18.5q-9 16 -13 33q0 17 2 33q-14 -14 -32 -22q-19 -10 -40 -15q-7 -1 -18 1.5t-11 10.5q-2 21 1 43q-2 -2 -16.5 -14t-22.5 -18q-21 -14 -44 -25q-23 -9 -48 -15q-6 -2 -16.5 -3t-21 2.5t-8.5 12.5q7 25 22 45
q-3 -4 -11 -12l-12 -12q-3 -3 -11.5 -12t-13.5 -13q-15 -9 -31 -16q-4 -2 -14 -8.5t-16 -9.5q-22 -9 -46 -12q-25 -5 -45 11q-21 22 -13 52q1 29 11 57q16 26 36 48q-19 1 -35 9q-24 17 -33 44q-13 25 -12 53q-10 27 0 54q7 27 19 53q14 23 31 45q2 2 14.5 20.5t19.5 27.5
q-11 4 -22 10q-21 14 -30 37q-7 24 -1 48q4 24 15 45q5 17 14 32q12 13 30 15q20 1 27 -11.5t0 -23.5q-13 -27 -14 -56q-3 -28 21 -45q8 9 23.5 23t22.5 22q9 8 26 23t24 22q19 23 40 42q24 16 51 27q25 13 54 15q29 5 55 -8q32 -19 30 -57q-1 -34 -20 -62q5 1 22.5 0
t23.5 -1t22 2.5t24 1.5q20 -1 20 -11q2 -27 -4 -52q16 0 31 -2q1 0 5.5 -0.5t7 -0.5t6 -1t4.5 -3.5t0 -6.5q-6 -34 -28 -62q-23 -24 -51 -43q-6 -27 -14 -53q-13 -23 -28 -46q-3 -5 -11.5 -21.5t-14.5 -25.5q-6 -8 -17.5 -22t-15.5 -19t-12.5 -13t-11.5 -13q-4 -5 -13 -13
t-12 -11q-14 -13 -23 -30q7 4 8 3.5t6 4.5q6 5 18.5 14.5t18.5 14.5q8 7 20 23.5t18 23.5q5 9 16.5 22t16.5 20l12.5 25t13.5 25q2 4 40 13q14 4 25 2.5t9 -11.5q-8 -30 -25 -56q-15 -26 -35 -48q-10 -18 -17 -37q18 17 41 26q4 2 11 4t16 4t16 0t7 -8q1 -7 2.5 -27.5
t1.5 -31.5q-1 -32 12 -61zM227 499q-6 -6 -20.5 -17.5t-20.5 -17.5q12 -4 25 -6q2 1 6 3.5t6 3.5q5 3 20.5 12.5t24.5 13.5q13 5 49 17q2 1 51 13q10 15 16 32q6 16 4 33q-3 21 -15.5 31.5t-28.5 1.5q-24 -15 -43 -35q-34 -32 -41 -39q-6 -7 -16.5 -23t-16.5 -23zM105 311
q-14 -25 -18 -53q2 -1 5 -2q6 -2 16.5 0t25 6.5t17.5 5.5q9 2 25.5 6.5t22.5 5.5q29 7 48 13q6 1 23 5t26 7l-0.5 2.5t0.5 2.5q7 7 22 19.5t22 18.5q14 14 43 39q4 4 19.5 18.5t24.5 20.5q24 17 50 29q7 21 8 43q-7 0 -21.5 -2t-18.5 -2q-5 0 -11.5 -1t-14 -2.5t-11.5 -2.5
q-2 -1 -5 -1t-4 -1q-24 -20 -51 -34q-28 -11 -58 -18q-29 -7 -59 -11q-1 0 -4 2t-4 2q-8 -5 -20.5 -19.5t-19.5 -19.5q-21 -17 -40 -36q-21 -19 -38 -41zM361 295q-1 0 -8 -3t-10 -4q-4 -4 -11.5 -10.5t-8.5 -7.5q4 3 38 25zM88 218v1q5 -18 17 -33q12 -12 29 -14
q9 9 27.5 22t24 17.5t24 19t28.5 22.5q-7 -2 -21.5 -6.5t-22.5 -6.5q-6 -1 -20 -4.5l-22 -5.5q-20 -4 -64 -12zM297 161q11 13 40 46q7 8 19 24t18 23q-34 -23 -46 -32q-32 -22 -48 -32q-24 -15 -49 -28q-26 -12 -53 -20q-2 0 -5 -3.5t-5 -3.5q-15 -15 -29 -31
q-12 -18 -20 -39q-10 -28 4 -55q1 -1 0.5 -1.5l-0.5 -0.5h3.5h3.5q19 11 37 25q8 6 20.5 23t18.5 24q44 40 45 41q6 7 22 19.5t24 20.5z" />
    <glyph glyph-name="icircumflex" unicode="&#xee;" horiz-adv-x="660" 
d="M650 320q8 -51 -4 -101q-4 -21 -13 -40l-3 -9q-8 -19 -19 -38l-3 -5q-11 -18 -24 -35l-4 -5q-6 -8 -11 -16q-7 -13 -18 -25q-18 -17 -38 -31q-13 -9 -27 -14q-9 -3 -18 -7q-3 -2 -12 -7q-15 -9 -31 -16q-23 -8 -47 -14q-20 -3 -40 -5h-8q-4 -1 -11 -1q-8 0 -26 2
q-6 0 -12 1h-17q-16 -1 -31 2q-4 1 -12 2q-17 3 -33 8q-15 6 -26 16q-7 5 -13 10q-7 4 -10 5q-15 9 -28 20l-3 3q-16 14 -29 31q-7 13 -11 27l-6 16l-8 16q-7 14 -13 29q-7 22 -14 49q-1 5 -5 18q-5 15 -8 30q-2 17 -2 34v17q-2 25 0 50q1 25 7 48q1 6 3 13q3 17 9 34
q7 14 17 26q6 7 10 14q12 18 26 34l3 4q12 15 26 28l7 6q4 4 13 14q9 11 20 21q9 7 21 16q-14 -1 -25 -12q-20 -22 -50 -20q-15 3 -19 18q-5 12 4 22q16 17 38 27q15 7 31 8q10 1 13 1l8 2q18 4 37 4q7 -1 15 0q13 1 26 0q9 4 19 6q9 1 16 4q5 2 15 8q10 5 21 10
q37 14 46 -7q3 -7 0 -15q-10 -16 -28 -22q-6 -2 -13 -6q4 -1 9 -5q9 -5 18 -9q6 -2 18 -5q15 -4 28 -10l12 -5q22 -9 32 -14q12 -7 23 -15q9 -7 18 -12t18 -8q14 -3 26 -11q12 -10 21 -23q9 -10 12 -12l11 -11q13 -10 23 -24q14 -19 25 -41q7 -15 8 -31q1 -9 4 -19
q3 -8 6 -17q7 -15 10 -31zM573 237q3 13 3 27q0 15 -3 30q-1 7 -2 12l-2 18q1 13 -2 25q-5 13 -13 25q-3 7 -6 13q-8 15 -18 28l-5 7q-4 6 -10 17q-7 12 -17 23q-12 11 -27 20q-9 5 -12 7q-19 13 -42 25q-10 5 -21 9q-13 5 -18.5 7.5t-16.5 9.5q-10 6 -21 10q-13 6 -38 14
l-3 1q-11 4 -36 11l-4 2h-3h-6q-6 -3 -17 -8q-12 -5 -22 -12l-6 -4q-17 -12 -32 -26l-4 -4q-16 -14 -29 -30q-9 -12 -15 -25q-5 -11 -8 -16q-2 -4 -6 -10q-9 -15 -16 -32q-4 -14 -5 -30q0 -11 -1 -16q-3 -23 -1 -47q1 -17 4 -44q1 -6 2 -14q2 -23 3 -30q2 -11 2 -22
q0 -12 3 -23q4 -14 10 -27q5 -9 7 -15q5 -12 13 -23l9 -15t7 -15q6 -15 16 -27q16 -15 36 -26l2 -2q21 -11 43 -17l15 -5q15 -7 32 -9q13 -1 25 2q10 2 20 2q10 1 21 -1q12 -2 24 -1q17 5 32 12q5 2 11 4q21 9 39 22q5 3 13 8q12 6 23 16q7 9 12 20q4 9 9 18q4 5 12 14
q9 9 15 20q5 12 8 25q3 10 5 16q6 21 9 42q1 5 3 14z" />
    <glyph glyph-name="idieresis" unicode="&#xef;" horiz-adv-x="562" 
d="M545 6q3 -61 -30 -65q-17 -3 -33 4q-7 2 -12 9q-36 -5 -71 4q-11 2 -62 1.5t-62 0.5q-25 0 -93.5 -2.5t-94.5 1.5l-1 -1q-1 -2 -5 -3t-6 -2q-7 -5 -16 -6q-14 1 -24 10q-3 3 -4.5 6.5t-2.5 9.5t-1 9.5t0.5 12.5t0.5 13q0 16 1.5 44t1.5 39q2 46 0 61q-1 13 -5 26
q-5 14 -4 29l2 4q1 3 1.5 18.5t1.5 24.5v5q-7 27 -2 55q1 5 1 33t0.5 58t0.5 33q0 19 -3.5 44.5t-3.5 31.5q2 21 -2 42q-10 33 -13 67q-5 63 28 69q17 3 33 -4q13 -4 17 -17v-2v-1.5t-0.5 -3.5t-0.5 -5q26 3 102.5 1t103.5 -2q12 1 67.5 0.5t67.5 1.5q6 1 24 3t27.5 3
t23 -1.5t23.5 -8.5q9 -7 14 -18q6 -21 3 -43q-1 -15 -3.5 -41.5t-2.5 -37.5q-3 -45 -2 -58q2 -13 5 -26q4 -13 3 -27l-2 -4q-1 -3 -1.5 -18t-2.5 -23v-5q6 -26 1 -53q-1 -5 -2 -31.5t-2 -55.5t-1 -32q-1 -18 2 -42.5t3 -29.5q-3 -21 1 -41q8 -32 11 -64zM472 32h1
q0 12 -2 36t-2 30q0 29 3 57q1 22 -1 80.5t-4 78.5q-1 10 0 54q2 33 0 65q-6 45 -4 91q1 4 2 22q1 19 1 30v16q-11 1 -41 4.5t-47 2.5q-33 -2 -67 -1q-9 1 -69 0q-120 -1 -139 -2q-3 -1 -12 -1.5t-14 -0.5q1 -12 3.5 -35.5t2.5 -30.5q1 -29 -1 -59q-1 -22 2.5 -84t6.5 -82
q1 -9 1 -56q-1 -34 2 -68q7 -47 6 -95q0 -4 -1 -23q-1 -21 -1 -30l9 -1q18 -1 128 -2q32 -2 63 0q31 1 61 -2q15 0 53 5.5t60 0.5z" />
    <glyph glyph-name="eth" unicode="&#xf0;" horiz-adv-x="633" 
d="M613 309q1 -5 2 -14q3 -16 1 -33q-2 -13 -6 -25q-3 -8 -6 -17q-1 -5 -2 -16q-1 -14 -5 -26q-5 -15 -12 -28q-4 -10 -5 -12l-5 -10q-6 -15 -14 -29t-19 -26l-5 -5q7 -7 18 -19l9 -10q9 -8 19 -14q8 -6 15 -12q6 -6 4 -15q-4 -20 -23 -29q-19 -8 -40 14q-6 6 -13 11
q-8 6 -12 10l-4 4q-10 10 -15 14q-13 -10 -27 -18q-16 -11 -34 -19q-3 -1 -11 -4q-13 -7 -27 -10q-22 -5 -44 -6h-6q-11 0 -23 2q-11 1 -16 2q-22 1 -44 6l-10 2q-17 3 -34 8q-10 3 -13 4q-15 4 -29 11q-16 9 -29 19q-5 4 -9 7q-16 11 -29 25l-4 -4l-16 -16q-7 -8 -25 -26
q-15 -17 -37 -11q-17 2 -25 18q-3 8 2 16q15 21 34 38q6 6 20 17q8 6 13 10q-4 6 -12 19l-3 6q-12 19 -19 40q-6 21 -7 43t4 44q3 21 11 42l2 6q7 17 16 33q12 19 26 36q5 5 11 9q5 3 9 7q1 2 1 5q1 2 1 3q-4 4 -12 14q-7 8 -15 16q-6 5 -17 15q-10 9 -17 14q-8 9 -4 20
q3 17 20 23q26 6 43 -14q7 -6 20 -19q8 -9 11 -12l1 1q6 11 13 20q7 8 9 11q4 6 7 12q5 12 13 22q11 9 24 14q7 4 10 6q3 1 9 5q14 9 31 15q21 4 43 5q22 0 43 -3q17 -2 33 -6l9 -3q16 -4 31 -10l10 -3q3 -1 13 -4q13 -4 26 -10l5 -2q17 -7 33 -17q15 -11 29 -23q3 2 11 10
q9 9 20 16q20 11 40 2q14 -3 18 -17q1 -12 -14 -21q-10 -6 -28 -20q-2 -2 -6 -4.5t-6 -4.5q10 -14 18 -30l3 -5q12 -20 19 -43q5 -20 5 -40v-7zM253 441q5 -7 2 -16q-6 -14 -20 -20q-5 -2 -14 -5q-11 -4 -22 -9q3 -2 10 -7l18 -14q8 -8 15 -17q6 -8 13 -15q7 -6 16 -13
q10 -9 16 -15q5 -4 16 -15l11 -11l11 11q10 9 14 14q5 4 16 12q10 8 15 13q6 6 12 14t14 16q8 7 18 12q7 5 14 11t12 13q7 9 15 17q10 7 20 13q4 2 9 5q-10 7 -21 14q-5 4 -9 6q-17 13 -36 22q-19 10 -39 16q-11 4 -13 5q-11 4 -22 7l-6 1q-15 4 -30 6q-18 1 -36 -4
q-17 -4 -30 -16q-14 -13 -24 -29q-6 -11 -10 -22v-1h1l1 1q34 14 43 0zM135 140q8 9 17 15q9 7 19 11q9 5 17 11q8 7 15.5 14.5t15.5 14.5q5 4 14 11q12 10 19 15q3 3 10 9l6 5q-3 2 -10 9q-10 11 -15 15q-6 6 -16 15l-15 15t-16 14l-16.5 13.5t-15.5 13.5q-8 6 -12 10v-1
q-5 -6 -7 -14l-1 -3q-4 -8 -13 -9q-3 -1 -4 -2q-9 -16 -13 -34q-1 -2 -2.5 -7t-2.5 -7l-2 -8q-6 -14 -8 -29l-1 -5q-2 -17 -1 -34q3 -13 10 -25q3 -7 5 -12q1 -3 4 -9q4 -11 9 -21q3 3 10 9zM420 27q24 11 44 30l-12 15q-14 17 -21 24q-8 8 -17 15q-10 9 -14 13l-14 14
q-10 11 -15 16q-7 6 -16 11q-9 6 -17 13q-8 8 -15 17q-6 8 -13 14q-2 2 -4 3q-2 0 -4 1q-7 -4 -13 -8q-8 -5 -16 -11q-7 -6 -13 -14t-14 -15q-7 -6 -20 -16l-12 -9q-11 -9 -30 -22l-3 -2q-5 -4 -18 -15q-7 -5 -8 -7q23 -28 55 -44l8 -5q17 -9 35 -16l4 -1q19 -8 40 -13
q18 -4 35 -4h7q6 0 15 -1q14 -2 28 -1q13 4 25 11q10 6 13 7zM550 251q2 14 0 28v12v9q0 16 -3 31q-4 13 -11 25q-4 8 -6 11q-1 2 -4 10q-5 11 -10 21q-4 -3 -9 -9q-7 -8 -15 -15q-8 -6 -18 -10q-8 -5 -15 -10q-8 -6 -14 -14q-6 -7 -14 -14q-6 -4 -15 -12q-10 -8 -16 -12
q-4 -4 -13 -11q-12 -10 -16 -14l-15 -12q-1 -1 -5 -4t-6 -5l8 -8q8 -9 13 -13q4 -4 16 -14q11 -8 16 -13q4 -4 15 -13q12 -10 17 -15q7 -6 19 -18l12 -12q4 -3 13 -12q14 -12 18 -16q6 -6 10 -12v-1q2 4 4 11q2 8 5 16q4 9 9 17q6 9 10 19t9 32l2 7q1 4 3 13q4 13 6 27z" />
    <glyph glyph-name="ntilde" unicode="&#xf1;" horiz-adv-x="653" 
d="M652 131q3 -11 -2 -22t-16 -15q-34 -6 -69 -5q-12 -1 -35 1t-32 2q-13 0 -37 -3.5t-36 -3.5q-14 0 -39 2t-34 2q-13 1 -38.5 -1.5t-38 -2t-38 5.5t-38.5 5t-38.5 -3.5t-37.5 -4t-38 1.5t-39 1q-25 0 -26 17t17 27q0 13 -4 37.5t-5 35.5q0 10 2.5 34t1.5 36t-1 35.5
t-0.5 35t-7 34.5t-7.5 35q-1 13 -1 35v35q-1 21 26 28t37 -10q19 -32 43 -61q5 -7 22.5 -26.5t25.5 -30.5q7 -10 20 -30t20 -29q2 -3 5.5 -9.5t5.5 -8.5q5 11 14.5 36t15.5 38t21 35t20 32q16 37 35 72q9 13 35.5 14t29.5 -18q1 -14 6 -38.5t6 -32.5q2 -17 12 -71
q2 -12 3.5 -36t3.5 -35q19 29 35 59q21 40 33 61q8 13 29.5 16t29.5 -11q14 -37 23 -76q4 -13 15 -37.5t15 -37.5q11 -38 28 -74q15 -37 22 -76zM493 134q41 0 95 6q-4 10 -15.5 28.5t-15.5 26.5q-10 28 -16 57q-6 16 -15 49.5t-14 47.5q-17 -38 -39 -74q-23 -31 -54 -53
q-7 -5 -19 -8t-23.5 0.5t-12.5 15.5q-1 6 -2 28t-3 34q-2 11 -7 31.5t-6 30.5q-2 11 -10 60q-11 -22 -27 -56q-4 -10 -11 -30.5t-12 -29.5q-5 -11 -17 -28.5t-17 -26.5q-8 -16 -30 -23t-32 9q-19 35 -42 67l-42 57q-3 5 -6.5 15.5t-7.5 14.5q1 -13 1 -39t1 -39q3 -55 4 -81
q2 -36 1 -81q12 1 39.5 2.5t41.5 1.5t41 -4t40 -4t40.5 3t41.5 2q9 0 35 -2t40 -2q12 0 37 -3t38 -3z" />
    <glyph glyph-name="ograve" unicode="&#xf2;" horiz-adv-x="682" 
d="M670 305q2 -12 2 -24q-1 -3 -1 -13q0 -13 -2 -25q-3 -15 -7 -30l-2 -8q-4 -11 -9 -21q-4 -7 -7 -14q-2 -7 -3 -16q-2 -11 -6 -21q-9 -18 -19 -34q-7 -10 -16 -20q-5 -5 -8 -9q-12 -15 -26 -28q-13 -12 -27 -23q-10 -7 -21 -13q-8 -4 -9 -5l-4 -3l-26 -14q-3 -1 -10 -5
q-10 -6 -21 -10q-16 -5 -33 -9q-10 -2 -20 -2q-8 1 -15 0t-13 -4q-10 -4 -20 -5h-2q-9 1 -19 4q-6 2 -13 3h-12q-11 0 -22 2q-4 1 -8 1q-13 2 -26 6l-6 2q-14 4 -26 10q-13 6 -26 15l-4 3q-11 8 -20 18l-8 8q-5 5 -11 9q-10 6 -18 16q-7 10 -10 22q-2 7 -5 14l-3 5
q-8 14 -14 30l-2 6q-6 15 -10 30q0 2 -3 11q-3 14 -5 28q-1 12 1 24q1 8 1 16v6v6q-1 15 0 29l1 5q0 18 2 35q1 5 3 11q3 15 8 29q5 12 11 24q5 8 7 12l3 6q6 15 15 29q1 1 3 4q20 33 33 35q14 3 21 -9q12 -16 3 -33q-5 -10 -8 -20q-2 -9 -5 -17l-5 -10q-6 -12 -10 -25
q-1 -5 -5 -16q-5 -10 -7 -21q-2 -13 -2 -26q-1 -8 -1 -14q-1 -13 0 -27v-12v-8v-7q0 -12 1 -24q1 -10 5 -20q3 -7 5 -15q5 -17 11 -33l2 -4q5 -15 13 -28l4 -8q6 -11 14 -21q1 -1 6 -7q8 -10 17 -19q3 -2 7 -6q10 -9 20 -16q10 -5 21 -7q6 -1 11 -3q16 -5 33 -7q16 -2 33 -1
q17 0 34 3l7 1q13 2 26 6t26 10l11 5q13 5 26 12q10 7 18 14q6 5 10 7q7 7 13 14l10 12l14 10q8 4 14 11q6 8 9 18q3 7 7 15l4 6q8 12 14 25q6 14 10 28l2 6q1 3 4 13q4 10 7 22l1 6q4 14 5 30q1 3 1 9q2 14 2 27q-1 11 -4 20q-2 8 -3 16t-1 16q0 11 -2 21q-3 10 -8 20
q-4 8 -6 13q-6 17 -15 33q-5 10 -12 18q-6 7 -8 11q-11 14 -23 27q-11 13 -25 25q-13 11 -28 20q-7 5 -13 10q-7 7 -15 12q-10 4 -20 5q-10 3 -14 4q-16 5 -33 8q-16 2 -32 2h-2q-8 1 -16 3q-9 3 -19 2q-12 -2 -24 -6q-7 -2 -9 -3q-10 -3 -19 -8q-8 -4 -11 -5q-7 -3 -14 -5
q-8 -1 -16 -5q-7 -5 -11 -12q-6 -7 -12 -12q-4 -3 -11 -7q-8 -5 -15 -11q-13 -11 -23 -23l-10 -10q-7 -7 -13 -14q-5 -7 -13 -20q-4 -8 -5 -9q-2 -4 -7 -11q-6 -9 -11 -18q-3 -9 -5 -18q-1 -8 -4 -15q-3 -12 -5 -23q-1 -4 -2 -10q-1 -9 -3 -18q-3 -8 -4 -16q0 -4 -5 -14.5
t-5 -17.5q0 -18 3 -35q2 -19 -15 -30t-34 0q-12 8 -14 22q-2 12 0 24q1 7 1 14q-1 19 2 38v10q1 14 4 28q3 12 8 24q4 10 4 11q6 18 14 34q3 8 6 15q2 11 8 21q8 14 20 31l6 8q7 12 16 22q8 8 17 13q7 4 13 9q5 6 9 12q6 9 15 17q8 6 18 11q7 3 13 7q11 7 31 17q7 4 13 8
q8 7 18 11q17 7 35 11q10 2 21 1q7 -1 14 0q8 1 15 4q10 4 20 4q11 0 22 -2q9 -2 14 -2q12 -2 24 -5q6 -1 10 -2q13 -3 25 -7l9 -3q5 -2 13 -4q11 -2 21 -6q3 -1 10 -4q11 -5 22 -11q10 -6 19 -13q7 -5 10 -8l5 -4q13 -8 24 -18q10 -10 19 -21l5 -6l8 -10q9 -8 16 -18
q8 -13 14 -27l3 -7q5 -11 8 -24q3 -8 4 -12q6 -18 10 -36.5t7 -37.5q1 -11 1 -32v-6q0 -5 1 -15z" />
    <glyph glyph-name="oacute" unicode="&#xf3;" horiz-adv-x="704" 
d="M702 290q2 -16 0 -33q-4 -17 -19 -26q-15 -5 -29 -1q-22 2 -40 14q-1 -17 -4 -33q-2 -10 -24 -22q-1 -3 -2.5 -13t-3.5 -15q-5 -22 -26 -30q-22 -8 -38 10q-10 12 -18 25q-6 17 -11 34q-9 -13 -23 -21q-11 -9 -26 -12q-18 -1 -34 9q-15 11 -21 29q-16 -12 -34 -5
q-13 -11 -30 -11q-8 -23 -22 -43q-9 -15 -26 -20q-18 -3 -30 12q-9 12 -17 25q-9 14 -15 28q-2 17 -2 33q-1 5 -4.5 14.5t-3.5 15.5q-7 0 -15.5 2t-15.5 2q-11 -1 -17 8t-1 19q3 11 12 16.5t20 3.5q2 0 6.5 1t6.5 1q0 6 1.5 16t1.5 15t-1 14.5t-1 14.5q-3 -3 -9.5 -10.5
t-10.5 -12.5q-3 -5 -8 -15t-8 -14.5t-10 -12.5t-10 -13t-9.5 -14t-9.5 -13q-3 -5 -10 -13.5t-10 -13t-7.5 -15t-7.5 -15.5q-4 -4 -11.5 -12.5t-10.5 -11.5q-11 -11 -24 -17q-21 -12 -29 -8q-10 4 -12 21.5t7 26.5q3 4 12 12t13 13q21 27 22 29q3 5 8 16.5t8.5 16.5t11 14.5
t11.5 14.5q3 4 9.5 14.5t10 16t12 14.5t11.5 13t23 28q4 4 10.5 14.5t11 15t14.5 10.5t14 9q12 12 29 15q22 2 23 -18q1 -6 0.5 -18.5t-0.5 -17.5t2 -17.5t1.5 -18.5t0.5 -18t1 -18t-1 -18t-1 -18q3 0 10 -1t10 -1q2 6 4 18.5t4 19t8 17.5t8 15q7 13 21 17q13 5 27 3
q2 1 9 5t11.5 6t8.5 2q15 -2 14 -25q-1 -3 0.5 -7.5t1.5 -7.5q13 7 29 6q17 -2 15 -26q0 -6 0.5 -18.5t0.5 -17.5h0.5h1.5q0 2 -1 8.5t0 9.5q0 3 2 5.5t4 4t6 4t5 3.5q0 7 -2 22t-2 22q3 18 21 24q15 5 29 1q9 -2 13.5 -6t4.5 -13q0 -8 0.5 -23.5t1.5 -18.5q0 -6 -1 -22
t0 -21h4q1 1 -1 3.5t-1 3.5q0 3 3.5 5t8.5 4.5t8 4.5q0 2 -1.5 9.5t-1.5 10.5q0 18 15 27q14 5 29 1q16 -1 23 -15q9 -21 13 -30q8 -14 18 -27q6 -1 18 -2t15 -2q22 -2 24 -16z" />
    <glyph glyph-name="ocircumflex" unicode="&#xf4;" horiz-adv-x="429" 
d="M444 569q10 -18 1 -36q-14 -22 -34 -38q-6 -6 -16 -19t-16 -19q-3 -5 -10 -15l-10.5 -15t-13.5 -14t-14 -14.5t-10 -16t-9.5 -16t-13 -14.5t-13.5 -14q-3 -4 -10.5 -15.5t-12.5 -16.5q7 -12 21 -33q3 -5 9.5 -15.5t10.5 -15.5q3 -5 11 -15l12 -15q3 -4 10.5 -13.5
t10.5 -14.5q2 -4 5.5 -15t7.5 -16q10 -14 22 -27q13 -13 29 -23q4 -3 5.5 -7t3.5 -10.5t3 -9.5q8 -21 5 -28q-7 -19 -27 -26q-21 -5 -38 9q-17 12 -26 30q-10 17 -17 35q-10 17 -23 32q-9 17 -21 32q-3 3 -11 12t-12 14q-3 5 -7 15.5t-7 14.5q-3 6 -9 17.5t-9 15.5
q-3 -5 -12 -15.5t-12.5 -15.5t-9.5 -15t-9 -14.5t-11.5 -13.5t-12 -14t-8 -15.5t-7.5 -15.5q-4 -5 -10 -16t-8 -14q-2 -4 -10 -13.5t-11 -14.5q-8 -21 -22 -38q-16 -21 -42 -25q-19 -4 -35 9q-14 12 -4 28q8 15 18 28q3 4 8 14.5t9 14.5q1 2 9.5 12t12.5 15q3 4 12 12t12 12
q3 5 8.5 14t8.5 13t8 13.5t9 14.5t13.5 15.5t13.5 16t10.5 17t10.5 17t11.5 16t11.5 15.5q-3 6 -7.5 16.5t-7.5 16.5q-3 5 -8.5 16t-9 16t-13 14.5t-12.5 14.5q-3 3 -8.5 12t-8.5 14q-3 4 -11 11.5t-11 12.5q-2 3 -7.5 11.5t-9.5 13.5q-7 12 -11 27q-11 22 -5 30
q16 14 36 10q19 -1 31 -15q4 -4 15 -13t15 -15q15 -19 24 -31q4 -6 9.5 -17t8.5 -16q4 -5 12.5 -15.5t12 -16t8.5 -16t7 -15.5q3 4 10 12.5t10 13.5q4 5 10.5 14.5t9.5 14.5q4 5 8.5 15.5t8.5 15.5q3 5 11 14.5t11 13.5q4 4 13 12t12.5 12.5t8 15t7.5 14.5q6 8 21 26
q13 13 32 14q29 5 39 -11z" />
    <glyph glyph-name="otilde" unicode="&#xf5;" horiz-adv-x="691" 
d="M685 476q9 -8 6 -19q-3 -7 -10 -22q-11 -23 -17 -48q-3 -11 -8 -21t-7 -20q-1 -10 -1 -20q2 -13 -1 -25q-5 -17 -13 -53v-3q-4 -16 -11 -32q-5 -15 -8 -23q-8 -28 -20 -55q-11 -23 -32 -38q-21 -19 -48 -14q-18 5 -26 37q-1 4 -4 12q-5 15 -7 31q0 16 1 32q2 15 1 30
t-4 30t-4 30q-2 23 -7 61q0 6 -2 18q-1 21 -6 42q-1 5 -3 12q-4 30 -18 57q-15 28 -40 50q-2 -8 -3 -16q-1 -2 -1 -7q-3 -10 -3 -21q0 -9 3 -31q1 -8 2 -14q3 -26 5 -55q1 -10 2 -32q0 -17 1 -24q1 -14 4 -28q3 -13 4 -27q2 -26 3 -52q0 -26 -4 -51.5t-16 -49.5
q-14 -31 -45 -47q-30 -17 -64 -11q-36 11 -47 46q-10 28 -12 58q-2 19 -5 54v4q-1 7 -1 30q1 19 0 28q-1 15 -4 29t-4 29q-1 14 0 28v30q-3 28 -9 56q-6 27 -23 50q-2 2 -5 3q-2 2 -3 2q-3 -2 -5 -5q-6 -16 -8 -34q-3 -12 -4 -18l-6 -21q-7 -22 -9 -45q-2 -34 1 -67
q1 -13 5 -40q2 -22 3 -29q0 -6 2 -17q4 -26 3 -53q-2 -19 -10 -37q-3 -8 -5 -13l-2 -8q-5 -21 -18 -40q-17 -20 -39 -33q-21 -14 -45 -22q-7 -2 -14 -2q-9 0 -17 3q-5 3 -6 9q-6 14 0.5 28.5t21.5 18.5q25 7 44 23q18 19 22 45q5 26 2 52v3q-2 33 -4 49q-1 8 -2 15
q-5 24 -6 38q-1 33 3 65v4q3 27 11 54q1 5 3 13l3 18q2 17 9 33q9 26 30 44q38 27 81 6q20 -11 30 -32t15 -44q8 -33 11 -68q1 -11 4 -33q4 -27 5 -35q0 -13 -1 -26q-2 -12 -2 -25q1 -8 3 -26l3 -24q1 -12 4 -25q3 -12 5 -24v-7q1 -24 8 -48q8 -24 17 -25q6 -1 14 7
q16 23 16 51q3 28 0 56q-1 12 -1 34q1 15 0 22q0 7 -3 26q-2 18 -2 26q-1 10 -3 28q-2 15 -3 23q0 11 -3 33q-2 12 -3 19q-2 13 -2 41l-1 5q1 24 10 45q9 22 29 32q4 2 7 4q15 11 34 14h3q27 -1 46 -20q17 -16 29 -37l3 -5q15 -23 24 -48l3 -9q9 -21 14 -43l2 -12
q5 -21 7 -42q1 -13 2 -36q1 -12 1 -19q1 -10 3 -34q2 -18 2 -20q1 -12 2 -36q0 -21 1 -33q7 24 13 45q4 14 11 43l2 9q3 11 7 34q2 9 5 20q1 7 5 25q4 24 10 47q6 18 14 35q8 16 10 22l2 4q10 27 28 31q18 3 30 -12z" />
    <glyph glyph-name="odieresis" unicode="&#xf6;" horiz-adv-x="658" 
d="M570 372q6 -4 36 -21t43 -30t10 -28q-3 -14 -8 -27q-53 -40 -100 -88q-2 -2 -17.5 -19.5t-24.5 -26.5q-3 -2 -15.5 -12.5t-19.5 -18.5t-10 -17q-17 -27 -49 -34q-7 -2 -21 6t-10 18q15 34 43 58q7 7 24 21t25 23q30 32 87 83q-44 1 -76 -1q-69 -4 -74 -4q-114 -2 -140 -2
q-5 0 -107 -3q-50 -2 -107 -2q-7 0 -14.5 0.5t-14.5 0.5q-15 2 -24.5 14t-8.5 27q2 10 7.5 16t16 8.5t14 2.5h16.5q14 0 42 -2t41.5 -2t41.5 1.5t42 1.5t42 0.5t42 0.5q19 0 66.5 -3t73.5 -2q16 0 47 3t46 4q-7 5 -21 15.5t-21 16.5q-12 8 -51.5 33t-59.5 41
q-9 14 -5.5 30.5t17.5 25.5q4 2 8.5 3t9 0.5t8 -1t8 -2.5t7.5 -3.5t7.5 -5t6 -4.5t6 -4.5l4.5 -3.5q79 -64 111 -87z" />
    <glyph glyph-name="divide" unicode="&#xf7;" horiz-adv-x="447" 
d="M388 274q12 -11 8 -28t-17 -24q-21 -9 -43 -5q-15 0 -41.5 -0.5t-39.5 -0.5t-27.5 0.5t-33 2t-28.5 1.5q-13 1 -45 -3t-49 -1q-13 4 -19 17t-1 26q7 17 40 20q43 1 86 -2q62 -1 69 -1q13 0 44.5 5.5t56 5t40.5 -12.5zM219 311q-14 -1 -25.5 8t-14.5 24q0 20 3.5 30
t18.5 20q23 15 48 4q14 -13 14 -31.5t-13.5 -36t-30.5 -18.5zM217 187q15 1 26.5 -7.5t14.5 -23.5q1 -14 0.5 -19.5t-4.5 -13.5t-14 -15q-24 -17 -48 1q-21 20 -12.5 47.5t37.5 30.5z" />
    <glyph glyph-name="oslash" unicode="&#xf8;" horiz-adv-x="675" 
d="M673 301q9 -10 4 -22.5t-18 -18.5q-22 -4 -97 -15h-52q-13 0 -36.5 2t-30.5 3l-347 3q19 -13 28 -22q4 -4 18.5 -13.5t19 -13.5t15 -11t15.5 -11q31 -21 56 -48q8 -12 5.5 -25t-14.5 -20q-18 -4 -35 0q-23 11 -58 43.5t-48 41.5q-51 41 -94 89q-10 8 -4.5 19.5t15 19.5
t21 17.5t14.5 14.5q27 33 50 70q6 6 35 29t38 37q13 27 47 33q32 6 33 -18q0 -8 -4 -19q-20 -32 -69 -77t-69 -75q102 8 203 -4q128 9 257 -2q38 -3 76 0q15 3 26 -7z" />
    <glyph glyph-name="ugrave" unicode="&#xf9;" horiz-adv-x="719" 
d="M725 435q2 -9 -12 -21q-5 -3 -10.5 -11t-8.5 -11q-18 -16 -21.5 -20t-9.5 -11.5t-8.5 -11t-10 -10t-10.5 -10.5t-9 -11.5t-9 -11t-10 -10t-10 -10.5q-4 -4 -10 -14t-10 -14.5t-12 -13t-11 -12.5q-4 -4 -13 -11t-13 -12q-11 -12 -23 -25q-3 -4 -10.5 -12t-11.5 -13
q-3 -3 -10 -11.5t-11 -13.5q-4 -4 -12.5 -11.5t-12 -11t-9.5 -13.5t-10 -14q-6 -5 -26 -21q-13 -10 -27 -18q-7 -14 -15 -27q-9 -12 -20 -23q-13 -9 -27 -15q-3 -4 -7.5 -14t-7.5 -15q-2 -4 -7 -13.5t-8 -14.5q-10 -12 -24 -16q-14 -1 -27 6q-17 6 -15 19q4 13 10 25
q1 4 1 13t2 14l0.5 1t0.5 2q-8 13 -11 28q-6 14 -9 29q-1 11 -2 31q0 4 -1.5 14.5t-1.5 16.5q0 15 1 31q1 5 4.5 15.5t4 15t-0.5 15t0 16t4.5 15.5t4.5 14q2 6 5 16t4 14.5t3 15.5t4 17q-16 -5 -30 -8q-5 -2 -14.5 -4t-14.5 -3.5t-14 -6t-14.5 -5.5t-15.5 -1.5t-14 -1.5
q-3 -1 -9 -0.5t-9 0.5q0 -1 1 -4t0 -4q-3 -8 -20 -16q-12 -7 -25 -8q-21 1 -40 10q-8 3 -12.5 10t-3.5 15q5 17 19 27q5 2 15.5 3.5t14.5 3.5q14 6 28 11q4 1 13.5 5t15.5 5q5 1 15 1t15 1q6 1 15.5 4t13.5 4q1 1 3.5 2t3.5 2q3 4 9.5 12t10.5 11.5t13 9t12.5 9t10 12
t10.5 12t13 9t13 8.5q4 4 12 11t11 10q3 7 7.5 20.5l6.5 19.5q2 5 7.5 14.5t7.5 14.5t3.5 16t3.5 16t7.5 15t7 15t4.5 15.5t5 15.5q1 5 3.5 16t4.5 16t7.5 14.5t7.5 14.5q6 14 20 19q13 8 28 5q18 -6 19 -24q2 -27 2 -32t-1 -17t-1 -17q9 12 20 31q7 11 17 30q3 6 7.5 18
t4.5 14q4 10 27 17q15 7 31 2q8 -4 10.5 -12.5t-1.5 -15.5q-2 -5 -7.5 -14.5t-6.5 -14.5q-2 -5 -5 -15t-5 -15t-4.5 -15.5t-4.5 -15.5t-7 -14.5t-7 -14.5t-4 -15t-4 -15q4 -7 3 -14q-1 -4 -6 -12t-6 -11q-2 -5 -5 -13.5t-4 -11.5q0 -6 1 -18t1 -17q-1 -7 -3.5 -18.5
t-2.5 -15.5q5 1 15 3.5t15 3t15 1t16 1.5q21 4 30 5q6 2 16 5t14 4q3 1 13.5 3t16.5 4q2 1 13 4t16 5q1 1 12.5 5t16.5 7q13 8 27 4q15 -3 19 -18zM346 312q1 1 1.5 6t1.5 7q-4 -1 -12 -5t-12 -5t-12.5 -1t-12.5 -2v-3v-4q-8 -22 -9 -28q-1 -4 -5 -13t-5 -14t-2 -15t-2 -14
q-1 -5 -1.5 -15t-1 -14.5t-3 -14t-3 -14.5t0 -15t0.5 -14q0 -6 0.5 -15.5t0.5 -14.5q0 -1 -2.5 -4.5t-2.5 -5.5q0 1 3.5 3.5l3.5 2.5q1 4 1 12t2 11q0 6 3.5 15t3.5 13q1 3 2.5 13t3 14.5t6 13.5t6 13t10.5 26q2 4 4.5 13.5t4.5 13.5q2 5 7 14t6 13q3 5 7.5 13.5t6.5 13.5z
M367 411q2 28 2 32q-4 -4 -14.5 -12.5t-15.5 -12.5q-1 -3 -1.5 -12t-2 -13t-6 -10.5t-5.5 -10.5q23 6 33 8q1 0 2.5 0.5t3.5 1.5q0 4 2 14t2 15zM566 339.5q3 3.5 8.5 11.5t8.5 11q-4 -1 -13.5 -4t-14.5 -4t-16 0t-16 0t-15.5 -2t-15.5 -2q-5 0 -14 -4t-15 -5q0 -5 -2.5 -13
t-3 -12t-1 -13.5t-0.5 -13.5q-1 -5 -4.5 -14.5t-4.5 -13.5q-2 -10 -7 -28q-1 -4 -2.5 -14t-3 -15t-6 -13.5t-5.5 -12.5l11.5 11.5t10.5 11.5q4 5 12 12.5t11 11.5q4 4 9.5 12t9 12t11 10.5t11 10.5t9 12.5t8.5 12t9 12t9 12.5t11 10.5t11 10z" />
    <glyph glyph-name="uacute" unicode="&#xfa;" horiz-adv-x="544" 
d="M644 677q9 -1 16 -7t0 -14q-5 -6 -36 -50q-6 -8 -20.5 -23t-20.5 -24q-5 -8 -34 -52q-6 -9 -14.5 -28t-14 -27.5t-18.5 -25t-18.5 -25.5t-17.5 -25.5t-17 -25.5q-6 -9 -15.5 -27t-15.5 -27q-4 -8 -15 -21t-15 -20q-3 -7 -10.5 -29t-11.5 -33q-18 -47 -25 -61
q-13 -30 -31 -57q-20 -27 -46 -48q-8 -23 -13 -48q-2 -8 -2 -25t-1 -24q-1 -14 -11 -24.5t-25 -11.5q-14 -2 -25.5 6.5t-10.5 19.5q3 35 12 68q-16 -18 -35 -33q-31 -22 -66 -8q-23 14 -16 60q4 32 16 63q21 47 26 60q15 39 29 85q-11 -10 -22 -18q-19 -28 -41 -54
q-22 -16 -50 -14q-10 0 -19.5 4.5t-1.5 12.5q3 3 9.5 8t9.5 8q-21 -1 -25 7q-9 30 8 56q12 26 29 49q21 29 46 55q10 10 29.5 29t21.5 21q8 7 21.5 21.5t20.5 21.5q4 5 19 20t23 22q1 1 47 37q7 6 25.5 24t30.5 26q33 18 69 31q33 18 70 26q8 1 22 -2.5t10 -12.5
q-12 -23 -27 -44q-14 -22 -26 -45q-4 -7 -15.5 -22.5t-15.5 -25t-10 -27.5t-9 -25q-2 -5 -7 -13.5t-7 -13.5q8 16 30 53q2 4 12.5 23t17.5 29q6 9 19.5 24t19 22t15.5 25t17 26q6 7 13.5 14t16.5 15t14 13q39 38 43 42q22 16 49 14zM102 268q4 7 14 22l16 24
q-6 -7 -14 -20.5t-12 -18.5q-22 -24 -33 -55q6 8 15 24.5t14 23.5zM281 337q3 7 11.5 21.5t12.5 23.5q-11 -12 -30 -35t-27 -32q-3 -9 -11.5 -26t-11.5 -26.5t-6 -28.5t-6 -28q-3 -10 -10 -28t-10 -26q-4 -11 -30 -71q-18 -33 -22 -71q16 19 29 39q14 21 25 44q10 59 13 68
q3 12 13.5 34t13.5 30q2 4 10 28t14 37q3 7 10.5 22.5t11.5 24.5zM311 473q4 4 16.5 18.5t18.5 23.5q-5 -4 -12.5 -12t-11.5 -11v-3q-1 -4 -5 -9t-6 -7z" />
    <glyph glyph-name="ucircumflex" unicode="&#xfb;" horiz-adv-x="609" 
d="M585 297q11 1 21.5 -5t9.5 -20q-2 -14 -14.5 -20.5t-25.5 -8.5q-48 -5 -50 -5q-8 0 -19.5 -0.5t-25.5 -0.5h-20q-9 0 -25.5 1.5t-24.5 1.5q-7 0 -26 -0.5t-28 -0.5q29 -40 37 -50q22 -29 38 -45q21 -22 44 -41q11 -8 10 -21.5t-14 -19.5q-26 -9 -50 6q-20 15 -38 33
q-7 7 -17 21t-15 19q-29 34 -32 38q-2 -22 -5 -47q-1 -8 -1.5 -24t-1.5 -22q0 -9 -0.5 -24t-0.5 -21q0 -8 1 -24t1 -23q0 -14 -8.5 -25t-22.5 -14q-14 -1 -23.5 9t-7.5 23v23t1 23q0 8 0.5 29t0.5 30q4 49 5 54q1 8 1.5 26.5t1.5 27.5q-4 -2 -36 -21q-26 -16 -46 -40
q-21 -22 -47 -39q-20 -10 -42 -15q-33 -8 -42 6q-14 20 13 42q21 13 43 21q12 6 42 22q24 15 46 33q3 2 21 13.5t26 18.5q-9 0 -27.5 -0.5t-27.5 0t-27 2.5t-27 2q-9 1 -27 0t-26.5 -1t-26.5 2t-28 2q-11 -1 -19 7.5t-6 20.5q2 15 17 21.5t35 5.5q6 0 28 -2t34 -2
q10 -1 30.5 0.5t30.5 1.5q9 0 28.5 -1t30.5 -1q-5 6 -12 18.5t-12 19.5t-16.5 19.5t-15.5 17.5q-26 31 -32 38q-17 17 -37 32q-8 7 0.5 18t18.5 15q25 13 48 -2q20 -20 37 -42q33 -35 38 -41q7 -9 35 -47q0 3 4 59q4 37 1 73q-2 8 0 28t-3 27q-2 13 6 24t21 13q12 2 22.5 -5
t12.5 -19q2 -24 1 -49q2 -55 -2 -110q-1 -9 -4 -28t-3 -24q3 3 30.5 35t28.5 33q2 4 12 16t15 19q5 9 13 18t20.5 16.5t22.5 4.5q15 -7 20.5 -17t-0.5 -18q-5 -7 -16.5 -20t-14.5 -18q-5 -5 -13.5 -19.5t-14.5 -21.5q-17 -19 -33 -36q-7 -7 -19.5 -18t-16.5 -15q8 0 24 -2.5
t24.5 -2.5t25 2.5t25.5 2.5q5 0 31.5 -0.5t31.5 0.5q20 1 50 4z" />
    <glyph glyph-name="udieresis" unicode="&#xfc;" horiz-adv-x="545" 
d="M520 94q10 -27 12 -57q0 -13 -4.5 -20.5t-13 -10t-16 -2.5t-20.5 1.5t-19 1.5q-26 -3 -98.5 -1t-98.5 1q-11 0 -64 0.5t-64 -1.5q-6 -1 -23 -3t-26.5 -2.5t-22 1.5t-21.5 8q-9 5 -14 15q-5 18 -2 36q0 13 2.5 36t2.5 32q0 1 -0.5 16.5t-1 33.5t-1.5 21q1 49 7 97
q1 16 -2 36.5t-3 25.5q2 17 -1 35q-8 27 -10 55q0 8 -0.5 17t6 17t21.5 10q15 3 31 0q2 0 7 1t6 -1q34 4 68 -3q10 -3 58.5 -2.5t58.5 0.5q24 0 90 2t89 -1l1 1q1 1 5 2t6 2q20 13 38 -4q3 -2 4.5 -5t2 -8t0.5 -8.5v-10.5v-11q0 -14 -2 -37.5t-1 -33.5q-2 -39 -1 -52
q2 -12 5 -23q5 -10 1 -21l0.5 -8.5t-0.5 -8.5q-1 -3 -0.5 -10t-0.5 -16v-5q6 -50 7 -101q-2 -18 2 -37zM439 61q3 0 7 0.5t9 1t8 0.5l-3 30t-3 26q-3 46 -7 76q-1 7 -1 48q1 29 -2 57q-6 41 -5 82v11.5v8.5q1 19 1 25q-7 1 -8 1q-18 1 -122 2q-52 1 -60 0q-29 -1 -58 1
q-14 1 -50.5 -4t-57.5 -1l-1 1q0 -11 2 -31.5t2 -25.5q0 -24 -3 -48q-1 -16 4 -105t4 -95q0 -2 -1 -19q-1 -15 -1 -25q-1 -7 0 -14q10 -1 39 -4t45 -2q31 2 63 1q9 -1 66 0q113 1 133 2z" />
    <glyph glyph-name="yacute" unicode="&#xfd;" horiz-adv-x="499" 
d="M486 303q3 -10 3 -20q0 -9 -2 -18q-1 -8 -2 -13v-13t-1 -18q-2 -13 -7 -31q-2 -10 -7 -20q-2 -5 -3 -10q-6 -15 -13 -28q-8 -15 -17 -27q-8 -10 -17 -19l-9 -9q-9 -9 -19 -16q-2 -2 -8 -6q-8 -8 -18 -12q-11 -5 -23 -9q-7 -2 -10 -3q-10 -3 -21 -4q-8 -1 -13 -2l-12 -3
q-11 -4 -22 -5q-3 -1 -11 -2q-11 -2 -23 -2h-2q-17 0 -33 1q-17 2 -35 6q-17 4 -33 11q-13 6 -25 14l-11 6q-13 7 -24 17q-9 8 -15 18q-3 6 -5 8q-10 13 -17 28q-1 3 -5 10q-6 9 -10 19q-3 11 -4 22q0 7 -1 11q-3 16 -4 32q-1 18 1 36q2 13 7 25q3 7 4 10q5 17 14 31v1l1 1
q2 6 3 13l4 14q5 13 12 26t18 23l4 3q16 13 24 19q13 8 30 18q15 9 31 15q17 7 35 11q17 4 35 6q4 1 13 2q12 3 23 3q8 0 27 -1l9 -1h11q16 -1 25 -2q12 -2 24 -6q6 -2 8 -3q15 -4 30 -12l7 -3q12 -5 23 -12q13 -10 24 -23q8 -11 13 -23q2 -5 3 -7q1 -3 5 -9q6 -10 10 -22
q1 -10 0 -20q-1 -7 -1 -13q1 -7 2 -13zM425 273q1 8 1 17q-1 13 -4 26q-1 6 -2 9q-4 17 -12 33q-7 15 -19 28q-11 11 -25 18t-30 11l-8 3q-12 3 -23 5q-10 2 -20 1h-9q-4 0 -12 1q-9 2 -17 1q-15 -2 -29 -6q-7 -2 -14 -6q-6 -4 -12 -6q-5 -2 -14 -5q-11 -4 -22 -9
q-16 -8 -30 -21q-12 -11 -18 -25q1 -2 1 -4q1 -4 -6 -10q-11 -10 -17.5 -23.5t-9.5 -28.5q-2 -9 -2 -20v-10q-2 -15 -1 -30q2 -15 5 -30q3 -14 8 -28t12 -28q7 -13 16 -24q9 -12 20 -21q12 -10 25 -17q9 -4 18 -6q8 -3 11 -4l5 -1q11 -5 23 -8q12 -2 24 -3h6q1 0 8 -1
q11 -1 22 -1q15 1 29 5q11 3 21 8l6 3q14 6 26 15q0 1 6 4q10 7 18 17q10 12 17 27l3 5q6 12 11 25q3 11 4 22q1 7 2 10q2 10 1 19q1 9 1 14q1 4 2 13q2 10 2 20q0 6 2 16zM392 243q7 -4 7 -12q1 -7 -11 -15q-3 -3 -12 -9q-7 -5 -11 -9l-7 -4q-11 -9 -18 -13q-13 -8 -27 -14
q-14 -7 -30 -10q-3 0 -10 -2q-10 -3 -21 -3h-1q-9 0 -17 2q-6 2 -13 2h-16q-15 0 -31 1q-18 3 -34 12q-20 9 -29 29q-2 4 -2 9q-1 6 -3 11q-2 0 -2.5 2t0 5t-0.5 6q-4 10 3 18q13 16 32 10q18 -3 24 -21q1 -4 3 -9q2 -8 7 -16q8 -12 23 -13l5 -1q13 -3 26 -4q9 0 19 1
q11 1 17 1h4q15 -2 29 3q17 5 32 15q7 6 13 12q7 6 15 12q17 14 37 4zM168 292q-4 4 -6 9q-1 6 2 12v1q-1 4 1 9q4 6 10 11q2 1 4 3l4 4q8 13 22 15h1q4 0 9 -2q3 -2 5 -6q5 -3 9 -9q5 -9 5 -20q1 -3 1 -5q0 -6 -2 -12l-1 -2q-2 -5 -5 -9q-7 -11 -18 -17q-6 -2 -12 -2
q-11 0 -19 5q-4 4 -6 10q-1 1 -2 3zM272 280l-1 1q-3 6 -3 12q-1 9 2 18q2 5 7 8q0 2 1 5q-1 2 -1 4q1 2 3 5q1 3 3 5q3 3 4 3q5 3 10 3h4q2 1 3 2q4 3 10 4q3 0 7 -1q6 0 10 -4q4 -3 2 -8q2 -2 4 -5q1 -1 3 -2q3 -2 5 -6q1 -2 2 -5v-2q1 -2 2 -6q1 -3 -1 -7v-1q0 -7 -3 -13
l-3 -3l-2 -1q-1 -2 -3 -3q-2 -2 -4 -3l-4 -2q-2 -4 -6 -6q-5 -1 -11 -1h-5q-4 0 -8 -1q-3 0 -6 1q-3 0 -4 1q-3 -1 -5 0q-5 0 -8 2q-3 3 -4 6z" />
    <glyph glyph-name="thorn" unicode="&#xfe;" horiz-adv-x="518" 
d="M501 414q11 -15 16 -32q1 -17 -3 -35q-3 -17 -9 -34q-9 -15 -19 -28q-3 -5 -6.5 -16.5t-7.5 -16.5q-3 -5 -11.5 -13t-11.5 -12q-4 -5 -9.5 -15.5t-8.5 -14.5q-3 -5 -10.5 -14.5t-10.5 -14.5t-8 -16.5t-8.5 -16.5t-12 -13.5t-11.5 -13.5q-10 -14 -21 -26q-2 -3 -10 -12
t-12.5 -14t-12.5 -14t-10 -12q-21 -19 -50 -19q-9 0 -16.5 4.5t0.5 12.5q1 1 1 4t1 4q-4 21 -19.5 35.5t-32.5 26.5q-2 1 -34 26q-10 8 -33 28q-14 13 -25 24q-5 4 -12.5 13.5t-9.5 12.5q-4 5 -11 15.5t-9 12.5q-11 13 -21 27q-8 16 -14 32q-7 20 -11 41q-5 20 -6 41
q-1 22 7 42q10 19 29 29q18 13 39 17q22 4 43 2q21 -4 42 -11q20 -6 40 -16q16 -8 30 -19q13 -12 24 -26q12 -14 22 -29q16 21 19 25q8 13 19 23q12 13 27 24q16 9 33 16q18 4 36 4q18 2 36 1q17 -4 31 -14t22 -25zM452 329q6 18 3 37q-3 23 -21 38q-25 16 -50 0v-0.5
t-1 -0.5q-17 -12 -32 -27q-11 -17 -21 -36q-11 -17 -20 -36q-14 -18 -35 -23q-12 -4 -24.5 -2t-15.5 10q-8 16 -17 32q-9 15 -20 29q-10 15 -22.5 28.5t-27.5 23.5q-17 8 -35 10q-9 3 -19 3l-1.5 1t-2.5 1l-4 -6q-4 -8 -6 -17q-7 -22 -4 -44q6 -21 16 -41q8 -18 18 -33
q8 -17 19 -32q4 -5 26 -28q9 -10 26 -26l13 -13l14 -14q18 -14 29 -22q3 -2 30 -23q15 -12 27 -26l14 20q4 5 11 16t10.5 16t12.5 14.5t12.5 15t10 16.5t9.5 17q10 14 21 29q3 3 11 13t12 16q9 16 17 33q10 14 17 31z" />
    <glyph glyph-name="ydieresis" unicode="&#xff;" horiz-adv-x="534" 
d="M522 254q2 -9 1 -18q0 -10 -2 -20l-2 -14v-3q0 -15 -3 -31q-2 -13 -8 -25l-4 -12q-5 -14 -13 -26q-9 -14 -20 -26t-23.5 -22.5t-25.5 -19.5q-7 -5 -22 -13l-6 -3q-12 -6 -29 -14q-15 -5 -30 -8l-7 -1q-3 0 -9 -2q-14 -4 -28 -4q-13 0 -25 3q-8 2 -12 2q-5 1 -14 2
q-12 0 -24 3h-2q-19 5 -30 9q-10 3 -19 8l-12 6q-7 3 -13 4q-10 3 -19 8q-10 5 -18 12q-7 6 -10 8l-4 3q-13 8 -24 17l-4 4q-11 10 -20 21q-7 10 -11 21l-4 10q-8 16 -11 33q-1 4 -3 10q-3 11 -4 23v3q-1 15 -1 31q1 10 4 21q1 8 2 12q1 7 1 14q0 10 2 20q3 9 8 18q4 6 6 12
l3 9q3 12 9 23q8 11 18 20l5 5q2 1 6 5q6 7 14 13q-1 2 0 4q1 8 14 14q14 7 32 15q5 2 13 6q10 5 19 8q7 3 22 7q8 1 12 3q7 2 14 5q10 5 20 7t28 5l15 2q19 2 28 2q13 1 25 -1q8 -1 12 -1q19 -1 37 -5q14 -3 27 -9l9 -3q18 -6 34 -16t30 -23q10 -11 17 -24l2 -4q3 -5 6 -9
q7 -9 11 -20q3 -10 2 -21q0 -6 1 -12q0 -5 2 -13q3 -10 3 -20q1 -6 0 -17v-15zM457 195v4q1 9 0 26v5v12q-1 14 -1 19l-2 32v14q0 9 -1 18q-2 10 -6 20l-3 9q-1 2 -3 8q-2 11 -8 21q-7 9 -16 16q-4 3 -7 5q-12 10 -26 17l-8 4q-10 7 -21 10q-10 3 -20 3q-8 0 -12 1t-12 2
q-10 2 -20 2q-13 0 -26 -2l-6 -1q-11 -2 -22 -5q-8 -2 -10 -2q-8 -2 -16 -3q-9 0 -17 -2q-9 -3 -27 -11q0 -2 -1 -5q-6 -11 -17 -15q-14 -6 -25 -16l-2 -2q-11 -8 -19 -19q-4 -9 -6 -18q-2 -8 -3 -11q-3 -7 -6 -13q-4 -8 -6 -16t-2 -16q-1 -10 -1 -15l-3 -12q-2 -9 -3 -18
t1 -18q0 -6 1 -12v-10q-1 -10 1 -19q3 -15 10 -29q5 -10 13 -18q2 -4 5 -7l2 -3q8 -11 17 -20q7 -6 15 -9q6 -3 12 -7l2 -2q12 -8 24 -15q10 -5 20 -9l8 -3q4 -2 12 -5q8 -5 17 -8q14 -4 30 -8l12 -4q7 -3 14 -4q14 -2 27 -2q14 1 27 7l5 2q11 5 21 11q6 5 11 11t11 11
q6 4 12 7q8 4 14 10q7 7 12 16q3 6 5 9l1 2q8 11 13 24q5 14 7 29q2 14 2 27zM408 167l1 -6q2 -7 -1 -13q-7 -9 -18 -12q-4 -1 -9 -1q-15 -1 -20 13q-3 12 -11 23q-7 11 -16 19q-10 8 -21 14q-11 4 -22 7q-8 2 -17 1h-11q-13 2 -26 0l-5 -1q-6 -1 -12 -3l-2 -1.5l-2 -1.5
q-11 -9 -17 -21l-3 -4q-9 -15 -22 -28q-14 -14 -34 -9q-9 3 -12 13q-2 9 4 15q2 1 7 6q7 6 12 13q8 12 18 24q1 2 4 5q7 10 17 17q11 5 23 7l6 2q11 3 23 4h6q3 0 8 1q11 2 22 2h7q10 0 20 -2q14 -2 28 -7q9 -4 18 -10q1 -1 3 -2.5t3 -1.5q10 -7 18 -16l4 -3l5 -5
q9 -7 15 -16q6 -11 9 -22zM183 320v2q-1 2 -1 6q0 1 1 3q0 3 1 6q1 4 4 7q1 2 2 3q2 3 4 5l1 1q7 6 14 8l2 1q3 1 7 1q2 1 4.5 1t5.5 -1q3 0 6 -1l1 -1q4 -1 6 -3q2 -1 3 -2q3 -3 5 -6q1 -1 2 -3q2 -3 3 -7q0 -1 0.5 -3t0.5 -4q1 -4 1 -8q0 -2 -1 -3q0 -4 -1 -6l-2 -4
q-1 -2 -2 -5l-2 -1q-2 -3 -4 -5l-6 -4q-6 -4 -14 -5h-5h-3q-4 0 -7 2q-2 0 -3 1t-2 1q-5 1 -9 4q-5 2 -7 6q-1 1 -2 3l-2 8q-1 1 -1 3zM305 311l-2 6v9v2q-1 6 1 12q4 8 12 13q7 6 16 7q8 1 14 -3q2 -1 5 -2q2 -1 5 -2q3 -2 6 -5t5 -7q1 -2 2 -3l2 -6q3 -10 -1 -19
q-1 -4 -3 -7t-5 -5q-6 -6 -14 -9q-5 -2 -10 -2h-3q-6 0 -12 2q-9 3 -14 11q-3 4 -4 8z" />
    <glyph glyph-name="dotlessi" unicode="&#x131;" horiz-adv-x="108" 
d="M79 455q13 -33 8 -67q-7 -158 -6 -221q2 -52 3 -79q3 -77 -20 -86q-16 -5 -29 5q-11 6 -13 20q-1 8 -1 16q0 3 0.5 11t1.5 21t2 24q1 15 -1 40.5t-2 37.5t1 114t0 114q-1 23 7 45q9 10 20 14q4 2 8 2q14 1 21 -11z" />
    <glyph glyph-name="Lslash" unicode="&#x141;" horiz-adv-x="358" 
d="M314 91q19 4 34 -8t15 -27.5t-16 -28.5q-11 -6 -26.5 -7t-34.5 0.5t-28 1.5q-46 0 -92 -6l-16.5 -5.5t-17.5 -5.5t-16.5 -2.5t-17.5 4.5q-16 8 -24 29.5t-9 38t0.5 48t1.5 36.5q-27 -25 -47 -14q-20 13 -20 38q1 3 2.5 6t4.5 5.5t5 4.5t6 4.5t5 3.5q23 16 42 36
q-2 22 -2 64.5t-1 63.5q0 2 -2 24t-1.5 30.5t5 23t13.5 22.5q20 18 43 5q8 -5 11.5 -13.5t3.5 -13.5v-18q0 -10 -1.5 -55.5t-0.5 -69.5q9 8 34.5 31t39.5 35q13 11 20.5 14t23.5 -2q11 -4 17 -14t4 -22q-3 -11 -12.5 -21t-27.5 -23.5t-20 -14.5q-38 -31 -76 -63q1 -13 5 -38
t5 -38q0 -4 -0.5 -14t-0.5 -16t3 -13t9 -11q9 -5 25 -6t35.5 -0.5t27.5 0.5q35 -4 69 1z" />
    <glyph glyph-name="lslash" unicode="&#x142;" horiz-adv-x="566" 
d="M552 287q27 -79 -16 -150q-38 -53 -94 -88q-93 -63 -206 -62q-2 0 -16 2.5t-16.5 3t-15 3.5t-16.5 4t-14.5 4.5t-15.5 6.5t-14 7.5t-14.5 9.5t-12.5 11.5t-13 13.5q-64 72 -78 167q-8 52 4.5 99.5t39.5 83t60.5 61.5t71.5 42q36 16 78.5 19t78.5 -11q73 -35 135 -86
q27 -24 42.5 -57t31.5 -84zM480 163v1q22 41 20.5 88t-24.5 87q-9 16 -20 29t-26.5 25t-24.5 17.5t-29.5 17t-26.5 14.5q-29 8 -60 9.5t-63 -6t-60 -23t-51.5 -43.5t-37.5 -66q-26 -91 9 -179q38 -62 107 -79q84 -28 164 8q46 15 75.5 36.5t47.5 63.5z" />
    <glyph glyph-name="OE" unicode="&#x152;" horiz-adv-x="626" 
d="M535 488l26 -2t30.5 -5.5t26.5 -14t5 -24.5q-6 -23 -60 -22q-17 1 -49.5 -0.5t-47.5 -1.5q-60 -1 -118 -12q29 -41 42 -90q15 0 42 -5t40 -6q34 -2 68 -9q68 -15 42 -52q-16 -21 -72 -19q-20 1 -58 6t-54 6q-11 -68 -56 -121q38 -2 106 -12t91 -12q12 -1 17.5 -2t17 -3.5
t16.5 -6t10 -9t3.5 -14t-7.5 -19.5q-9 -14 -24.5 -18.5t-29.5 2.5q-42 12 -86 13q-44 2 -87 8q-7 1 -24.5 2t-29.5 4t-21 11q-31 -24 -70.5 -35t-79.5 -2.5t-66 38.5q-79 90 -67 249q10 46 33 86q28 37 69 57q43 26 93 26t93 -27q8 8 18.5 13.5t26.5 8t23.5 3.5t28.5 2t22 1
q12 0 53.5 4t63.5 4zM304 187q31 84 -7 164q-23 41 -74.5 58.5t-90.5 -11.5q-27 -24 -41 -61.5t-13.5 -74.5t6.5 -74q10 -49 61 -80.5t94 -2.5q42 33 65 82z" />
    <glyph glyph-name="oe" unicode="&#x153;" horiz-adv-x="730" 
d="M696 362q6 1 9.5 0.5t9 -2.5t5 -6.5t-1.5 -12.5q-5 -13 -34 -29q-5 -2 -1 -2q24 0 19 -24q-4 -14 -6 -16q0 -15 -12 -25q-9 -9 -20 -16q11 -1 21 -5q7 -2 2 -31q-2 -16 -15 -24q-14 -7 -29 -5q-4 0 -10.5 -2t-10.5 -2l7 -3q3 0 11 -1l13 -3q14 -1 18.5 -4.5t17.5 -5.5
q12 -2 15.5 -10.5t-2.5 -20.5q-8 -9 -19 -15q2 0 4.5 -1t4.5 -1q25 -4 12 -27q-10 -12 -25 -18q-13 -8 -29 -11q-6 0 -19 4t-19 4t-19 -0.5t-19.5 -0.5t-19.5 0.5t-19 0.5t-19 -2.5t-19 -2.5q-24 -1 -36 -3q-2 0 -15.5 -1.5t-20.5 -2.5q-6 -1 -18.5 0.5t-18.5 0.5t-17.5 -7
t-17.5 -6.5t-18.5 0.5t-18.5 1q-6 -1 -18 -4t-18 -3q-5 0 -17.5 -2t-19 -2t-19 2t-17.5 3q-25 2 -36 4q-21 -2 -42 2q-29 6 -28 28q2 24 13 28q3 1 14.5 -0.5t17.5 0.5q-7 9 -12 19q-4 5 -4 11q-7 3 -7 10t3.5 13.5t8.5 10.5q1 1 3 4t3 4q-6 -2 -15.5 -7.5t-13.5 -6.5
q-15 -2 -31 -2q-4 0 -14.5 0.5t-16.5 0.5q-4 0 -14.5 -3.5t-16.5 -2.5q-9 0 -16 18.5t-3 29.5t35 23q-12 7 3 26q9 10 21 15q12 8 25 10q1 0 2.5 -1t2.5 -1q-10 8 -7.5 17t13.5 17q15 11 32 18q-12 2 -23 5q-13 5 -3 25q-20 1 -40 7q-9 3 -7.5 10.5t5.5 13.5t9 11
q11 9 25 13q13 6 28 8q1 0 3.5 1t3.5 1q-14 2 -26 8q-17 6 -4 24q-10 17 -7 36q2 20 15 35q14 12 32 10q3 0 37 -2q5 -1 17.5 0.5t18.5 0.5q7 0 19.5 -2t17.5 -3q5 0 17.5 -1t18.5 -2q7 -1 20.5 -2t16.5 -1q5 -1 17 -4t19 -3q6 0 37 1q5 0 15.5 -1t16 -0.5t16 4.5t16 4
t16.5 -3t16 -3t16 3t16 3q18 -1 36 -4q17 -6 35 -11q18 0 35 8q7 3 15.5 5t19.5 0.5t12 -10.5q1 -1 0 -12t-1 -18t2 -9q8 1 11 -9t0 -22q-5 -17 -17 -30q-2 -4 1.5 -8.5t6 -6.5t-2.5 -5q8 0 10.5 -3t10.5 -3zM656 230h2q0 1 -2 0z" />
    <glyph glyph-name="Scaron" unicode="&#x160;" horiz-adv-x="302" 
d="M287 463q10 -8 12 -14.5t-2 -15.5q-5 -13 -19 -19q-19 -6 -30 -4.5t-29.5 7t-28.5 5.5q-31 1 -80 -44q-10 -8 -11 -12t4 -15q14 -22 34 -37q7 -6 47 -35.5t61.5 -50.5t33.5 -46q18 -41 -6 -79q-7 -12 -18.5 -20t-27.5 -15.5t-24 -13.5q-46 -26 -97 -40q-22 -10 -45 -17
q-30 -11 -54 10q-8 10 -0.5 29t22.5 28q49 23 102 32q36 9 48 29t3.5 43t-31.5 47q-14 15 -48 36t-59 43t-31 47q-2 8 -2 15t2 13.5t4 11.5t8 11.5t9 10t11 10.5q4 4 10.5 12t10.5 12q20 17 45 27q28 12 58 18t63.5 2.5t54.5 -21.5zM179 509q-13 -10 -25 -10.5t-22.5 8
t-18 16.5t-15.5 21q-1 0 -18 19.5t-23.5 34.5t0.5 25q12 12 28.5 9.5t27.5 -13.5q7 -8 19 -23t17 -20l17 29l5 5l6 6t5.5 5t6.5 5.5t6 3.5t7 2.5t7 0.5t8 -1q12 -3 17.5 -14t-0.5 -23q-4 -6 -14 -20t-15 -22q-1 -1 -9.5 -19.5t-16.5 -24.5z" />
    <glyph glyph-name="scaron" unicode="&#x161;" horiz-adv-x="537" 
d="M531 95q7 -6 5 -13t-10 -12q-14 -8 -29 1q0 1 -7.5 6.5t-10.5 8.5l10.5 -14t11.5 -16q11 -15 20 -31q5 -10 0.5 -16.5t-13.5 -8.5q-19 -3 -30 11q-5 6 -16.5 12.5t-15.5 11.5q-7 -6 -19.5 -8t-17.5 2q-15 12 -26 27q-9 16 -16 34q-3 6 -9 17t-9 16q-7 15 -19 35
q-4 6 -12 16.5t-12 15.5q-18 29 -21 34q-2 3 -5 10t-5 10q-5 -4 -17 -13t-18 -14t-16.5 -16t-15.5 -16q-15 -12 -27 -26q-22 -25 -26 -29q-3 -4 -22 -31q-10 -15 -16 -33q-7 -11 -19 -15.5t-24 -0.5q-9 5 -6 20q-3 -4 -6 -15t-7 -15q-7 -12 -21.5 -10.5t-19.5 14.5
q1 9 5.5 15t12 13t11.5 13q3 3 9.5 13.5t11 16t13.5 14t12 11.5q30 31 32 33q-5 -3 -16 -8.5t-16 -9.5q-15 -11 -27 -25q-14 -12 -25 -27q-7 -14 -23 -13q-10 1 -15 5.5t-1 12.5q10 15 25 27q14 12 30 22l15 12l15 12q4 2 14 8t15 10q5 3 14.5 9t14.5 9t13.5 11t13.5 11
q3 2 13 9t15 10q7 5 23 12.5t22 12.5q-4 4 -14 13t-14 12.5t-12.5 12.5t-13.5 14q-1 1 -28 24q-6 4 -17 12.5t-12 9.5q-4 3 -13.5 11.5t-15.5 12.5q-3 2 -13.5 10t-16.5 12q-4 3 -3 13t6 12q19 5 34 -7q10 -6 30 -20q-7 9 -13 20q-3 7 0.5 14t10.5 9q16 5 28 -7q-3 4 -10 10
t-10 10t-7 13t-7 13q-5 7 -2 15.5t12 11.5q18 9 30 -8q4 -5 10 -14.5t9.5 -14.5t11.5 -13.5t11.5 -13t8.5 -15t8.5 -15.5t11.5 -13t12 -13q3 -3 10 -12.5t11 -14.5q3 -5 9.5 -14.5t10 -14t10.5 -14.5t11 -15q2 2 6.5 7.5t7.5 6.5q5 4 16 11t16 11t14.5 12.5t15.5 13.5
q5 4 15.5 12t15.5 11q11 9 31 23q13 9 29 8q13 -2 5 -8q-4 -3 -14 -7t-14.5 -7.5t-12 -11l-10.5 -10.5q4 3 16 10t18 11q13 8 30 3q14 -5 -2 -15q-2 -2 -5 -2.5t-4 -1.5q6 1 11 -4q3 -4 -2 -7.5t-12 -5.5q-1 0 -1 -2v-1l-1 2q-1 -1 -4 -1t-4 -1q-4 -2 -8.5 -6t-6.5 -6
q-4 -2 -11.5 -8t-11 -8t-12 -6t-12.5 -7q-21 -14 -35 -24q-7 -4 -19.5 -13.5t-15.5 -11.5l-0.5 -1l-0.5 -1q3 -3 10.5 -12.5t11.5 -14.5q3 -4 12 -11.5t13 -11.5q2 -3 9.5 -12.5t11.5 -14.5q4 -4 11 -13t11 -14q3 -3 10.5 -12t11.5 -14q4 -4 13.5 -11t13.5 -10q8 -8 25 -23
q4 -4 11.5 -12.5t12.5 -12.5z" />
    <glyph glyph-name="Ydieresis" unicode="&#x178;" horiz-adv-x="292" 
d="M75 515q-14 4 -22 17q-7 9 -7.5 17.5t2.5 18.5q7 29 37 22q27 -6 35 -31q3 -10 0 -20q-3 -15 -17 -22.5t-28 -1.5zM209 510q-24 -3 -34.5 16.5t-2.5 39.5t31 20q15 0 26 -10t12 -25t-8 -27t-24 -14zM273 483q15 -3 19.5 -16t0 -31t-11.5 -35t-15 -34.5t-9 -22.5
q-24 -93 -63 -182q-8 -72 -32 -141q-6 -16 -19 -28t-28 -13t-27 18q-7 12 -7 27t2.5 24t10.5 27t10 23q37 99 11 145q-5 9 -29.5 58t-40.5 73q-3 5 -10.5 13.5t-14 16t-13.5 17t-10.5 18t-3.5 18t6 18.5q43 61 157 -155q7 -12 8 -15q30 51 44 109q10 28 26.5 50t38.5 18z
" />
    <glyph glyph-name="Zcaron" unicode="&#x17d;" horiz-adv-x="390" 
d="M116 595h1q-6 11 -1.5 22.5t16.5 14.5q4 2 8 2h7t7.5 -2t6.5 -3.5t6.5 -5t5.5 -4.5t6 -5.5t6 -5.5q1 -2 8 -12.5t10 -15.5q5 6 16 21.5t18 23.5q10 12 26.5 15.5t28.5 -8.5q4 -8 4 -15t-6 -18t-12 -19t-13 -17t-9 -12q-6 -10 -11 -17.5t-13.5 -15.5t-16 -11.5t-18 -3
t-20.5 7.5q-9 6 -18.5 24t-10.5 19q-5 8 -16 21t-16 20zM348 81q23 -2 36 -24.5t-6 -39.5q-14 -12 -42 -12.5t-44 3.5q-17 2 -47.5 8t-43.5 8q-70 3 -138 -12q-32 -4 -53.5 11.5t-2.5 46.5q11 17 26.5 33t37.5 35t32 29q19 20 49 61.5t43 56.5q22 24 40 50q18 22 32 46
q4 12 -4 19.5t-17 9.5t-22 4q-29 2 -57 -1q-7 -1 -46.5 -11t-60 -6.5t-25.5 20t4.5 33.5t26.5 22q58 13 117 10q23 2 64 -4.5t59 -6.5h9h10.5t9.5 -0.5t10 -1.5t9 -2.5t8.5 -4l6 -6t5.5 -8t2 -10.5q2 -16 -8.5 -31.5t-26 -32t-21.5 -27.5q-29 -53 -67 -102q-32 -44 -43 -58
q-6 -7 -21 -24t-22 -26q-13 -17 -13.5 -27.5t9 -13.5t23 -4t27 0.5t21.5 -1.5q30 -8 62 -10q7 0 24.5 1t27.5 0z" />
    <glyph glyph-name="zcaron" unicode="&#x17e;" horiz-adv-x="674" 
d="M655.5 111q0.5 -7 4.5 -21.5t5 -21.5q1 -14 -21 -31q-14 -11 -32 -14q-8 0 -24.5 -3t-25 -3.5t-25.5 1t-25 1.5q-9 -1 -27.5 -1h-21.5q-9 0 -26 0.5t-24 0.5q-8 0 -25 -0.5t-25 -0.5t-25 -2t-25 -2t-24.5 0.5t-24.5 0.5t-24 -1t-25 -1q-7 0 -23.5 0.5t-24.5 0.5
q-49 0 -62 1q-1 0 -6.5 0.5t-10 0.5h-9t-7.5 -1t-4 -4q-1 -12 -10 -21t-21 -10q-15 -2 -25.5 4t-9.5 16q0 4 -1 14t-1 15l2 2l1 2q-3 3 -2.5 8t5.5 8l12 45q3 8 8.5 23t8.5 22q7 23 12 47q2 8 2.5 23.5t1.5 21.5q1 8 3 23t4 23q1 8 5 23.5t6 21.5q4 22 12 44q12 17 34 21
q30 9 37 -6q2 -7 9 -18t10 -16q2 -6 5.5 -18.5t6.5 -18.5q4 -7 11 -18.5t9 -14.5q3 -6 11 -18l12 -18q4 8 12 23.5t12 21.5q3 7 12 21.5t13 21.5q4 8 12 22.5t12 21.5q1 2 10 18.5t14 25.5q18 32 24 43q13 17 33 23q31 10 38 -7q8 -25 11 -51q7 -26 11 -53q0 -9 1 -26.5
t2 -26.5q1 -5 1.5 -19t1.5 -22q1 -7 5 -20t5 -19q13 18 24 39q10 21 23 41q5 7 14 20.5t12 18.5q12 21 21 43q14 16 35 22q32 10 35 -8q1 -6 4.5 -20.5t4.5 -21.5q1 -9 3 -25t3 -19q1 -7 3.5 -21.5t3.5 -21.5q1 -8 1 -22.5t1 -21.5t2.5 -21.5t2.5 -22.5q1 -7 1.5 -21.5
t1.5 -21.5q1 -8 2 -22.5t1.5 -21.5zM542 70q7 1 24 0.5t24 0.5q-1 8 -4 24.5t-3.5 25t0.5 25t0 24.5t-5.5 24t-5 24t0 24.5t-0.5 24.5q-1 9 -5 24.5t-5 23.5q-3 -6 -8 -17.5t-7 -16.5q-12 -21 -26 -41q-12 -19 -27 -40q-5 -7 -12.5 -21.5t-11.5 -20.5q-15 -14 -35 -18
q-12 -4 -22.5 -1.5t-12.5 9.5q-6 23 -11 51q-9 41 -10 50q-1 8 -2 16.5t-1.5 19t-1.5 15.5q0 7 -3 20t-3 20q-1 5 -1.5 20t-1.5 23q-4 -7 -12 -22t-12 -22q-3 -6 -10.5 -20.5t-11.5 -21.5q-3 -6 -10 -20.5t-11.5 -22t-13.5 -21t-12 -18.5q-5 -8 -15 -23t-11 -17
q-14 -12 -33 -16q-29 -8 -32 5q-8 25 -22 48q-14 25 -26 47q-1 1 -4 4.5t-4 4.5q0 -5 -0.5 -17.5t-1.5 -18.5q-1 0 -8 -34q-2 -9 -7 -24.5t-6 -19.5q-2 -7 -4 -22t-4 -22q-2 -6 -8 -21t-8 -23h37q14 0 36 -1q9 -1 27 -0.5t25 0.5q10 0 27.5 0.5t24.5 0.5q9 1 26.5 -1
t26.5 -2q8 0 23.5 1.5t23.5 1.5q7 0 22.5 -0.5t23.5 0.5q8 0 23.5 1.5t23.5 1.5h22.5h24.5q7 1 22.5 1h24.5z" />
    <glyph glyph-name="circumflex" unicode="&#x2c6;" horiz-adv-x="215" 
d="M196 434q11 -17 -4.5 -26t-32.5 -5q-7 2 -13.5 5.5t-13 11t-9 10.5t-10 14t-7.5 12q-3 -4 -21 -29q-9 -19 -36 -29q-31 -12 -34 17q0 4 1.5 8.5t3 7.5t5 8t4.5 7q6 9 16 27t12 22q6 11 14.5 20.5t19 16.5t22.5 5t24 -13q16 -23 28 -47q6 -10 31 -43z" />
    <glyph glyph-name="caron" unicode="&#x2c7;" horiz-adv-x="156" 
d="M148 533q12 -4 17 -15.5t0 -23.5q-4 -7 -14 -22t-15 -23q-1 -1 -9.5 -20.5t-16.5 -25.5q-10 -9 -21 -10t-19 2.5t-17 12.5t-14 16t-12 17q0 2 -17 22t-23.5 35.5t1.5 25.5q11 12 28 9.5t28 -14.5q7 -8 18.5 -23.5t16.5 -21.5q2 3 8 14t9 16q1 1 5.5 6t5.5 6t5.5 5
t6.5 5.5t6 4t7 3t7.5 0.5t8.5 -1z" />
    <glyph glyph-name="ilde" unicode="&#x2dc;" horiz-adv-x="271" 
d="M264 512q13 -19 0.5 -42t-32.5 -31q-40 -16 -80 1q-2 1 -10 4t-11.5 4t-10.5 2.5t-11.5 1.5t-10.5 -1.5t-12 -4.5q-4 -3 -9 -7.5t-9.5 -7.5t-11.5 -3q-10 -1 -25 5.5t-16 12.5q-9 35 34 64q36 18 74 5q6 -2 18 -7t21 -8.5t20.5 -5.5t15.5 4q4 2 9 11t11 12q26 12 46 -9z
" />
    <glyph glyph-name="endash" unicode="&#x2013;" horiz-adv-x="409" 
d="M392 184q1 -4 1 -8q2 -14 -8 -23q-26 -15 -55 -10q-124 8 -180 7q-42 -2 -64 -3q-63 -4 -70 21q-4 17 4 33q3 13 17 14q6 1 12 1q3 0 9.5 -0.5t17 -1.5t19.5 -2q12 -1 33 1.5t30 1.5q10 0 93 -1t93 0q19 1 37 -8q8 -10 11 -22z" />
    <glyph glyph-name="emdash" unicode="&#x2014;" horiz-adv-x="707" 
d="M679 211q15 -14 11 -30t-25 -25q-43 -11 -86 -1q-42 6 -84 0q-73 -5 -146 -1q-85 3 -164 1q-35 -1 -68 -3q-33 -4 -66 -4q-23 2 -32 17.5t0 31t31 18.5q134 17 267 4q34 -1 48.5 -1t48 0.5t47.5 1.5q7 0 75.5 -0.5t73.5 1.5q37 10 69 -10z" />
    <glyph glyph-name="quoteleft" unicode="&#x2018;" horiz-adv-x="126" 
d="M103 425q1 -4 2 -12q6 -29 2.5 -55.5t-25.5 -24.5h-5.5t-13 7t-17.5 21q-10 14 -16 29q-9 21 -12 43q-2 14 -2 24.5t9 18t28 10.5q24 3 35.5 -16t14.5 -45z" />
    <glyph glyph-name="quoteright" unicode="&#x2019;" horiz-adv-x="126" 
d="M89 483q12 -3 17 -12t4 -21.5t-4.5 -23t-8.5 -20.5q0 -1 -2 -4l-6 -13.5t-6.5 -12.5t-7.5 -12t-7.5 -9.5t-8 -8t-8 -4.5t-9.5 -1t-10 4q-2 0 -4.5 1.5t-7 11.5t-3.5 27q0 37 12 72q9 20 21.5 27t38.5 -1z" />
    <glyph glyph-name="quotesinglbase" unicode="&#x201a;" horiz-adv-x="126" 
d="M75 112q20 -6 29 -24t2 -37q-2 -8 -5 -12.5t-8 -10.5t-9 -13q-15 -25 -33 -47q-10 -12 -19.5 -15t-14.5 -1l-4 3q-5 3 -5.5 10t2.5 17.5t6.5 20.5t8 23t6.5 21q1 4 3.5 16t5 19t7 16t11.5 12.5t17 1.5z" />
    <glyph glyph-name="quoteleftreversed" unicode="&#x201b;" horiz-adv-x="125" 
d="M98 464q1 -6 3.5 -16.5t4 -17t2.5 -16t0 -15t-3.5 -10.5t-8 -7.5t-13.5 -2.5q-2 -2 -5.5 -3t-13.5 3.5t-19 18.5q-10 12 -18 27q-10 20 -14 42q-8 20 -2 35t32 20q24 5 37 -13.5t18 -44.5z" />
    <glyph glyph-name="quotedblleft" unicode="&#x201c;" horiz-adv-x="222" 
d="M204 383q2 -35 -11 -37q-18 -5 -33 13t-28 50q-26 64 9 75q23 8 34 1t19 -28q11 -36 10 -74zM53 482q10 1 17.5 -1.5t11.5 -10t6 -12t4 -16t3 -12.5q2 -8 5.5 -20t6.5 -21.5t5.5 -19t1.5 -15.5t-5 -8q-26 -3 -44 17q-16 18 -28 39q-4 7 -8.5 12.5t-7 10t-5.5 11.5
q-4 16 6 30t31 16z" />
    <glyph glyph-name="quotedblright" unicode="&#x201d;" horiz-adv-x="232" 
d="M200 482q13 -5 15.5 -20t-2 -29t-12.5 -28q-16 -29 -33.5 -47t-31.5 -12q-1 1 -3.5 2.5t-5.5 11.5t-1 26q3 37 17 71q10 20 21 26t36 -1zM78 486q18 0 29.5 -15t6.5 -33q-2 -7 -4.5 -11.5t-7.5 -10.5t-8 -13q-12 -22 -29 -41q-17 -20 -44 -17q-4 2 -5 8.5t1.5 16.5
t5.5 19.5t7 22t6 20.5q0 2 2.5 14t4.5 16.5t6 12.5t11.5 10.5t17.5 0.5z" />
    <glyph glyph-name="quotedblbase" unicode="&#x201e;" horiz-adv-x="218" 
d="M184 109q13 -4 16 -19t-0.5 -29t-9.5 -29q-13 -30 -28 -49t-28 -14q-2 1 -4 2.5t-5.5 11t-2.5 25.5q1 37 12 72q7 21 18 28t32 1zM63 112q18 0 29.5 -14t7.5 -31q-6 -20 -17 -37q-10 -22 -24 -42q-14 -22 -39 -21q-4 2 -5.5 8.5t0 16.5t4 20t5.5 22.5t4 20.5q0 3 1 12
t2 13.5t3.5 12t5.5 11t9 6.5t14 2z" />
    <glyph glyph-name="dagger" unicode="&#x2020;" horiz-adv-x="429" 
d="M377 334q6 -14 -3 -22.5t-28.5 -10.5t-36 -2t-38 2.5t-22.5 2.5l-1 -50q3 -37 -1.5 -69t-3.5 -64q1 -20 5 -60t5 -59q5 -34 -21 -57q-13 -11 -29.5 -8t-19.5 22q-1 22 -1 32.5t0.5 33t0.5 32.5q1 16 0 33t0 37q6 162 6 179q-17 0 -47.5 -1.5t-44.5 -1.5q-35 0 -43 13
q-7 12 -2.5 25.5t17.5 19.5q26 1 51 -3q12 0 34 1.5t33 1.5q0 1 2 78q0 4 -0.5 17t0 20t3.5 16.5t9 15.5q16 14 35.5 6.5t22.5 -28.5q3 -26 -4 -50q-2 -7 -3 -22t-2 -23v-31q46 -1 81 -1q14 0 20.5 -1t14 -6.5t11.5 -17.5z" />
    <glyph glyph-name="daggerdbl" unicode="&#x2021;" horiz-adv-x="364" 
d="M289 105q44 2 53 -13q4 -11 0.5 -22.5t-13.5 -17.5q-20 -6 -40 -3q-15 0 -74 -1q0 -4 0.5 -17.5t0 -23.5t-1 -25t-3.5 -26t-7.5 -21.5t-12.5 -16t-19 -5.5q-13 1 -22.5 10t-10.5 23q-1 50 6 101q-9 0 -30.5 1.5t-33.5 0.5q-23 -3 -46 -2q-13 5 -17.5 18t2.5 25
q8 12 40 13q15 0 43.5 -1.5t42.5 -1.5q0 23 -2.5 114t1.5 114q-119 3 -125 23q-5 19 6 31.5t29.5 15.5t38 3.5t33.5 -2t13 -4.5q2 9 -0.5 42t4 55t31.5 25q12 2 20.5 -2t13.5 -14t8 -18.5t3.5 -24.5t0.5 -23.5t-0.5 -24t-0.5 -17.5q1 0 22 1t34.5 0.5t31.5 -2.5t28.5 -9.5
t10.5 -20.5q3 -35 -43 -30q-47 2 -93 -2q0 -20 -1 -57t-1 -56q0 -21 2.5 -60.5t3.5 -54.5q51 2 74 3z" />
    <glyph glyph-name="bullet" unicode="&#x2022;" horiz-adv-x="198" 
d="M148 305q3 -5 11 -13t12.5 -13t7.5 -13.5t1 -16.5q-2 -7 -4 -18.5t-5 -20.5q-22 -46 -72 -56q-11 -1 -20 1.5t-17.5 11l-12.5 12.5t-12.5 17.5t-9.5 14.5q-14 25 -8.5 52t27.5 45q23 16 51.5 15.5t50.5 -18.5z" />
    <glyph glyph-name="ellipsis" unicode="&#x2026;" horiz-adv-x="497" 
d="M476 91q1 -3 2.5 -9.5t2 -10t-0.5 -8.5t-4 -9q-2 -3 -6.5 -8.5t-8.5 -9.5q-21 -13 -44 -3q-12 5 -19 15.5t-6 22.5q0 16 10 29t26 17q15 3 29 -4.5t19 -21.5zM67 118q16 -4 26 -16.5t11 -28.5t-9 -28t-25 -14q-3 0 -9.5 -0.5t-10 -0.5t-8.5 2t-8 6q-3 3 -7.5 8t-7.5 10
q-9 24 6 44q15 24 42 18zM250 114q16 -2 27.5 -14t13.5 -28q1 -16 -8.5 -28.5t-24.5 -15.5q-3 -1 -9.5 -1.5t-10.5 -0.5t-9 1.5t-8 5.5l-7 7t-9 10q-12 23 1 45q16 25 44 19z" />
    <glyph glyph-name="perthousand" unicode="&#x2030;" horiz-adv-x="660" 
d="M293 316q-8 -19 -24 -48q-4 -7 -11.5 -23.5t-11.5 -23.5q-12 -24 -18 -49q-3 -8 -12 -25t-12 -24q-8 -24 -20 -47q-8 -26 -22 -50q-6 -8 -9 -11.5t-9 -6.5t-13 -2q-13 2 -22 11q-15 16 -10 37q3 10 7 20q1 1 5.5 10.5t6.5 12.5q13 28 29 54q13 23 34 66q1 2 4.5 8t5.5 10
q1 3 14 31q5 10 12 30.5t10 29.5q32 68 72 132q7 9 17.5 11t19.5 -3.5t13 -15.5t0 -20q-8 -28 -25 -52q-23 -44 -31 -62zM416 215q20 -25 29 -57q13 -38 -0.5 -76.5t-48.5 -60.5q-40 -20 -81.5 -3t-55.5 60q-13 36 -4.5 73t35.5 64q29 29 71 32q14 0 33.5 -9t21.5 -23z
M392 90q10 22 6 50.5t-25 40.5t-39 1t-24 -36q-7 -21 -0.5 -42t23.5 -35q16 -12 35 -5t24 26zM199 392q9 -37 -2 -73t-38 -62q-29 -27 -69 -25q-34 7 -52 36q-14 26 -20.5 56.5t-0.5 63.5t27 54q18 20 43.5 26.5t50.5 -2t41.5 -28.5t19.5 -46zM139 313q21 43 2 86
q-9 18 -28.5 20.5t-31.5 -13.5q-13 -19 -16.5 -48t8.5 -50q16 -20 34 -18t32 23zM610 214q25 -28 33 -64.5t-3 -72.5q-5 -26 -23 -44.5t-43.5 -25t-50.5 2t-41 28.5q-20 23 -23.5 56.5t5 63.5t24.5 54q20 28 55 33q40 -1 67 -31zM581 74q23 42 4 86q-12 22 -30 25.5
t-35 -15.5q-14 -20 -12.5 -49t13.5 -50q11 -16 30.5 -15t29.5 18z" />
    <glyph glyph-name="guilsinglleft" unicode="&#x2039;" horiz-adv-x="271" 
d="M218 81q1 -1 6 -5t6.5 -6t5.5 -6.5t6 -7.5t3.5 -7.5t2.5 -8.5q1 -14 -10.5 -23.5t-25.5 -6.5q-8 2 -14.5 7t-15 15t-10.5 13q-4 4 -20 20.5t-25 25.5q-28 31 -44 50l-9 9t-11 11.5t-8 12t-5 13.5q-1 7 2 14t6 10t10.5 9.5t9.5 7.5q24 21 44 47q32 43 71 81q6 6 16 11
t21.5 7.5t19 -3.5t6.5 -22q0 -13 -11 -26t-27 -26t-20 -19q-12 -15 -36 -40.5t-27 -29.5q-1 -2 -4 -4.5t-4 -4t-2.5 -3.5t-1.5 -3.5t-0.5 -4t0.5 -5t2 -5.5q11 -17 26 -31q31 -31 67 -66z" />
    <glyph glyph-name="guilsinglright" unicode="&#x203a;" horiz-adv-x="289" 
d="M229 223q23 -27 -9 -54q-26 -22 -48 -47q-12 -13 -39 -42t-42 -44q-8 -9 -16.5 -16t-20.5 -13t-22.5 -3.5t-16.5 14.5q-4 13 -3 22.5t11 20.5t19 18t20.5 15t15.5 12q46 44 79 82q5 7 6 13t-3 13t-7.5 11t-11.5 11t-10 10q-13 13 -39 36.5t-38 35.5q-24 24 -20 42
q4 12 15 17.5t24 1.5q8 -2 15 -7.5t15.5 -15.5t12.5 -14l37 -37q48 -50 76 -82z" />
    <glyph glyph-name="fraction" unicode="&#x2044;" horiz-adv-x="528" 
d="M419 491q16 16 33.5 12.5t23 -19t-3.5 -35.5q-69 -109 -160 -200q-14 -16 -28.5 -33t-32.5 -40.5t-26 -34.5q-50 -52 -84 -116q-14 -32 -47 -40q-20 -4 -34 10.5t-9 34.5q18 39 52 65q30 27 51 62q41 58 88 109q54 62 101 122q20 25 39 52q17 27 37 51z" />
    <glyph glyph-name="Euro" unicode="&#x20ac;" horiz-adv-x="439" 
d="M411 97q11 -13 8 -23q-8 -32 -37 -46q-29 -18 -70 -19t-78.5 11t-66.5 31q-64 43 -84 118q-20 1 -26 1q-16 -5 -29.5 4.5t-14.5 26.5q-1 4 -1 9q-1 13 9 22q24 14 51 8l7 -1q3 18 7 39q-49 2 -53 25q-4 18 5 33q4 12 17 13q7 1 13 0q3 0 7.5 -0.5t13 -2t14.5 -2.5
q19 58 60 103q41 42 96 55.5t107 -12.5q14 -4 26 -10q23 -13 21 -39q-1 -16 -14 -25.5t-29 -3.5q-8 1 -26 6.5t-29 6.5q-48 -7 -87 -36q-32 -16 -51 -47q10 -1 92.5 -7t92.5 -6q20 0 36 -10q8 -10 10 -23q1 -4 1 -8q1 -14 -10 -22q-27 -14 -55 -6q-128 15 -179 17h-2
q-4 -22 -6 -44q67 -5 82 -5q40 1 61 1q7 1 17 0t19.5 -2t17.5 -7t10 -15q3 -17 -5 -32q-3 -13 -16 -14q-6 -1 -12 -1q-2 1 -8 1.5t-16 2t-19 2.5q-11 1 -30 -0.5t-28 -0.5q-3 0 -66 3q4 -15 12 -27q26 -36 68 -50t83 1q27 3 52 11h1q22 7 31 -4z" />
    <glyph glyph-name="trademark" unicode="&#x2122;" horiz-adv-x="589" 
d="M560 251q1 -1 4.5 -18t4 -23.5t-2 -17.5t-9.5 -18q-17 -15 -37 -6q-5 3 -7.5 9t-3.5 16t-2 12q-8 32 -7 65q0 8 -4.5 26t-3.5 27q-5 -1 -9 -6.5t-7 -11t-7 -14.5t-5.5 -14t-4.5 -14t-4 -11l-2 -5.5t-2.5 -6.5t-2 -6t-2.5 -7t-3.5 -6t-4 -5.5t-4 -5t-4.5 -5t-5.5 -3
t-6.5 -2.5q-8 -5 -14.5 -2.5t-10 3.5t-7 7.5t-5 10.5t-3.5 11.5t-3 11.5q-9 19 -14 40q-1 3 -1.5 13.5t-2 19t-4.5 12.5q-10 10 -12 -11q-1 -2 -1 -7t-1 -7q-1 -10 -3 -43.5t-6 -51.5q-9 -45 -39 -48q-19 -2 -25.5 12.5t-3.5 33.5q-5 17 0.5 40t16 50.5t13.5 39.5
q2 13 4.5 62t14.5 73q-56 8 -73 -7q-6 -6 -9 -14t-4 -22.5t-2 -17.5q-10 -86 -1 -172q1 -8 0 -18t-2 -20.5t-4.5 -19t-9 -13.5t-15 -4t-21.5 10q-11 8 -15 24.5t-2 30.5t6 35.5t5 28.5q4 11 2.5 77t-0.5 78q0 16 -5 23t-14.5 5t-20 -6t-22.5 -9t-20 -5q-27 0 -33 21.5
t18 33.5q41 16 85 14q11 0 39.5 -1.5t44.5 -0.5q10 1 30 5t30 5q72 5 80 -23q2 -12 -4 -21.5t-17 -13.5q27 -28 33 -67q17 -69 25 -96q38 50 58 109q6 15 8.5 20.5t10 18t17 17t20.5 3.5q14 -2 18 -10.5t5 -24.5q5 -27 4 -55q0 -5 -4 -14.5t-4 -14.5q-1 -19 5 -37
q2 -13 4 -36.5t3 -34.5z" />
    <glyph glyph-name="minus" unicode="&#x2212;" horiz-adv-x="369" 
d="M353 244q2 -3 2 -6q1 -12 -8 -19q-24 -12 -50 -7q-110 6 -161 5q-38 -2 -58 -3q-57 -2 -63 18q-4 13 4 26q3 11 14 12h12q2 0 8 -0.5t15.5 -1.5t17.5 -1q11 -1 29.5 1t27.5 1q9 0 83.5 -0.5t83.5 -0.5q17 2 33 -6q7 -8 10 -18z" />
    </font>
</defs>
</svg>
